<?xml version="1.0" standalone="no"?><!DOCTYPE svg PUBLIC "-//W3C//DTD SVG 1.1//EN" "http://www.w3.org/Graphics/SVG/1.1/DTD/svg11.dtd"><svg class="icon" width="200px" height="200.00px" viewBox="0 0 1024 1024" version="1.1" xmlns="http://www.w3.org/2000/svg"><path fill="#23B8FF" d="M972.8 460.8v-118.4c0-44.8-35.2-80-80-80h-16c-6.4-48-48-112-99.2-112H240c-51.2 0-92.8 67.2-99.2 112H128c-44.8 0-80 35.2-80 80v118.4c-22.4 6.4-35.2 25.6-35.2 48v92.8c0 22.4 16 41.6 35.2 48v121.6c0 54.4 44.8 102.4 102.4 102.4H320c102.4 0 144-73.6 182.4-156.8 0 0 3.2-3.2 6.4-3.2h3.2c28.8 73.6 73.6 156.8 185.6 156.8h172.8c54.4 0 102.4-44.8 102.4-102.4v-121.6c22.4-3.2 38.4-25.6 38.4-48V512c0-25.6-16-44.8-38.4-51.2zM208 262.4c6.4-19.2 19.2-51.2 35.2-51.2h537.6c12.8 0 25.6 28.8 35.2 51.2h-608z m-96 508.8V640c9.6-9.6 16-22.4 16-35.2V512c0-12.8-6.4-25.6-16-35.2v-131.2c0-9.6 6.4-16 16-16h761.6c9.6 0 16 6.4 16 16V480c-6.4 9.6-12.8 19.2-12.8 32v92.8c0 12.8 3.2 22.4 12.8 32v137.6c0 19.2-16 38.4-38.4 38.4h-172.8c-57.6 0-92.8-35.2-124.8-115.2-9.6-25.6-35.2-41.6-60.8-41.6-25.6 0-51.2 16-64 38.4-38.4 80-67.2 121.6-124.8 121.6H150.4c-22.4-6.4-38.4-22.4-38.4-44.8z"  /><path fill="#23B8FF" d="M304 438.4c-64 0-115.2 51.2-115.2 115.2s51.2 115.2 115.2 115.2 115.2-51.2 115.2-115.2c0-60.8-51.2-115.2-115.2-115.2z m0 188.8c-38.4 0-73.6-32-73.6-73.6s32-73.6 73.6-73.6 73.6 32 73.6 73.6c-3.2 41.6-35.2 73.6-73.6 73.6zM720 438.4c-64 0-115.2 51.2-115.2 115.2s51.2 115.2 115.2 115.2 115.2-51.2 115.2-115.2c3.2-60.8-48-115.2-115.2-115.2z m0 192c-38.4 0-73.6-32-73.6-73.6s32-73.6 73.6-73.6 73.6 32 73.6 73.6c0 38.4-32 70.4-73.6 73.6z"  /></svg>