<?xml version="1.0" standalone="no"?><!DOCTYPE svg PUBLIC "-//W3C//DTD SVG 1.1//EN" "http://www.w3.org/Graphics/SVG/1.1/DTD/svg11.dtd"><svg t="1588053972373" class="icon" viewBox="0 0 1024 1024" version="1.1" xmlns="http://www.w3.org/2000/svg" p-id="5464" xmlns:xlink="http://www.w3.org/1999/xlink" width="200" height="200"><defs><style type="text/css"></style></defs><path d="M810.821818 796.625455c-48.872727-28.625455-105.425455-45.381818-166.167273-45.381819-114.036364 0-214.109091 56.087273-274.385454 144.058182-24.436364 35.84 279.970909 75.869091 440.552727-98.676363z" fill="#23B8FF" p-id="5465"></path><path d="M512 69.818182C268.8 69.818182 69.818182 268.8 69.818182 512c0 111.476364 42.123636 213.410909 111.010909 291.374545 0 0.465455-0.232727 0.930909-0.465455 1.396364h1.861819C263.214545 896.232727 380.974545 954.181818 512 954.181818c243.2 0 442.181818-198.981818 442.181818-442.181818S755.2 69.818182 512 69.818182zM123.810909 512C123.810909 297.890909 297.890909 123.810909 512 123.810909S900.189091 297.890909 900.189091 512c0 90.763636-31.650909 174.08-84.014546 240.407273-35.374545-87.970909-106.356364-158.72-195.490909-192 50.734545-35.374545 84.712727-93.789091 84.712728-158.72 0-104.96-88.436364-193.396364-193.396364-193.396364s-193.396364 88.436364-193.396364 193.396364c0 63.301818 32.116364 120.32 80.523637 155.927272-89.367273 30.021818-161.512727 97.047273-198.749091 185.25091-47.941818-64.930909-76.567273-144.523636-76.567273-230.865455z m249.949091-110.545455c0-77.498182 60.741818-138.24 138.24-138.24s138.24 60.741818 138.24 138.24-60.741818 138.24-138.24 138.24-138.24-60.741818-138.24-138.24zM249.018182 796.625455c30.72-117.294545 138.938182-201.774545 262.981818-201.774546s232.261818 84.48 262.981818 201.774546c-69.352727 64-161.512727 103.563636-262.981818 103.563636s-193.861818-39.563636-262.981818-103.563636z" fill="#909399" p-id="5466"></path></svg>