<?xml version="1.0" standalone="no"?><!DOCTYPE svg PUBLIC "-//W3C//DTD SVG 1.1//EN" "http://www.w3.org/Graphics/SVG/1.1/DTD/svg11.dtd"><svg t="1587953433955" class="icon" viewBox="0 0 1024 1024" version="1.1" xmlns="http://www.w3.org/2000/svg" p-id="5473" xmlns:xlink="http://www.w3.org/1999/xlink" width="200" height="200"><defs><style type="text/css"></style></defs><path d="M808.32 575.36h-112v64.96h54.4l54.08 202.24H218.88l54.08-202.24h51.2v-64.96h-108.8L128 907.84h768l-87.68-332.48z" p-id="5474" fill="#999999"></path><path d="M512 180.16c92.48 0 168.32 80 168.96 178.24 0 41.92-59.52 128.64-79.36 157.12-6.08 8.96-10.88 16-14.08 21.12A1469.12 1469.12 0 0 1 512 644.16c-20.16-26.24-47.68-64-74.88-107.2-14.08-22.08-26.56-41.28-37.76-58.24-43.2-65.92-55.68-86.4-55.68-120.32-0.32-98.56 75.2-178.24 168.32-178.24m0-64c-128.32 0-232.64 108.8-232.64 242.24 0 67.84 34.56 104 103.36 212.8 52.48 82.88 106.24 147.2 108.8 150.08l20.16 24.32 20.48-24c2.24-2.88 56.64-67.52 109.44-150.72 19.2-30.08 103.36-139.84 103.36-212.48-0.96-133.76-105.28-242.24-232.96-242.24z" p-id="5475" fill="#999999"></path><path d="M512 310.08c22.08 0 40 18.24 40 40.96 0 11.2-4.16 21.12-12.16 29.12-7.36 7.68-16.96 11.52-27.84 11.52-22.08 0-40-18.24-40-40.96s17.92-40.64 40-40.64m0-64c-57.28 0-104 47.04-104 104.96s46.4 104.96 104 104.96c27.84 0 53.76-10.88 73.28-30.72 19.52-19.84 30.4-46.08 30.4-73.92 0.32-58.24-46.4-105.28-103.68-105.28z" p-id="5476" fill="#999999"></path></svg>