<?xml version="1.0" standalone="no"?><!DOCTYPE svg PUBLIC "-//W3C//DTD SVG 1.1//EN" "http://www.w3.org/Graphics/SVG/1.1/DTD/svg11.dtd"><svg t="1608344792285" class="icon" viewBox="0 0 1024 1024" version="1.1" xmlns="http://www.w3.org/2000/svg" p-id="6412" xmlns:xlink="http://www.w3.org/1999/xlink" width="32" height="32"><defs><style type="text/css"></style></defs><path d="M668.8 444.8l12.8-12.8 112-102.4 51.2 57.6h19.2v-9.6l28.8-160c0-3.2 0-6.4-3.2-9.6s-6.4-3.2-9.6-3.2l-160 9.6c-3.2 0-6.4 0-9.6 3.2-3.2 3.2-3.2 6.4-3.2 9.6s0 6.4 3.2 9.6l51.2 57.6-131.2 118.4c-6.4 6.4-6.4 19.2 0 28.8l3.2 3.2c12.8 9.6 25.6 9.6 35.2 0zM505.6 502.4H51.2c-35.2 0-51.2 19.2-51.2 57.6V896c0 38.4 16 57.6 51.2 57.6h454.4c35.2 0 51.2-19.2 51.2-57.6V560c0-38.4-16-57.6-51.2-57.6zM992 803.2h-64v-64h32v-32h64v64c0 16-16 32-32 32zM886.4 803.2h-80v-64h80v64z m-118.4 0h-80v-64H768v64z" p-id="6413"></path><path d="M649.6 803.2h-80v-64h80v64z m-121.6 0H448v-64h80v64z m-118.4 0h-80v-64h80v64zM291.2 803.2h-64c-19.2 0-32-12.8-32-32v-64h64v32h32v64zM259.2 672h-64v-67.2h64V672z m0-99.2h-64v-67.2h64v67.2zM259.2 470.4h-64v-67.2h64v67.2z m0-99.2h-64V304h64v67.2z m0-102.4h-64v-64h64v64zM259.2 169.6h-64v-64c0-19.2 12.8-32 32-32h64v64h-32v32zM528 137.6H448v-64h80v64z m-118.4 0h-80v-64h80v64zM886.4 137.6h-80v-64h80v64z m-118.4 0h-80v-64H768v64z m-118.4 0h-80v-64h80v64zM1024 169.6h-64v-32h-32v-64h64c19.2 0 32 12.8 32 32v64zM1024 371.2h-64V304h64v67.2z m0-102.4h-64v-64h64v64zM1024 672h-64v-67.2h64V672z m0-99.2h-64v-67.2h64v67.2z m0-102.4h-64v-67.2h64v67.2z" p-id="6414"></path></svg>