<svg xmlns="http://www.w3.org/2000/svg" width="22.93" height="23.33" viewBox="0 0 22.93 23.33">
  <defs>
    <style>
      .cls-1 {
        fill: #555;
      }

      .cls-2 {
        fill: #19a0f1;
      }
    </style>
  </defs>
  <g id="优秀案例" transform="translate(-85.333)">
    <path id="路径_8" data-name="路径 8" class="cls-1" d="M106.543,0a1.638,1.638,0,0,1,1.712,1.318l.008.14V11.713a1.058,1.058,0,0,1-1.08.968,1.109,1.109,0,0,1-1.205-.856l-.008-.112V1.944h-2.293v6.8a.947.947,0,0,1-.529.819,1.326,1.326,0,0,1-1.1.063l-.116-.052L98.518,7.811,95.1,9.579a1.328,1.328,0,0,1-1.1.044.994.994,0,0,1-.636-.763l-.007-.111v-6.8H87.626V21.386H96.8a1.1,1.1,0,0,1,1.138.858l.008.114a1.045,1.045,0,0,1-1.012.965l-.134.007H87.053a1.638,1.638,0,0,1-1.712-1.318l-.008-.14V1.458A1.575,1.575,0,0,1,86.888.007L87.053,0h19.49Zm-5.159,1.944H95.652V7.017l2.269-1.174a1.328,1.328,0,0,1,1.07-.056l.125.056,2.269,1.174Z"/>
    <path id="路径_9" data-name="路径 9" class="cls-2" d="M585.7,622.88l-1.284,2.509a.573.573,0,0,1-.431.306l-2.893.4a.573.573,0,0,0-.312.986l2.064,1.933a.573.573,0,0,1,.172.522l-.491,2.676a.573.573,0,0,0,.824.615l2.6-1.325a.573.573,0,0,1,.522,0l2.6,1.327a.573.573,0,0,0,.824-.613l-.488-2.679a.573.573,0,0,1,.172-.521l2.063-1.933a.573.573,0,0,0-.313-.986l-2.873-.4a.573.573,0,0,1-.429-.3l-1.3-2.514a.573.573,0,0,0-1.019,0Z" transform="translate(-483.558 -609.561)"/>
  </g>
</svg>
