<?xml version="1.0" standalone="no"?><!DOCTYPE svg PUBLIC "-//W3C//DTD SVG 1.1//EN" "http://www.w3.org/Graphics/SVG/1.1/DTD/svg11.dtd"><svg t="1568881402662" class="icon" viewBox="0 0 1024 1024" version="1.1" xmlns="http://www.w3.org/2000/svg" p-id="2362" xmlns:xlink="http://www.w3.org/1999/xlink" width="200" height="200"><defs><style type="text/css"></style></defs><path d="M875.054545 765.672727c0 13.963636 13.963636 25.6 27.927273 20.945455 30.254545-11.636364 51.2-39.563636 51.2-74.472727V214.109091c0-44.218182-34.909091-79.127273-79.127273-79.127273H463.127273c-13.963636 0-27.927273 11.636364-27.927273 27.927273 0 13.963636 11.636364 27.927273 27.927273 27.927273h411.927272c13.963636 0 25.6 11.636364 25.6 25.6v500.363636c0 6.981818-4.654545 13.963636-9.30909 18.618182-9.309091 4.654545-16.290909 18.618182-16.29091 30.254545zM262.981818 269.963636c0 2.327273 2.327273 2.327273 2.327273 4.654546s2.327273 2.327273 2.327273 4.654545c2.327273 2.327273 2.327273 2.327273 4.654545 2.327273s2.327273 2.327273 4.654546 2.327273 2.327273 0 4.654545 2.327272h9.309091c2.327273 0 2.327273 0 4.654545-2.327272 2.327273 0 2.327273-2.327273 4.654546-2.327273s2.327273-2.327273 4.654545-2.327273c2.327273-2.327273 2.327273-2.327273 2.327273-4.654545s2.327273-2.327273 2.327273-4.654546 2.327273-2.327273 2.327272-4.654545v-4.654546c0-6.981818-2.327273-13.963636-6.981818-18.618181-6.981818-6.981818-16.290909-9.309091-23.272727-6.981819-2.327273 0-2.327273 0-4.654545 2.327273-2.327273 0-2.327273 2.327273-4.654546 2.327273s-2.327273 2.327273-4.654545 2.327273c-4.654545 4.654545-6.981818 11.636364-6.981819 18.618181v4.654546c2.327273 0 2.327273 2.327273 2.327273 4.654545z m0 0" fill="#909399" p-id="2363"></path><path d="M123.345455 809.890909c0 13.963636 11.636364 25.6 25.6 25.6h465.454545l-176.872727-181.527273-314.181818 144.290909v11.636364z m0 0M777.309091 835.490909c13.963636 0 25.6-11.636364 25.6-25.6v-118.690909l-186.181818 67.490909 72.145454 74.472727h88.436364z m0 0" fill="#23B8FF" p-id="2364"></path><path d="M777.309091 232.727273H367.709091c-13.963636 0-27.927273 11.636364-27.927273 27.927272 0 13.963636 11.636364 27.927273 27.927273 27.927273h411.927273c13.963636 0 25.6 11.636364 25.6 25.6V535.272727L581.818182 621.381818c-13.963636 4.654545-20.945455 20.945455-16.290909 34.909091 4.654545 11.636364 13.963636 16.290909 25.6 16.290909 2.327273 0 6.981818 0 9.309091-2.327273l204.8-79.127272v221.090909c0 13.963636-11.636364 25.6-25.6 25.6h-88.436364l-72.145455-74.472727-246.690909-256c-9.309091-9.309091-20.945455-11.636364-32.581818-4.654546l-214.109091 121.018182V311.854545c0-13.963636 11.636364-25.6 25.6-25.6H209.454545c13.963636 0 27.927273-11.636364 27.927273-27.927272 0-13.963636-11.636364-27.927273-27.927273-27.927273H148.945455C104.727273 232.727273 69.818182 267.636364 69.818182 311.854545v500.363637c0 44.218182 34.909091 79.127273 79.127273 79.127273h628.363636c44.218182 0 79.127273-34.909091 79.127273-79.127273V311.854545c0-44.218182-34.909091-79.127273-79.127273-79.127272zM344.436364 558.545455l93.090909 95.418181 176.872727 181.527273h-465.454545c-13.963636 0-25.6-11.636364-25.6-25.6v-128l221.090909-123.345454z m0 0" fill="#909399" p-id="2365"></path><path d="M677.236364 430.545455c0-53.527273-41.890909-95.418182-95.418182-95.418182s-95.418182 41.890909-95.418182 95.418182 41.890909 95.418182 95.418182 95.418181c51.2 0 95.418182-41.890909 95.418182-95.418181z m-137.309091 0c0-23.272727 18.618182-41.890909 41.890909-41.89091s41.890909 18.618182 41.890909 41.89091-18.618182 41.890909-41.890909 41.890909-41.890909-18.618182-41.890909-41.890909z m0 0" fill="#909399" p-id="2366"></path></svg>