<?xml version="1.0" standalone="no"?><!DOCTYPE svg PUBLIC "-//W3C//DTD SVG 1.1//EN" "http://www.w3.org/Graphics/SVG/1.1/DTD/svg11.dtd"><svg t="1568881387895" class="icon" viewBox="0 0 1024 1024" version="1.1" xmlns="http://www.w3.org/2000/svg" p-id="1995" xmlns:xlink="http://www.w3.org/1999/xlink" width="200" height="200"><defs><style type="text/css"></style></defs><path d="M640 977.454545zM728.436364 660.945455c-44.218182-34.909091-95.418182-55.854545-137.309091-55.854546-30.254545 0-55.854545 11.636364-72.145455 32.581818-2.327273 2.327273-9.309091 4.654545-13.963636 4.654546-2.327273 0-4.654545 0-6.981818-4.654546-23.272727-30.254545-44.218182-62.836364-62.836364-95.418182-18.618182-30.254545-32.581818-62.836364-46.545455-95.418181-2.327273-9.309091 0-16.290909 0-16.290909l2.327273-2.327273c23.272727 0 41.890909-11.636364 58.181818-30.254546 30.254545-34.909091 44.218182-97.745455 34.909091-165.236363-9.309091-107.054545-67.490909-186.181818-130.327272-186.181818h-11.636364c-39.563636-2.327273-74.472727 6.981818-104.727273 23.272727C93.090909 153.6 90.763636 411.927273 230.4 658.618182 337.454545 849.454545 502.690909 977.454545 640 977.454545c34.909091 0 67.490909-9.309091 95.418182-23.272727 30.254545-16.290909 53.527273-44.218182 74.472727-74.472727l4.654546-9.309091c30.254545-55.854545-4.654545-144.290909-86.109091-209.454545z m41.890909 179.2c-2.327273 4.654545-4.654545 6.981818-4.654546 9.30909-13.963636 23.272727-34.909091 46.545455-55.854545 58.181819-20.945455 11.636364-44.218182 16.290909-69.818182 16.290909-118.690909 0-267.636364-121.018182-365.381818-293.236364C153.6 418.909091 148.945455 181.527273 262.981818 116.363636c23.272727-13.963636 48.872727-18.618182 79.127273-16.290909h11.636364c30.254545 0 72.145455 60.509091 83.781818 139.636364 6.981818 53.527273-2.327273 102.4-23.272728 125.672727-9.309091 11.636364-18.618182 11.636364-20.945454 11.636364-2.327273 0-27.927273 0-44.218182 20.945454-11.636364 16.290909-16.290909 37.236364-11.636364 62.836364 0 2.327273 0 2.327273 2.327273 4.654545 13.963636 34.909091 30.254545 69.818182 51.2 104.727273 20.945455 37.236364 44.218182 72.145455 69.818182 104.727273 0 2.327273 2.327273 2.327273 4.654545 4.654545 11.636364 11.636364 27.927273 18.618182 44.218182 18.618182 25.6 0 46.545455-16.290909 48.872728-18.618182 2.327273-2.327273 4.654545-4.654545 4.654545-6.981818 6.981818-9.309091 18.618182-11.636364 30.254545-11.636363 30.254545 0 67.490909 16.290909 104.727273 44.218181 60.509091 46.545455 86.109091 109.381818 72.145455 134.981819z" fill="#909399" p-id="1996"></path><path d="M674.909091 481.745455c11.636364 0 23.272727-9.309091 25.6-20.945455 4.654545-23.272727 0-48.872727-13.963636-69.818182-13.963636-20.945455-34.909091-34.909091-58.181819-37.236363-13.963636-2.327273-27.927273 6.981818-30.254545 20.945454-2.327273 13.963636 6.981818 27.927273 20.945454 30.254546 9.309091 2.327273 18.618182 6.981818 25.6 16.290909 6.981818 9.309091 9.309091 18.618182 6.981819 30.254545-2.327273 13.963636 6.981818 27.927273 20.945454 30.254546h2.327273z" fill="#23B8FF" p-id="1997"></path><path d="M763.345455 479.418182c11.636364 0 23.272727-9.309091 25.6-20.945455 16.290909-88.436364-41.890909-172.218182-130.327273-188.509091-13.963636-2.327273-27.927273 6.981818-30.254546 20.945455-2.327273 13.963636 6.981818 27.927273 20.945455 30.254545 58.181818 11.636364 97.745455 67.490909 86.109091 125.672728-2.327273 13.963636 6.981818 27.927273 20.945454 30.254545 4.654545 2.327273 6.981818 2.327273 6.981819 2.327273z" fill="#23B8FF" p-id="1998"></path><path d="M865.745455 509.672727c11.636364 0 23.272727-9.309091 25.6-20.945454 13.963636-72.145455-2.327273-146.618182-44.218182-207.127273-41.890909-60.509091-104.727273-102.4-179.2-114.036364-11.636364-4.654545-25.6 4.654545-27.927273 18.618182-2.327273 13.963636 6.981818 27.927273 20.945455 30.254546 58.181818 11.636364 109.381818 44.218182 144.290909 93.090909s46.545455 109.381818 34.909091 167.563636c-2.327273 13.963636 6.981818 27.927273 20.945454 30.254546 2.327273 2.327273 4.654545 2.327273 4.654546 2.327272z" fill="#23B8FF" p-id="1999"></path></svg>