<?xml version="1.0" standalone="no"?><!DOCTYPE svg PUBLIC "-//W3C//DTD SVG 1.1//EN" "http://www.w3.org/Graphics/SVG/1.1/DTD/svg11.dtd"><svg t="1611975547505" class="icon" viewBox="0 0 1024 1024" version="1.1" xmlns="http://www.w3.org/2000/svg" p-id="27906" xmlns:xlink="http://www.w3.org/1999/xlink" width="200" height="200"><defs><style type="text/css"></style></defs><path d="M890.523 994.436c-22.971 0-45.936-9.187-64.332-27.573l-781.091-781.091c-36.756-36.756-36.756-91.902 0-128.647s91.902-36.756 128.647 0l781.091 781.091c36.756 36.756 36.756 91.902 0 128.647-18.388 18.388-41.36 27.573-64.332 27.573z" p-id="27907"></path><path d="M109.43 994.436c-22.971 0-45.936-9.187-64.332-27.573-36.756-36.756-36.756-91.902 0-128.647l781.091-781.091c36.756-36.756 91.902-36.756 128.647 0s36.756 91.902 0 128.647l-781.091 781.091c-18.388 18.388-41.36 27.573-64.332 27.573z" p-id="27908"></path></svg>