<svg t="1594291312531" class="icon" viewBox="0 0 1024 1024" version="1.1" xmlns="http://www.w3.org/2000/svg" p-id="16597" width="24" height="24"><path d="M892.8 611.2zM704 515.2c-124.8 0-224 99.2-224 224s99.2 224 224 224 224-99.2 224-224-99.2-224-224-224z m6.4 336c-3.2 3.2-9.6 3.2-12.8 0L608 745.6h57.6v-112c0-3.2 3.2-6.4 6.4-6.4h60.8c3.2 0 6.4 3.2 6.4 6.4v112h57.6l-86.4 105.6z" p-id="16598" fill="#ffffff"></path><path d="M502.4 838.4h-25.6c-182.4 0-307.2-35.2-329.6-57.6V640l9.6 3.2c80 38.4 217.6 51.2 320 51.2h6.4c3.2-19.2 9.6-35.2 16-51.2h-22.4c-201.6 0-320-44.8-329.6-67.2V441.6l9.6 6.4c80 38.4 217.6 51.2 320 51.2s240-12.8 320-51.2l9.6-3.2v96c19.2 9.6 35.2 22.4 51.2 38.4V182.4c0-96-240-121.6-380.8-121.6S96 86.4 96 182.4v595.2c0 108.8 342.4 112 380.8 112h60.8c-12.8-16-25.6-32-35.2-51.2zM809.6 256v124.8c-12.8 28.8-137.6 67.2-332.8 67.2-201.6 0-320-44.8-329.6-70.4V246.4l9.6 9.6c80 38.4 217.6 51.2 320 51.2s243.2-12.8 320-51.2l9.6-3.2 3.2 3.2zM147.2 182.4c12.8-28.8 137.6-70.4 329.6-70.4 185.6 0 313.6 41.6 329.6 67.2l3.2 3.2-3.2 3.2c-16 28.8-137.6 70.4-329.6 70.4C281.6 256 160 211.2 147.2 188.8v-6.4z" p-id="16599" fill="#ffffff"></path></svg>