<?xml version="1.0" standalone="no"?><!DOCTYPE svg PUBLIC "-//W3C//DTD SVG 1.1//EN" "http://www.w3.org/Graphics/SVG/1.1/DTD/svg11.dtd"><svg t="1608344779478" class="icon" viewBox="0 0 1024 1024" version="1.1" xmlns="http://www.w3.org/2000/svg" p-id="6285" xmlns:xlink="http://www.w3.org/1999/xlink" width="32" height="32"><defs><style type="text/css"></style></defs><path d="M336 704h-160c-6.4 0-16 9.6-16 16v128c0 9.6 6.4 16 16 16h153.6c12.8 0 22.4-12.8 22.4-25.6v-115.2c0-9.6-6.4-19.2-16-19.2z m0-384h-160c-9.6 0-16 6.4-16 16v227.2c0 6.4 6.4 12.8 16 12.8h160c6.4 0 16-6.4 16-16v-227.2c0-6.4-6.4-12.8-16-12.8z m352 256h-224c-6.4 0-16 9.6-16 16v256c0 9.6 6.4 16 16 16h224c6.4 0 16-9.6 16-16v-256c0-9.6-6.4-16-16-16z m0-256h-224c-6.4 0-16 9.6-16 16v128c0 9.6 6.4 16 16 16h224c6.4 0 16-9.6 16-16v-128c3.2-6.4-6.4-16-16-16z" p-id="6286"></path><path d="M972.8 803.2h-144v-60.8H960V60.8H275.2V192H214.4V48C214.4 22.4 236.8 0 265.6 0h710.4c25.6 0 48 22.4 48 48v710.4c-3.2 22.4-25.6 44.8-51.2 44.8z" p-id="6287"></path><path d="M800 224v736H64V224h736m0-64H64C28.8 160 0 188.8 0 224v736c0 35.2 28.8 64 64 64h736c35.2 0 64-28.8 64-64V224c0-35.2-28.8-64-64-64z" p-id="6288"></path></svg>