<?xml version="1.0" standalone="no"?><!DOCTYPE svg PUBLIC "-//W3C//DTD SVG 1.1//EN" "http://www.w3.org/Graphics/SVG/1.1/DTD/svg11.dtd"><svg t="1591778551668" class="icon" viewBox="0 0 1024 1024" version="1.1" xmlns="http://www.w3.org/2000/svg" p-id="7141" xmlns:xlink="http://www.w3.org/1999/xlink" width="16" height="16"><defs><style type="text/css"></style></defs><path d="M512 88.656842C278.635789 88.656842 88.656842 278.635789 88.656842 512S278.635789 935.343158 512 935.343158 935.343158 745.364211 935.343158 512 745.364211 88.656842 512 88.656842z" fill="#FFFFFF" p-id="7142"></path><path d="M512 142.551579c203.183158 0 369.448421 166.265263 369.448421 369.448421S715.183158 881.448421 512 881.448421 142.551579 715.183158 142.551579 512 308.816842 142.551579 512 142.551579" fill="#E0E0E0" p-id="7143"></path><path d="M678.265263 376.454737l-30.72-30.72L512 481.28l-135.545263-135.545263-30.72 30.72L481.28 512l-135.545263 135.545263 30.72 30.72L512 542.72l135.545263 135.545263 30.72-30.72L542.72 512l135.545263-135.545263z" fill="#666666" p-id="7144"></path></svg>