<?xml version="1.0" standalone="no"?><!DOCTYPE svg PUBLIC "-//W3C//DTD SVG 1.1//EN" "http://www.w3.org/Graphics/SVG/1.1/DTD/svg11.dtd"><svg t="1587627602288" class="icon" viewBox="0 0 1024 1024" version="1.1" xmlns="http://www.w3.org/2000/svg" p-id="6171" xmlns:xlink="http://www.w3.org/1999/xlink" width="200" height="200"><defs><style type="text/css"></style></defs><path d="M220.16 220.16H307.2V307.2H220.16V220.16z m665.6 665.6H972.8V972.8h-87.04v-87.04z m0-163.84h-81.92v-168.96h-256V972.8h87.04v-332.8H716.8v168.96h256v-256h-87.04v168.96z m-665.6 0H307.2v87.04H220.16v-87.04z" p-id="6172"></path><path d="M721.92 885.76h87.04V972.8h-87.04v-87.04zM51.2 471.04h419.84V51.2H51.2v419.84z m87.04-332.8h250.88v250.88h-256l5.12-250.88zM51.2 972.8h419.84v-419.84H51.2V972.8z m87.04-332.8h250.88v256h-256l5.12-256z m583.68-419.84h87.04V307.2h-87.04V220.16z" p-id="6173"></path><path d="M552.96 51.2v419.84H972.8V51.2h-419.84z m332.8 332.8h-256V138.24h256v245.76z" p-id="6174"></path></svg>