<svg xmlns="http://www.w3.org/2000/svg" width="16.374" height="15.612" viewBox="0 0 16.374 15.612">
  <defs>
    <style>
      .cls-1 {
        fill: #707070;
      }
    </style>
  </defs>
  <path id="_213收藏" data-name="213收藏" d="M68.081,93.745,72.7,96.162a.288.288,0,0,0,.42-.3l-.883-5.138a.305.305,0,0,1,.087-.261l3.734-3.633a.288.288,0,0,0-.159-.492l-5.153-.753a.278.278,0,0,1-.217-.159l-2.316-4.66a.29.29,0,0,0-.521,0l-2.3,4.675a.3.3,0,0,1-.217.159l-5.153.753a.284.284,0,0,0-.159.492l3.734,3.633a.292.292,0,0,1,.087.261L62.8,95.873a.288.288,0,0,0,.42.3l4.617-2.417A.218.218,0,0,1,68.081,93.745Z" transform="translate(-59.769 -80.6)"/>
</svg>
