<?xml version="1.0" standalone="no"?><!DOCTYPE svg PUBLIC "-//W3C//DTD SVG 1.1//EN" "http://www.w3.org/Graphics/SVG/1.1/DTD/svg11.dtd"><svg t="1608961489827" class="icon" viewBox="0 0 1024 1024" version="1.1" xmlns="http://www.w3.org/2000/svg" p-id="1660" xmlns:xlink="http://www.w3.org/1999/xlink" width="200" height="200"><defs><style type="text/css"></style></defs><path d="M489.835498 0c-132.987013 0-241.593074 108.606061-241.593074 241.593074S356.848485 483.186147 489.835498 483.186147s241.593074-108.606061 241.593073-241.593073S625.038961 0 489.835498 0z m0 438.857143c-108.606061 0-197.264069-88.658009-197.264069-197.264069s88.658009-197.264069 197.264069-197.26407 197.264069 88.658009 197.264069 197.26407-88.658009 197.264069-197.264069 197.264069zM50.978355 975.238095h44.329004C95.307359 755.809524 272.623377 578.493506 489.835498 578.493506c48.761905 0 97.52381 8.865801 141.852814 26.597403l15.515151-42.112554c-50.978355-19.948052-104.17316-28.813853-157.367965-28.813853-241.593074 0-438.857143 197.264069-438.857143 441.073593z" fill="#272727" p-id="1661"></path><path d="M780.190476 682.666667a148.502165 148.502165 0 1 1 0 297.004329 148.502165 148.502165 0 0 1 0-297.004329m0-44.329005c-106.38961 0-192.831169 86.441558-192.831169 192.831169s86.441558 192.831169 192.831169 192.831169 192.831169-86.441558 192.831169-192.831169-86.441558-192.831169-192.831169-192.831169z" fill="#23B8FF" p-id="1662"></path><path d="M755.809524 902.095238c-6.649351 0-11.082251-2.21645-15.515152-6.649351l-48.761904-48.761904c-8.865801-8.865801-8.865801-22.164502 0-31.030303s22.164502-8.865801 31.030303 0l33.246753 33.246753 79.792208-79.792208c8.865801-8.865801 22.164502-8.865801 31.030303 0s8.865801 22.164502 0 31.030303l-97.52381 97.52381c-2.21645 2.21645-6.649351 4.4329-13.298701 4.4329z" fill="#23B8FF" p-id="1663"></path><path d="M780.190476 682.666667a148.502165 148.502165 0 1 1 0 297.004329 148.502165 148.502165 0 0 1 0-297.004329m0-44.329005c-106.38961 0-192.831169 86.441558-192.831169 192.831169s86.441558 192.831169 192.831169 192.831169 192.831169-86.441558 192.831169-192.831169-86.441558-192.831169-192.831169-192.831169z" fill="#23B8FF" p-id="1664"></path><path d="M755.809524 902.095238c-6.649351 0-11.082251-2.21645-15.515152-6.649351l-48.761904-48.761904c-8.865801-8.865801-8.865801-22.164502 0-31.030303s22.164502-8.865801 31.030303 0l33.246753 33.246753 79.792208-79.792208c8.865801-8.865801 22.164502-8.865801 31.030303 0s8.865801 22.164502 0 31.030303l-97.52381 97.52381c-2.21645 2.21645-6.649351 4.4329-13.298701 4.4329z" fill="#23B8FF" p-id="1665"></path></svg>