<?xml version="1.0" standalone="no"?><!DOCTYPE svg PUBLIC "-//W3C//DTD SVG 1.1//EN" "http://www.w3.org/Graphics/SVG/1.1/DTD/svg11.dtd"><svg t="1608961628859" class="icon" viewBox="0 0 1024 1024" version="1.1" xmlns="http://www.w3.org/2000/svg" p-id="2045" xmlns:xlink="http://www.w3.org/1999/xlink" width="200" height="200"><defs><style type="text/css"></style></defs><path d="M946.086957 378.434783V144.695652c0-40.069565-33.391304-73.46087-73.46087-73.460869H69.008696C28.93913 71.234783 0 102.4 0 142.469565v632.208696c0 40.069565 28.93913 69.008696 69.008696 69.008696h358.4c8.904348 0 13.356522-2.226087 17.808695-6.678261 2.226087-4.452174 4.452174-8.904348 2.226087-13.356522v-4.452174c0-17.808696-2.226087-22.26087-22.260869-22.26087H207.026087V126.886957c0-8.904348 0-8.904348 8.904348-8.904348h661.147826c24.486957 0 26.713043 4.452174 26.713043 26.713043v365.078261h44.521739v-17.808696c0-40.069565-2.226087-82.365217-2.226086-113.530434zM158.052174 799.165217H66.782609c-17.808696 0-22.26087-4.452174-22.26087-22.260869V142.469565c0-20.034783 4.452174-26.713043 26.713044-26.713043h89.043478c0 180.313043 0 498.643478-2.226087 683.408695z" fill="#272727" p-id="2046"></path><path d="M741.286957 396.243478c28.93913 0 57.878261 22.26087 64.556521 53.426087 2.226087 4.452174 2.226087 11.130435 2.226087 15.582609V601.043478c40.069565 6.678261 75.686957 11.130435 113.530435 20.034783 13.356522 2.226087 28.93913 4.452174 40.069565 8.904348 40.069565 15.582609 64.556522 55.652174 60.104348 102.4-4.452174 57.878261-8.904348 113.530435-15.582609 171.408695l-2.226087 17.808696c-2.226087 15.582609-11.130435 24.486957-22.260869 24.486957-8.904348 0-22.26087-4.452174-22.26087-28.939131 6.678261-55.652174 8.904348-113.530435 13.356522-169.182609V734.608696c2.226087-15.582609-2.226087-33.391304-11.130435-44.521739-6.678261-11.130435-17.808696-15.582609-33.391304-17.808696-24.486957-4.452174-51.2-8.904348-75.686957-13.356522-24.486957-4.452174-46.747826-6.678261-71.234782-11.130435-15.582609-2.226087-22.26087-8.904348-22.26087-26.713043V467.478261c0-8.904348-2.226087-15.582609-8.904348-20.034783-4.452174-2.226087-8.904348-4.452174-13.356521-4.452174-2.226087 0-6.678261 0-8.904348 2.226087-8.904348 2.226087-11.130435 8.904348-11.130435 22.26087v298.295652c0 6.678261 0 22.26087-13.356522 26.713044-2.226087 0-4.452174 2.226087-8.904348 2.226086-6.678261 0-13.356522-4.452174-17.808695-8.904347l-2.226087-2.226087c-15.582609-17.808696-33.391304-33.391304-46.747826-46.747826-6.678261-6.678261-13.356522-13.356522-22.26087-20.034783-4.452174-4.452174-11.130435-6.678261-17.808695-6.678261h-4.452174c-8.904348 2.226087-15.582609 8.904348-17.808696 17.808696-4.452174 8.904348 2.226087 17.808696 6.678261 22.260869l142.469565 142.469566c6.678261 6.678261 15.582609 15.582609 22.26087 24.486956 8.904348 8.904348 8.904348 22.26087 2.226087 31.165217-4.452174 4.452174-11.130435 8.904348-15.582609 8.904348-6.678261 0-11.130435-4.452174-17.808696-8.904348L536.486957 779.130435c-17.808696-20.034783-22.26087-53.426087-8.904348-77.913044 8.904348-22.26087 33.391304-35.617391 60.104348-35.617391h6.67826c15.582609 2.226087 31.165217 8.904348 42.295653 20.034783l20.034782 20.034782c4.452174 4.452174 6.678261 8.904348 11.130435 13.356522l2.226087 2.226087V465.252174c0-31.165217 26.713043-62.330435 60.104348-66.782609 6.678261 0 8.904348-2.226087 11.130435-2.226087" fill="#272727" p-id="2047"></path><path d="M509.773913 238.191304c6.678261 0 11.130435 2.226087 17.808696 6.678261 37.843478 31.165217 73.46087 62.330435 106.852174 93.495652 2.226087 2.226087 6.678261 6.678261 8.904347 13.356522 2.226087 6.678261 2.226087 13.356522-4.452173 20.034783-6.678261 4.452174-11.130435 6.678261-15.582609 6.678261-6.678261 0-13.356522-2.226087-20.034783-8.904348-37.843478-33.391304-64.556522-55.652174-89.043478-75.686957-2.226087-2.226087-2.226087-2.226087-4.452174-2.226087s-2.226087 0-4.452174 2.226087l-102.4 91.269565c-2.226087 2.226087-4.452174 6.678261-4.452174 11.130435v191.443479c-2.226087 2.226087-2.226087 6.678261-2.226087 8.904347v4.452174h-44.521739V425.182609l-2.226087 2.226087-2.226087 2.226087c-4.452174 4.452174-8.904348 6.678261-13.356522 11.130434-6.678261 4.452174-11.130435 6.678261-17.808695 6.678261-6.678261 0-11.130435-2.226087-15.582609-6.678261-8.904348-11.130435-6.678261-24.486957 4.452174-33.391304 17.808696-15.582609 37.843478-33.391304 55.652174-48.973913l33.391304-28.93913c31.165217-26.713043 62.330435-53.426087 93.495652-82.365218 11.130435-6.678261 15.582609-8.904348 22.26087-8.904348" fill="#23B8FF" p-id="2048"></path><path d="M113.530435 362.852174c13.356522 0 22.26087 8.904348 22.260869 20.034783V534.26087c0 11.130435-8.904348 20.034783-22.260869 20.034782s-20.034783-8.904348-20.034783-22.260869v-149.147826c0-13.356522 6.678261-20.034783 20.034783-20.034783" fill="#272727" p-id="2049"></path><path d="M572.104348 471.930435V601.043478h-44.521739v-82.365217h-31.165218s-2.226087 2.226087-2.226087 4.452174V601.043478h-44.521739v-113.530435c0-6.678261 4.452174-15.582609 11.130435-15.582608h111.304348" fill="#23B8FF" p-id="2050"></path></svg>