<?xml version="1.0" standalone="no"?><!DOCTYPE svg PUBLIC "-//W3C//DTD SVG 1.1//EN" "http://www.w3.org/Graphics/SVG/1.1/DTD/svg11.dtd"><svg t="1608961723620" class="icon" viewBox="0 0 1024 1024" version="1.1" xmlns="http://www.w3.org/2000/svg" p-id="2427" xmlns:xlink="http://www.w3.org/1999/xlink" width="200" height="200"><defs><style type="text/css"></style></defs><path d="M351.721739 645.565217H211.478261c-4.452174 0-13.356522 8.904348-13.356522 13.356522v151.373913c0 8.904348 4.452174 13.356522 13.356522 13.356522h135.791304c11.130435 0 17.808696-11.130435 17.808696-22.26087v-140.243478c0-6.678261-4.452174-15.582609-13.356522-15.582609zM351.721739 342.817391H211.478261c-8.904348 0-13.356522 6.678261-13.356522 13.356522v198.121739c0 6.678261 6.678261 11.130435 13.356522 11.130435h140.243478c6.678261 0 13.356522-6.678261 13.356522-13.356522v-198.121739c0-6.678261-6.678261-11.130435-13.356522-11.130435zM667.826087 578.782609h-191.443478c-4.452174 0-13.356522 8.904348-13.356522 13.356521v218.156522c0 8.904348 4.452174 13.356522 13.356522 13.356522H667.826087c4.452174 0 13.356522-8.904348 13.356522-13.356522v-218.156522c2.226087-6.678261-4.452174-13.356522-13.356522-13.356521zM667.826087 342.817391h-186.991304c-4.452174 0-13.356522 8.904348-13.356522 13.356522v129.113044c0 8.904348 4.452174 13.356522 13.356522 13.356521H667.826087c4.452174 0 13.356522-8.904348 13.356522-13.356521V356.173913c4.452174-6.678261-4.452174-13.356522-13.356522-13.356522z" fill="#23B8FF" p-id="2428"></path><path d="M894.886957 44.521739H222.608696C178.086957 44.521739 142.469565 80.13913 142.469565 124.66087v64.556521H106.852174c-31.165217 0-57.878261 26.713043-57.878261 57.878261v672.278261c0 31.165217 26.713043 57.878261 57.878261 57.878261H779.130435c31.165217 0 57.878261-26.713043 57.878261-57.878261v-40.069565h57.878261c44.521739 0 82.365217-37.843478 80.13913-82.365218V124.66087c0-44.521739-35.617391-80.13913-80.13913-80.139131z m-102.4 874.852174c0 6.678261-6.678261 13.356522-13.356522 13.356522H106.852174c-6.678261 0-13.356522-6.678261-13.356522-13.356522V249.321739c0-6.678261 6.678261-13.356522 13.356522-13.356522H779.130435c4.452174 0 13.356522 0 13.356522 11.130435v672.278261z m138.017391-120.208696c0 20.034783-15.582609 35.617391-35.617391 35.617392h-57.878261V249.321739c0-33.391304-26.713043-60.104348-57.878261-60.104348H186.991304V124.66087c0-20.034783 17.808696-35.617391 35.617392-35.617392h672.278261c20.034783 0 35.617391 15.582609 35.617391 35.617392v674.504347z" fill="#272727" p-id="2429"></path></svg>