<?xml version="1.0" standalone="no"?><!DOCTYPE svg PUBLIC "-//W3C//DTD SVG 1.1//EN" "http://www.w3.org/Graphics/SVG/1.1/DTD/svg11.dtd"><svg t="1608961596624" class="icon" viewBox="0 0 1024 1024" version="1.1" xmlns="http://www.w3.org/2000/svg" p-id="1918" xmlns:xlink="http://www.w3.org/1999/xlink" width="200" height="200"><defs><style type="text/css"></style></defs><path d="M536.486957 723.478261v2.226087l202.573913 227.060869 55.652173-8.904347-262.67826-300.52174-120.208696 158.052174-120.208696-93.495652-140.243478 175.86087L189.217391 912.695652l109.078261-133.565217v2.226087l122.434783 93.495652zM868.173913 661.147826c0-48.973913-40.069565-89.043478-91.269565-89.043478-24.486957 0-46.747826 8.904348-64.556522 26.713043-17.808696 17.808696-26.713043 40.069565-26.713043 64.556522v4.452174c0 24.486957 11.130435 46.747826 26.713043 62.330435 17.808696 15.582609 40.069565 24.486957 62.330435 24.486956h2.226087c24.486957 0 46.747826-11.130435 62.330435-26.713043s28.93913-40.069565 28.93913-66.782609z m-89.043478 42.295652s-2.226087 0 0 0c-24.486957 0-42.295652-17.808696-44.521739-42.295652v-2.226087c0-11.130435 4.452174-22.26087 13.356521-28.93913 8.904348-6.678261 20.034783-11.130435 31.165218-11.130435s22.26087 4.452174 28.93913 13.356522 11.130435 20.034783 11.130435 31.165217c0 22.26087-17.808696 40.069565-40.069565 40.069565z" fill="#23B8FF" p-id="1919"></path><path d="M999.513043 340.591304c0-66.782609-77.913043-122.434783-215.930434-158.052174l-28.939131-6.67826v282.713043h-2.226087c-71.234783 15.582609-155.826087 24.486957-240.417391 24.486957-86.817391 0-169.182609-8.904348-240.417391-24.486957h-2.226087V175.86087l-28.939131 6.67826c-138.017391 33.391304-215.930435 91.269565-215.930434 158.052174v467.478261c0 109.078261 209.252174 189.217391 487.513043 189.217392s487.513043-82.365217 487.513043-189.217392V345.043478v-4.452174zM801.391304 445.217391v-209.252174h2.226087c93.495652 26.713043 151.373913 69.008696 151.373913 104.626087 0 37.843478-57.878261 80.13913-153.6 104.626087zM69.008696 340.591304c2.226087-37.843478 60.104348-75.686957 151.373913-102.4h2.226087v209.252174h-2.226087c-93.495652-26.713043-151.373913-69.008696-151.373913-104.626087v-2.226087zM512 950.53913c-235.965217 0-442.991304-66.782609-442.991304-142.469565V422.956522c35.617391 31.165217 95.721739 55.652174 171.408695 75.686956 80.13913 20.034783 173.634783 31.165217 271.582609 31.165218s191.443478-11.130435 271.582609-31.165218c77.913043-20.034783 135.791304-44.521739 171.408695-75.686956v385.113043c0 75.686957-207.026087 142.469565-442.991304 142.469565z" fill="#272727" p-id="1920"></path><path d="M356.173913 122.434783h44.521739L342.817391 267.130435H378.434783l57.87826-144.695652V93.495652h-111.304347v55.652174H356.173913zM567.652174 238.191304h-66.782609l48.973913-55.652174c11.130435-13.356522 17.808696-22.26087 17.808696-40.069565 0-31.165217-22.26087-51.2-53.426087-51.2s-53.426087 20.034783-53.426087 51.2h31.165217c0-17.808696 11.130435-22.26087 22.26087-22.260869 13.356522 0 20.034783 8.904348 20.034783 22.260869 0 8.904348-2.226087 13.356522-8.904348 20.034783l-64.556522 75.686956V267.130435h106.852174v-28.939131zM645.565217 269.356522c28.93913 0 53.426087-17.808696 53.426087-51.2V144.695652c0-33.391304-24.486957-51.2-53.426087-51.2s-53.426087 17.808696-53.426087 51.2v73.46087c0 33.391304 24.486957 51.2 53.426087 51.2z m-22.260869-124.66087c0-15.582609 8.904348-24.486957 22.260869-24.486956 11.130435 0 20.034783 8.904348 20.034783 24.486956v73.46087c0 15.582609-6.678261 24.486957-20.034783 24.486956s-22.26087-8.904348-22.260869-24.486956V144.695652zM774.678261 120.208696c24.486957 0 44.521739-20.034783 44.521739-44.521739s-20.034783-44.521739-44.521739-44.52174-44.521739 20.034783-44.521739 44.52174 20.034783 44.521739 44.521739 44.521739z m0-64.556522c11.130435 0 20.034783 8.904348 20.034782 20.034783s-8.904348 20.034783-20.034782 20.034782-20.034783-8.904348-20.034783-20.034782 8.904348-20.034783 20.034783-20.034783z" fill="#272727" p-id="1921"></path></svg>