<?xml version="1.0" standalone="no"?><!DOCTYPE svg PUBLIC "-//W3C//DTD SVG 1.1//EN" "http://www.w3.org/Graphics/SVG/1.1/DTD/svg11.dtd"><svg t="1608961664850" class="icon" viewBox="0 0 1024 1024" version="1.1" xmlns="http://www.w3.org/2000/svg" p-id="2174" xmlns:xlink="http://www.w3.org/1999/xlink" width="200" height="200"><defs><style type="text/css"></style></defs><path d="M926.052174 57.878261H97.947826C55.652174 57.878261 22.26087 93.495652 22.26087 135.791304v605.495653c0 42.295652 33.391304 75.686957 75.686956 75.686956H489.73913v104.626087h-202.573913c-13.356522 0-22.26087 8.904348-22.260869 22.26087s8.904348 22.26087 22.260869 22.260869h449.669566c11.130435 0 22.26087-8.904348 22.260869-22.260869s-8.904348-22.26087-22.260869-22.26087H534.26087v-104.626087h389.565217c42.295652 0 75.686957-33.391304 75.686956-75.686956V135.791304c2.226087-42.295652-31.165217-77.913043-73.460869-77.913043zM957.217391 739.06087c0 17.808696-13.356522 31.165217-31.165217 31.165217H97.947826c-17.808696 2.226087-31.165217-13.356522-31.165217-28.93913V135.791304c0-17.808696 13.356522-31.165217 31.165217-31.165217h828.104348v-2.226087c17.808696 0 31.165217 13.356522 31.165217 31.165217v605.495653z" fill="#2C2C2C" p-id="2175"></path><path d="M581.008696 469.704348c2.226087 2.226087 6.678261 2.226087 11.130434 2.226087 6.678261 0 11.130435-2.226087 15.582609-6.678261 6.678261-8.904348 4.452174-20.034783-4.452174-26.713044l-80.13913-62.330434c-4.452174-2.226087-8.904348-4.452174-11.130435-4.452174s-8.904348 2.226087-13.356522 4.452174l-80.13913 62.330434c-6.678261 6.678261-8.904348 17.808696-2.226087 26.713044 4.452174 4.452174 8.904348 6.678261 15.582609 6.678261 4.452174 0 8.904348-2.226087 11.130434-4.452174l48.973913-37.843478v200.347826c0 11.130435 8.904348 20.034783 20.034783 20.034782s20.034783-8.904348 20.034783-20.034782v-200.347826L578.782609 467.478261l2.226087 2.226087z" fill="#23B8FF" p-id="2176"></path><path d="M663.373913 322.782609c-28.93913-60.104348-86.817391-97.947826-151.373913-97.947826-20.034783 0-42.295652 4.452174-62.330435 13.356521-40.069565 15.582609-71.234783 46.747826-89.043478 84.591305-55.652174 11.130435-93.495652 57.878261-93.495652 115.756521 2.226087 66.782609 55.652174 120.208696 122.434782 120.208696h48.973913c8.904348 0 17.808696-8.904348 17.808696-17.808696 0-4.452174-2.226087-8.904348-4.452174-13.356521-4.452174-4.452174-8.904348-6.678261-13.356522-6.678261h-48.973913-2.226087c-44.521739 0-82.365217-35.617391-84.591304-82.365218 0-40.069565 31.165217-75.686957 71.234783-82.365217l11.130434-2.226087 4.452174-11.130435c11.130435-31.165217 35.617391-57.878261 66.782609-71.234782 15.582609-6.678261 33.391304-11.130435 51.2-11.130435 15.582609 0 31.165217 2.226087 44.521739 8.904348 33.391304 13.356522 60.104348 40.069565 73.46087 73.460869l4.452174 11.130435 15.582608 2.226087c40.069565 4.452174 71.234783 40.069565 71.234783 80.13913 0 46.747826-37.843478 82.365217-84.591304 82.365218H581.008696c-8.904348 0-17.808696 8.904348-17.808696 17.808696 0 4.452174 2.226087 8.904348 4.452174 13.356521 4.452174 4.452174 8.904348 6.678261 13.356522 6.678261H632.208696c66.782609 0 120.208696-53.426087 122.434782-120.208696 2.226087-55.652174-35.617391-102.4-91.269565-113.530434z" fill="#23B8FF" p-id="2177"></path></svg>