<?xml version="1.0" standalone="no"?><!DOCTYPE svg PUBLIC "-//W3C//DTD SVG 1.1//EN" "http://www.w3.org/Graphics/SVG/1.1/DTD/svg11.dtd"><svg t="1608961081781" class="icon" viewBox="0 0 1024 1024" version="1.1" xmlns="http://www.w3.org/2000/svg" p-id="1531" xmlns:xlink="http://www.w3.org/1999/xlink" width="200" height="200"><defs><style type="text/css"></style></defs><path d="M979.478261 40.069565H44.521739c-13.356522 0-22.26087 8.904348-22.260869 22.26087v810.295652c0 13.356522 8.904348 22.26087 22.260869 22.26087h560.973913c13.356522 0 22.26087-8.904348 22.26087-22.26087s-8.904348-22.26087-22.26087-22.26087H66.782609V273.808696h890.434782v224.834782c0 13.356522 8.904348 22.26087 22.26087 22.26087s22.26087-8.904348 22.260869-22.26087V62.330435c0-13.356522-8.904348-22.26087-22.260869-22.26087zM66.782609 227.06087V84.591304h890.434782v142.469566H66.782609z" fill="#272727" p-id="1532"></path><path d="M138.017391 445.217391h436.313044v46.747826H138.017391zM138.017391 569.878261h311.652174v46.747826h-311.652174zM138.017391 133.565217h46.747826v46.747826H138.017391zM231.513043 133.565217h46.747827v46.747826h-46.747827zM325.008696 133.565217h46.747826v46.747826h-46.747826z" fill="#272727" p-id="1533"></path><path d="M830.330435 625.530435c35.617391 0 64.556522 28.93913 64.556522 64.556522 0 35.617391-28.93913 64.556522-64.556522 64.556521s-64.556522-28.93913-64.556522-64.556521c2.226087-35.617391 31.165217-64.556522 64.556522-64.556522m0-44.521739c-60.104348 0-109.078261 48.973913-109.078261 109.078261s48.973913 109.078261 109.078261 109.07826 109.078261-48.973913 109.078261-109.07826-48.973913-109.078261-109.078261-109.078261z" fill="#23B8FF" p-id="1534"></path><path d="M823.652174 983.930435c-13.356522 0-22.26087-8.904348-22.26087-22.26087v-178.086956c0-13.356522 8.904348-22.26087 22.26087-22.26087s22.26087 8.904348 22.260869 22.26087v178.086956c0 11.130435-8.904348 22.26087-22.260869 22.26087z" fill="#23B8FF" p-id="1535"></path><path d="M892.66087 892.66087H823.652174c-13.356522 0-22.26087-8.904348-22.26087-22.26087s8.904348-22.26087 22.26087-22.26087h69.008696c13.356522 0 22.26087 8.904348 22.260869 22.26087s-8.904348 22.26087-22.260869 22.26087z" fill="#23B8FF" p-id="1536"></path></svg>