<?xml version="1.0" standalone="no"?><!DOCTYPE svg PUBLIC "-//W3C//DTD SVG 1.1//EN" "http://www.w3.org/Graphics/SVG/1.1/DTD/svg11.dtd"><svg t="1568881407023" class="icon" viewBox="0 0 1024 1024" version="1.1" xmlns="http://www.w3.org/2000/svg" p-id="2485" xmlns:xlink="http://www.w3.org/1999/xlink" width="200" height="200"><defs><style type="text/css"></style></defs><path d="M486.4 95.418182h44.218182v249.018182h-44.218182z" fill="#909399" p-id="2486"></path><path d="M512 954.181818L95.418182 742.4V295.563636L512 69.818182l416.581818 223.418182v442.181818L512 954.181818zM141.963636 702.836364l370.036364 186.181818L882.036364 698.181818V314.181818L512 121.018182 141.963636 321.163636v381.672728z m0 0" fill="#909399" p-id="2487"></path><path d="M134.981818 735.418182L109.381818 698.181818l211.781818-116.363636 25.6 44.218182zM889.018182 735.418182L651.636364 614.4l25.6-44.218182L914.618182 698.181818z" fill="#909399" p-id="2488"></path><path d="M365.381818 761.018182c-11.636364 0-18.618182 0-25.6-6.981818-18.618182-6.981818-25.6-18.618182-25.6-37.236364V300.218182c0-11.636364 11.636364-25.6 18.618182-32.581818 18.618182-11.636364 32.581818-11.636364 44.218182 0l409.6 204.8c18.618182 11.636364 25.6 18.618182 25.6 37.236363s-11.636364 32.581818-25.6 37.236364l-402.618182 211.781818h-18.618182z m0-460.8v416.581818l128-69.818182 256-134.981818-384-211.781818zM768 512l11.636364-18.618182-11.636364 18.618182z m0 0" fill="#23B8FF" p-id="2489"></path><path d="M537.6 921.6h-51.2V486.4l402.618182-197.818182 18.618182 37.236364-370.036364 197.818182v397.963636z m0 0" fill="#909399" p-id="2490"></path><path d="M500.363636 530.618182L116.363636 325.818182l18.618182-37.236364 390.981818 197.818182-25.6 44.218182z m0 0" fill="#909399" p-id="2491"></path></svg>