<svg xmlns="http://www.w3.org/2000/svg" width="22.632" height="22.062" viewBox="0 0 22.632 22.062">
  <defs>
    <style>
      .cls-1 {
        fill: #555;
      }

      .cls-2 {
        fill: #19a0f1;
      }
    </style>
  </defs>
  <g id="建展" transform="translate(-158.72 -166.4)">
    <path id="路径_10" data-name="路径 10" class="cls-1" d="M180.538,173.076l-9.606-6.35a1.119,1.119,0,0,0-.977-.326,1.032,1.032,0,0,0-.733.326l-9.769,6.269a1.159,1.159,0,0,0-.733,1.058v6.269a1.542,1.542,0,0,0,.733,1.221l9.688,6.594a.284.284,0,0,0,.163.081,1.375,1.375,0,0,0,.814.244,2.157,2.157,0,0,0,.814-.244l.244-.081,9.606-6.838a1.9,1.9,0,0,0,.57-1.221V174.3A4.563,4.563,0,0,0,180.538,173.076Zm-10.013-4.885.163.081,8.385,5.536-.081.081-3.908,2.442-4.559-2.931Zm-1.465.244v4.885l-4.4,2.931h-.081l-3.745-2.605Zm-8.792,6.513,3.094,2.279-3.094,2.035Zm8.711,11.479-.163-.081-8.06-5.7,3.826-2.524h.081l4.315,3.094Zm.9-6.594-3.826-2.605,3.989-2.524,3.826,2.605-.081.081Zm8.955,1.058-8.3,5.617v-5.292l4.559-2.931h.081l3.745,2.524Zm.814-1.3-3.256-2.2.081-.081,3.175-2.035Z"/>
    <path id="路径_11" data-name="路径 11" class="cls-2" d="M410.378,313.1m-3.338,0a3.338,3.338,0,1,0,3.338-3.338A3.338,3.338,0,0,0,407.04,313.1Z" transform="translate(-240.423 -138.801)"/>
  </g>
</svg>
