<?xml version="1.0" standalone="no"?><!DOCTYPE svg PUBLIC "-//W3C//DTD SVG 1.1//EN" "http://www.w3.org/Graphics/SVG/1.1/DTD/svg11.dtd"><svg t="1608707385711" class="icon" viewBox="0 0 1024 1024" version="1.1" xmlns="http://www.w3.org/2000/svg" p-id="6345" xmlns:xlink="http://www.w3.org/1999/xlink" width="32" height="32"><defs><style type="text/css"></style></defs><path d="M980.114286 380.342857c21.942857 0 43.885714-21.942857 43.885714-43.885714V234.057143c0-14.628571-7.314286-29.257143-21.942857-36.571429h-7.314286L526.628571 0h-29.257142L29.257143 190.171429c-14.628571 7.314286-29.257143 21.942857-29.257143 43.885714v102.4c0 21.942857 21.942857 43.885714 43.885714 43.885714h87.771429v438.857143H43.885714c-21.942857 0-43.885714 21.942857-43.885714 43.885714v117.028572c0 21.942857 21.942857 43.885714 43.885714 43.885714h936.228572c21.942857 0 43.885714-21.942857 43.885714-43.885714v-117.028572c0-29.257143-21.942857-51.2-43.885714-51.2h-87.771429v-438.857143h87.771429zM87.771429 936.228571v-29.257142h848.457142v29.257142H87.771429zM219.428571 819.2v-438.857143h131.657143v438.857143H219.428571z m226.742858 0v-438.857143h131.657142v438.857143H446.171429z m219.428571 0v-438.857143h131.657143v438.857143H665.6z m270.628571-555.885714V292.571429H87.771429v-29.257143L512 95.085714l424.228571 168.228572z" p-id="6346"></path></svg>