<?xml version="1.0" standalone="no"?><!DOCTYPE svg PUBLIC "-//W3C//DTD SVG 1.1//EN" "http://www.w3.org/Graphics/SVG/1.1/DTD/svg11.dtd"><svg t="1614825075729" class="icon" viewBox="0 0 1024 1024" version="1.1" xmlns="http://www.w3.org/2000/svg" p-id="12394" xmlns:xlink="http://www.w3.org/1999/xlink" width="200" height="200"><defs><style type="text/css"></style></defs><path d="M324.266667 571.733333c8.533333 8.533333 17.066667 17.066667 29.866666 17.066667 12.8 0 21.333333-4.266667 29.866667-17.066667 34.133333-46.933333 145.066667-204.8 153.6-226.133333 17.066667-29.866667 21.333333-59.733333 21.333333-93.866667 0-115.2-93.866667-209.066667-209.066666-209.066666S149.333333 136.533333 149.333333 251.733333c-4.266667 34.133333 4.266667 64 17.066667 93.866667 12.8 21.333333 123.733333 179.2 157.866667 226.133333zM230.4 256c0-72.533333 55.466667-128 123.733333-128 68.266667 0 123.733333 55.466667 123.733334 123.733333 0 17.066667-4.266667 38.4-12.8 51.2v4.266667c-12.8 21.333333-64 102.4-110.933334 162.133333-42.666667-64-102.4-145.066667-115.2-162.133333-4.266667-17.066667-8.533333-34.133333-8.533333-51.2z" p-id="12395" fill="#ffffff"></path><path d="M354.133333 315.733333c34.133333 0 59.733333-25.6 59.733334-59.733333 0-34.133333-25.6-59.733333-59.733334-59.733333-34.133333 0-59.733333 25.6-59.733333 59.733333-4.266667 29.866667 25.6 59.733333 59.733333 59.733333z" p-id="12396" fill="#ffffff"></path><path d="M1015.466667 115.2c-8.533333-4.266667-17.066667-8.533333-29.866667-8.533333l-264.533333 55.466666-81.066667-25.6c-8.533333-4.266667-21.333333-4.266667-29.866667 4.266667-8.533333 4.266667-17.066667 12.8-17.066666 21.333333-4.266667 8.533333-4.266667 21.333333 4.266666 29.866667 4.266667 8.533333 12.8 17.066667 21.333334 17.066667l64 21.333333v294.4l-132.266667-46.933333c-17.066667-4.266667-38.4 4.266667-46.933333 25.6-4.266667 17.066667 4.266667 38.4 25.6 46.933333L682.666667 597.333333v294.4L384 810.666667v-132.266667c0-21.333333-17.066667-38.4-38.4-38.4s-38.4 17.066667-38.4 38.4V810.666667l-234.666667 42.666666V157.866667c0-21.333333-17.066667-38.4-38.4-38.4-17.066667 0-34.133333 17.066667-34.133333 38.4v733.866666c0 8.533333 4.266667 21.333333 12.8 29.866667 8.533333 4.266667 17.066667 8.533333 29.866667 8.533333l298.666666-55.466666 354.133334 102.4h12.8c4.266667 0 8.533333 0 8.533333-4.266667l268.8-42.666667c17.066667-4.266667 29.866667-17.066667 29.866667-38.4V140.8c8.533333-4.266667 8.533333-17.066667 0-25.6z m-64 452.266667v294.4l-200.533334 34.133333v-294.4l200.533334-34.133333z m0-379.733334v307.2l-200.533334 34.133334v-298.666667l200.533334-42.666667z" p-id="12397" fill="#ffffff"></path></svg>