<?xml version="1.0" standalone="no"?><!DOCTYPE svg PUBLIC "-//W3C//DTD SVG 1.1//EN" "http://www.w3.org/Graphics/SVG/1.1/DTD/svg11.dtd"><svg t="1592214264539" class="icon" viewBox="0 0 1024 1024" version="1.1" xmlns="http://www.w3.org/2000/svg" p-id="9108" xmlns:xlink="http://www.w3.org/1999/xlink" width="16" height="16"><defs><style type="text/css"></style></defs><path d="M518.023529 0c-105.411765 0-189.741176 81.317647-192.752941 186.729412h-240.941176c-27.105882 0-51.2 24.094118-51.2 51.2 0 27.105882 21.082353 48.188235 48.188235 48.188235h54.211765v548.141177c0 102.4 69.270588 186.729412 156.611764 186.729411h439.717648c87.341176 0 156.611765-84.329412 156.611764-186.729411V286.117647h48.188236c27.105882 0 48.188235-21.082353 48.188235-48.188235 0-27.105882-21.082353-48.188235-48.188235-48.188236h-228.894118c0-105.411765-84.329412-189.741176-189.741177-189.741176z m-99.388235 186.729412c3.011765-54.211765 48.188235-93.364706 99.388235-93.364706 54.211765 0 96.376471 42.164706 99.388236 93.364706h-198.776471zM295.152941 930.635294c-30.117647 0-63.247059-39.152941-63.247059-96.37647V286.117647h569.22353v548.141177c0 57.223529-33.129412 96.376471-63.247059 96.37647H295.152941z m0 0" p-id="9109"></path><path d="M358.4 813.176471c21.082353 0 42.164706-21.082353 42.164706-51.2v-289.129412c0-27.105882-18.070588-51.2-42.164706-51.2-21.082353 0-42.164706 21.082353-42.164706 51.2v289.129412c3.011765 27.105882 21.082353 51.2 42.164706 51.2z m150.588235 0c21.082353 0 42.164706-21.082353 42.164706-51.2v-289.129412c0-27.105882-18.070588-51.2-42.164706-51.2-21.082353 0-42.164706 21.082353-42.164706 51.2v289.129412c0 27.105882 18.070588 51.2 42.164706 51.2z m153.6 0c21.082353 0 42.164706-21.082353 42.164706-51.2v-289.129412c0-27.105882-18.070588-51.2-42.164706-51.2-21.082353 0-42.164706 21.082353-42.164706 51.2v289.129412c3.011765 27.105882 21.082353 51.2 42.164706 51.2z m0 0" p-id="9110"></path></svg>