<?xml version="1.0" standalone="no"?><!DOCTYPE svg PUBLIC "-//W3C//DTD SVG 1.1//EN" "http://www.w3.org/Graphics/SVG/1.1/DTD/svg11.dtd"><svg class="icon" width="16px" height="16.00px" viewBox="0 0 1024 1024" version="1.1" xmlns="http://www.w3.org/2000/svg"><path fill="#b6b6b6" d="M877.866667 417.92c-30.293333-50.56-86.826667-54.613333-101.12-54.613333h-103.04c64.64-78.933333 50.56-151.68 22.186666-179.84-30.293333-30.293333-64.64-40.533333-93.013333-40.533334-40.533333 0-72.746667 18.133333-72.746667 20.266667-38.4 36.48-159.786667 200.106667-161.706666 200.106667H196.693333c-38.4 0-68.693333 30.293333-68.693333 68.693333v379.946667c0 38.4 30.293333 68.693333 68.693333 68.693333h543.786667c167.68-272.64 173.866667-401.92 137.386667-462.72zM178.56 814.293333V432.213333c0-10.026667 8.106667-18.133333 18.133333-18.133333h153.6v418.346667h-153.6a18.133333 18.133333 0 0 1-18.133333-18.133334z m533.546667 18.133334H400.853333V401.92l5.973334-8.106667c58.666667-76.8 125.226667-161.706667 151.68-190.08 5.973333-4.053333 22.186667-10.026667 42.453333-10.026666 22.186667 0 40.533333 8.106667 56.533333 26.24 12.16 10.026667 22.186667 54.613333-24.32 111.146666l-66.773333 82.773334h210.133333c10.026667 0 42.453333 1.92 58.666667 28.373333 16.426667 28.373333 36.693333 123.306667-123.093333 390.186667z" /></svg>