<?xml version="1.0" standalone="no"?><!DOCTYPE svg PUBLIC "-//W3C//DTD SVG 1.1//EN" "http://www.w3.org/Graphics/SVG/1.1/DTD/svg11.dtd"><svg class="icon" width="16px" height="16.00px" viewBox="0 0 1024 1024" version="1.1" xmlns="http://www.w3.org/2000/svg"><path fill="#b6b6b6" d="M933.236364 402.618182c-34.909091-58.181818-100.072727-62.836364-116.363637-62.836364H698.181818c74.472727-90.763636 58.181818-174.545455 25.6-207.127273-34.909091-34.909091-74.472727-46.545455-107.054545-46.545454-46.545455 0-83.781818 20.945455-83.781818 23.272727-44.218182 41.890909-183.854545 230.4-186.181819 230.4H148.945455C104.727273 339.781818 69.818182 374.690909 69.818182 418.909091v437.527273c0 44.218182 34.909091 79.127273 79.127273 79.127272h626.036363c193.163636-314.181818 200.145455-463.127273 158.254546-532.945454zM128 858.763636V418.909091c0-11.636364 9.309091-20.945455 20.945455-20.945455H325.818182v481.745455H148.945455c-11.636364 0-20.945455-9.309091-20.945455-20.945455z m614.4 20.945455H384V384l6.981818-9.309091c67.490909-88.436364 144.290909-186.181818 174.545455-218.763636 6.981818-4.654545 25.6-11.636364 48.872727-11.636364 25.6 0 46.545455 9.309091 65.163636 30.254546 13.963636 11.636364 25.6 62.836364-27.927272 128l-76.8 95.418181h242.036363c11.636364 0 48.872727 2.327273 67.490909 32.581819 18.618182 32.581818 41.890909 141.963636-141.963636 449.163636z" /></svg>