<?xml version="1.0" standalone="no"?><!DOCTYPE svg PUBLIC "-//W3C//DTD SVG 1.1//EN" "http://www.w3.org/Graphics/SVG/1.1/DTD/svg11.dtd"><svg t="1614822608280" class="icon" viewBox="0 0 1024 1024" version="1.1" xmlns="http://www.w3.org/2000/svg" p-id="11058" xmlns:xlink="http://www.w3.org/1999/xlink" width="200" height="200"><defs><style type="text/css"></style></defs><path d="M648.533333 512c0-73.142857-60.952381-134.095238-134.095238-134.095238S380.342857 438.857143 380.342857 512s60.952381 134.095238 134.095238 134.095238 134.095238-60.952381 134.095238-134.095238z m-134.095238 80.457143c-43.885714 0-80.457143-36.571429-80.457143-80.457143s36.571429-80.457143 80.457143-80.457143 80.457143 36.571429 80.457143 80.457143-36.571429 80.457143-80.457143 80.457143z" p-id="11059" fill="#ffffff"></path><path d="M1021.561905 482.742857h-85.333334c-17.066667-207.238095-182.857143-373.028571-390.095238-390.095238V0h-65.828571v87.771429c-207.238095 17.066667-373.028571 182.857143-390.095238 390.095238H0v65.828571h90.209524c17.066667 207.238095 182.857143 373.028571 390.095238 390.095238V1024h65.828571v-87.771429c207.238095-17.066667 373.028571-182.857143 390.095238-390.095238h85.333334v-63.390476zM480.304762 785.066667v95.085714C302.32381 865.52381 160.914286 721.67619 146.285714 543.695238h92.647619v-65.828571H146.285714c14.628571-177.980952 158.47619-319.390476 334.019048-334.019048v95.085714h65.828571V143.847619c177.980952 14.628571 319.390476 158.47619 334.019048 334.019048h-97.52381v65.828571h97.52381c-14.628571 177.980952-158.47619 319.390476-334.019048 334.019048v-95.085715h-65.828571v2.438096z" p-id="11060" fill="#ffffff"></path></svg>