<?xml version="1.0" standalone="no"?><!DOCTYPE svg PUBLIC "-//W3C//DTD SVG 1.1//EN" "http://www.w3.org/Graphics/SVG/1.1/DTD/svg11.dtd"><svg class="icon" width="200px" height="200.00px" viewBox="0 0 1024 1024" version="1.1" xmlns="http://www.w3.org/2000/svg"><path d="M652.8 188.8c92.8 0 169.6 57.6 198.4 137.6-16-22.4-38.4-35.2-67.2-35.2-25.6 0-48 9.6-60.8 28.8l-80 102.4-118.4-195.2c38.4-22.4 83.2-38.4 128-38.4" fill="#23B5FA" /><path d="M832 761.6c0-19.2-12.8-32-32-32H153.6c-19.2 0-32 12.8-32 32s12.8 32 32 32H800c19.2 0 32-16 32-32zM476.8 886.4h-73.6c-19.2 0-32 12.8-32 32s12.8 32 32 32h73.6c19.2 0 32-12.8 32-32s-12.8-32-32-32zM950.4 886.4h-297.6c-19.2 0-32 12.8-32 32s12.8 32 32 32h297.6c19.2 0 32-12.8 32-32s-16-32-32-32zM985.6 624l-44.8-70.4c25.6-48 38.4-99.2 38.4-153.6 0-179.2-144-323.2-323.2-323.2-86.4 0-169.6 35.2-230.4 96l-38.4-64c-3.2-12.8-12.8-19.2-25.6-19.2-9.6 0-22.4 6.4-25.6 16L35.2 604.8c-6.4 16-3.2 35.2 12.8 44.8 16 9.6 35.2 3.2 44.8-9.6l272-454.4L608 582.4c6.4 9.6 16 16 25.6 16 9.6 0 19.2-3.2 25.6-12.8l124.8-156.8 147.2 230.4c6.4 9.6 16 16 25.6 16 6.4 0 12.8-3.2 16-6.4 19.2-12.8 22.4-32 12.8-44.8z m-195.2-284.8c-9.6 0-19.2 3.2-25.6 12.8L640 508.8l-176-281.6c48-54.4 118.4-86.4 195.2-86.4 144 0 259.2 115.2 259.2 259.2 0 32-6.4 60.8-16 89.6l-86.4-134.4c-6.4-9.6-16-12.8-25.6-16z" fill="#333333" /></svg>