<?xml version="1.0" standalone="no"?><!DOCTYPE svg PUBLIC "-//W3C//DTD SVG 1.1//EN" "http://www.w3.org/Graphics/SVG/1.1/DTD/svg11.dtd"><svg t="1614843616668" class="icon" viewBox="0 0 1024 1024" version="1.1" xmlns="http://www.w3.org/2000/svg" p-id="12895" xmlns:xlink="http://www.w3.org/1999/xlink" width="200" height="200"><defs><style type="text/css"></style></defs><path d="M763.733333 187.733333h-8.533333v140.8c-17.066667-4.266667-38.4-4.266667-55.466667-8.533333 8.533333-34.133333 17.066667-64 17.066667-85.333333C716.8 85.333333 640 0 512 0S307.2 85.333333 307.2 230.4c0 25.6 4.266667 51.2 17.066667 85.333333-17.066667 4.266667-38.4 8.533333-55.466667 8.533334V187.733333h-8.533333C93.866667 217.6 0 273.066667 0 341.333333v503.466667c0 55.466667 55.466667 102.4 162.133333 132.266667C256 1006.933333 384 1024 512 1024c247.466667 0 512-55.466667 512-174.933333V341.333333c0-68.266667-93.866667-123.733333-260.266667-153.6zM951.466667 341.333333v409.6c-29.866667-17.066667-72.533333-34.133333-123.733334-46.933333v-426.666667c85.333333 21.333333 123.733333 51.2 123.733334 64z m-324.266667-25.6c-4.266667 17.066667-12.8 34.133333-21.333333 55.466667-29.866667 68.266667-72.533333 128-93.866667 153.6-21.333333-25.6-59.733333-85.333333-93.866667-153.6-8.533333-21.333333-12.8-38.4-21.333333-55.466667-8.533333-29.866667-17.066667-59.733333-17.066667-85.333333 0-106.666667 42.666667-157.866667 132.266667-157.866667s132.266667 51.2 132.266667 157.866667c0 25.6-8.533333 55.466667-17.066667 85.333333z m-554.666667 435.2V341.333333c0-12.8 38.4-42.666667 123.733334-68.266666v426.666666c-51.2 17.066667-93.866667 34.133333-123.733334 51.2z m132.266667 25.6c17.066667-4.266667 34.133333-8.533333 55.466667-12.8h8.533333V401.066667c25.6-4.266667 55.466667-8.533333 81.066667-12.8 46.933333 106.666667 119.466667 217.6 162.133333 217.6s119.466667-110.933333 162.133333-217.6c25.6 4.266667 55.466667 8.533333 81.066667 12.8v362.666666h8.533333c21.333333 4.266667 38.4 8.533333 55.466667 12.8 98.133333 25.6 132.266667 55.466667 132.266667 68.266667 0 29.866667-149.333333 102.4-439.466667 102.4S72.533333 878.933333 72.533333 844.8c0-12.8 38.4-42.666667 132.266667-68.266667z" p-id="12896" fill="#ffffff"></path><path d="M512 708.266667c46.933333 0 89.6-12.8 115.2-34.133334 21.333333-17.066667 8.533333-46.933333-17.066667-46.933333-4.266667 0-12.8 0-17.066666 4.266667-12.8 8.533333-38.4 21.333333-81.066667 21.333333-42.666667 0-68.266667-12.8-81.066667-21.333333-4.266667-4.266667-12.8-4.266667-17.066666-4.266667-25.6 0-38.4 29.866667-17.066667 46.933333 25.6 21.333333 68.266667 34.133333 115.2 34.133334zM512 149.333333c-46.933333 0-85.333333 38.4-85.333333 85.333334s38.4 85.333333 85.333333 85.333333 85.333333-38.4 85.333333-85.333333-38.4-85.333333-85.333333-85.333334z m0 110.933334c-17.066667 0-29.866667-12.8-29.866667-29.866667 0-17.066667 12.8-29.866667 29.866667-29.866667 17.066667 0 29.866667 12.8 29.866667 29.866667 0 17.066667-12.8 29.866667-29.866667 29.866667z" p-id="12897" fill="#ffffff"></path></svg>