<?xml version="1.0" standalone="no"?><!DOCTYPE svg PUBLIC "-//W3C//DTD SVG 1.1//EN" "http://www.w3.org/Graphics/SVG/1.1/DTD/svg11.dtd"><svg class="icon" width="200px" height="200.00px" viewBox="0 0 1024 1024" version="1.1" xmlns="http://www.w3.org/2000/svg"><path d="M512 163.2L252.8 275.2l262.4 112 243.2-115.2L512 163.2z" fill="#23B5FA" /><path d="M934.4 246.4L521.6 70.4c-6.4-3.2-12.8-3.2-19.2 0L89.6 246.4c-6.4 3.2-12.8 9.6-16 16-3.2 12.8 3.2 25.6 16 32l112 48c12.8 6.4 28.8 0 35.2-12.8 6.4-12.8 0-28.8-12.8-35.2l-57.6-22.4L512 121.6l345.6 150.4-64 28.8c-6.4 3.2-12.8 6.4-12.8 12.8s-3.2 12.8 0 19.2c3.2 9.6 12.8 16 22.4 16 3.2 0 6.4 0 9.6-3.2l118.4-51.2c6.4-3.2 9.6-6.4 12.8-12.8 9.6-12.8 3.2-28.8-9.6-35.2zM931.2 364.8c-3.2 0-6.4-3.2-9.6-3.2-3.2 0-6.4 0-9.6 3.2l-355.2 150.4c-9.6 3.2-16 12.8-16 25.6v166.4l-28.8 12.8-32-16v-166.4c0-9.6-6.4-19.2-16-25.6L108.8 364.8c-3.2 0-6.4-3.2-9.6-3.2-12.8 0-25.6 12.8-25.6 25.6v374.4c0 9.6 6.4 19.2 16 22.4l355.2 166.4c3.2 3.2 6.4 3.2 9.6 3.2 16 0 25.6-12.8 25.6-25.6v-169.6l22.4 9.6c3.2 0 6.4 3.2 9.6 3.2h16l16-6.4v166.4c0 16 12.8 25.6 25.6 25.6 3.2 0 6.4 0 9.6-3.2l355.2-147.2c9.6-3.2 16-12.8 16-25.6V390.4c0-3.2 0-6.4-3.2-9.6-3.2-6.4-9.6-12.8-16-16zM428.8 889.6l-3.2-3.2L128 745.6v-320l300.8 128v128L288 620.8c-3.2 0-6.4-3.2-9.6-3.2-9.6 0-19.2 6.4-25.6 16-6.4 12.8 0 28.8 12.8 35.2l160 70.4v150.4zM896 764.8l-300.8 128v-147.2l160-60.8c12.8-6.4 19.2-19.2 16-35.2-3.2-9.6-12.8-16-25.6-16-3.2 0-6.4 0-9.6 3.2l-140.8 54.4v-131.2h3.2l300.8-128v332.8z" fill="#333333" /><path d="M358.4 409.6l144 60.8c6.4 3.2 12.8 3.2 19.2 0l121.6-51.2c6.4-3.2 12.8-6.4 12.8-12.8s3.2-12.8 0-19.2c-3.2-6.4-6.4-12.8-12.8-12.8-6.4-3.2-12.8-3.2-19.2 0l-108.8 48-134.4-57.6c-3.2 0-6.4-3.2-9.6-3.2-3.2 0-6.4 0-9.6 3.2-6.4 3.2-12.8 6.4-12.8 12.8-3.2 6.4-3.2 12.8 0 19.2 0 6.4 3.2 12.8 9.6 12.8z" fill="#333333" /></svg>