<?xml version="1.0" standalone="no"?><!DOCTYPE svg PUBLIC "-//W3C//DTD SVG 1.1//EN" "http://www.w3.org/Graphics/SVG/1.1/DTD/svg11.dtd"><svg t="1587953444074" class="icon" viewBox="0 0 1024 1024" version="1.1" xmlns="http://www.w3.org/2000/svg" p-id="5659" xmlns:xlink="http://www.w3.org/1999/xlink" width="200" height="200"><defs><style type="text/css"></style></defs><path d="M240 363.84l256 190.4c5.12 2.88 10.56 4.16 16 4.16h0.32c5.44 0 10.88-1.28 16-4.16l256-190.4c15.04-8.64 20.48-28.16 11.52-43.2a31.488 31.488 0 0 0-43.2-11.52L512 490.56 271.36 308.8a31.776 31.776 0 0 0-43.2 11.52 31.968 31.968 0 0 0 11.84 43.52z" p-id="5660" fill="#999999"></path><path d="M834.56 202.24H189.76C155.52 202.24 128 221.76 128 246.4v531.2c0 24.32 27.52 44.16 61.76 44.16h644.48c33.92 0 61.76-19.84 61.76-44.16V246.4c0-24.64-27.52-44.16-61.44-44.16z m-4.16 553.6H193.92V267.84h636.48v488z" p-id="5661" fill="#999999"></path></svg>