<?xml version="1.0" standalone="no"?><!DOCTYPE svg PUBLIC "-//W3C//DTD SVG 1.1//EN" "http://www.w3.org/Graphics/SVG/1.1/DTD/svg11.dtd"><svg t="1642414586984" class="icon" viewBox="0 0 1024 1024" version="1.1" xmlns="http://www.w3.org/2000/svg" p-id="10253" xmlns:xlink="http://www.w3.org/1999/xlink" width="200" height="200"><defs><style type="text/css"></style></defs><path d="M963.093 660.992c0-12.288-10.24-22.55-22.549-22.55H567.296c-12.8-38.4-34.816-73.215-62.464-99.84-0.512-0.49-2.048-2.56-2.56-3.093-25.6-25.066-46.08-54.25-59.904-87.04a269.227 269.227 0 0 1-20.992-103.936c0-70.656 10.24-140.8 30.72-208.384l13.312-45.056c2.048-6.613 0.512-14.293-3.584-19.925s-10.752-9.216-17.92-9.216h-240.64c-7.168 0-13.824 3.584-17.92 9.216s-5.632 13.312-3.584 19.968l13.312 45.056a718.016 718.016 0 0 1 30.72 208.384c0 71.68-29.184 141.312-81.92 192.512-98.304 95.253-104.448 251.392-13.824 347.67 11.776 12.8 24.576 23.04 37.376 31.21 48.128 29.717 101.888 44.544 155.648 44.544s107.52-14.827 155.648-44.544c12.8-7.659 25.088-18.41 37.888-31.21 7.68-8.214 14.848-16.918 21.525-26.625 1.515 0.491 2.539 1.003 4.075 1.003v91.136c0 12.288 10.24 22.528 22.55 22.528h196.074c12.288 0 22.55-10.219 22.55-22.528v-91.136c108.01-33.792 179.711-112.128 179.711-198.144zM455.168 877.589a250.667 250.667 0 0 1-264.192 0c-9.728-5.653-18.944-13.824-28.16-23.573-73.728-78.336-68.608-206.336 13.312-286.187a313.493 313.493 0 0 0 94.208-223.232 770.773 770.773 0 0 0-32.256-221.184l-4.608-15.893h179.712l-4.608 15.36a770.773 770.773 0 0 0-32.256 221.184c0 41.984 8.192 82.432 24.576 121.344a306.603 306.603 0 0 0 68.608 100.352c0.512 0.512 2.048 2.581 2.56 3.093a200.064 200.064 0 0 1 47.104 69.12H384c-12.288 0-22.528 10.219-22.528 22.528v9.728c0 1.536 0 3.094 0.512 4.608 0 1.024 0 2.07 0.512 3.072 0 1.536 0.512 3.094 0.512 4.118 0 1.002 0.512 2.048 0.512 3.05 0 1.536 0.512 2.582 0.512 4.118 0 1.002 0.512 2.048 0.512 3.05 0.512 1.536 0.512 2.582 1.024 4.118 0 1.002 0.512 2.048 0.512 3.072 0.512 1.024 0.512 2.56 1.024 3.584s0.512 2.048 1.024 3.072c0.512 1.045 0.512 2.56 1.024 3.584 0.512 1.045 0.512 2.048 1.024 3.093a9.387 9.387 0 0 1 1.024 3.584 7.253 7.253 0 0 1 1.024 3.093l1.536 3.051c0.512 1.045 1.024 2.581 1.536 3.584 0.512 1.045 0.512 1.536 1.024 2.581 1.536 3.072 3.072 6.656 4.608 9.707 0 0 0 0.512 0.512 0.512 1.024 1.536 1.536 3.072 2.56 4.608 0.512 0.512 0.512 1.045 1.024 1.536a20.885 20.885 0 0 1 2.56 4.63c0.512 0.49 0.512 1.002 1.024 1.514l3.072 4.608c0.512 0.49 0.512 1.045 1.024 1.536l3.072 4.608c0.512 0.512 0.512 1.024 1.024 1.536 1.024 1.515 2.56 3.072 3.584 4.608l1.024 1.024c1.536 1.536 2.56 3.072 4.096 4.608l0.512 0.512c22.528 26.112 52.224 48.64 88.064 65.515-3.584 4.629-7.168 8.704-10.752 12.821-9.216 11.2-18.432 19.392-28.16 25.045z m283.115 50.155h-151.04V870.4c1.045 0 2.069 0.512 3.093 0.512 4.096 0.49 8.704 1.536 12.8 2.048 1.045 0 2.581 0.49 3.584 0.49 5.653 0.534 11.264 1.537 17.408 2.07h0.49c5.654 0.512 11.286 1.024 17.409 1.024h2.048c6.165 0 12.288 0.49 17.941 0.49 6.144 0 12.267 0 18.432-0.49h1.515a391.04 391.04 0 0 0 35.861-3.093c1.003 0 2.048-0.491 3.072-0.491 4.608-0.49 9.728-1.536 14.336-2.048 1.024 0 1.536 0 2.56-0.512v57.344h0.49z m16.405-106.987c-43.52 11.755-93.184 14.336-139.776 8.683a344.448 344.448 0 0 1-45.59-8.683 326.699 326.699 0 0 1-33.28-10.752c-70.143-26.624-117.247-73.749-128-126.485h506.369c-11.243 60.928-72.683 114.197-159.723 137.237z" p-id="10254" fill="#ffffff"></path></svg>