<svg xmlns="http://www.w3.org/2000/svg" width="35.316" height="35.316" viewBox="0 0 35.316 35.316">
  <g id="艺术展_1_" data-name="艺术展(1)" transform="translate(-128.438 -128.438)">
    <path id="路径_14" data-name="路径 14" d="M160.65,136.784h-7.913l-3.843-3.9a3.1,3.1,0,1,0-5.6,0l-3.843,3.9h-7.913a3.109,3.109,0,0,0-3.1,3.1V160.65a3.109,3.109,0,0,0,3.1,3.1H160.65a3.109,3.109,0,0,0,3.1-3.1V139.888A3.109,3.109,0,0,0,160.65,136.784ZM146.1,130.507a1.035,1.035,0,1,1-1.035,1.035A1.036,1.036,0,0,1,146.1,130.507Zm-1.331,3.838a3.1,3.1,0,0,0,2.663,0l2.4,2.439h-7.471Zm15.457,4.508-2.069,2.069H134.04l-2.069-2.069Zm-5.848,12.485a9.242,9.242,0,0,0-5.869,2.082,18.576,18.576,0,0,0-11.72-4.151,19.911,19.911,0,0,0-2.138.116v-6.393h22.9v8.886a9.713,9.713,0,0,0-3.173-.54Zm3.173,2.769v3.439h-5.275a18.721,18.721,0,0,0-2.213-2.715,7.189,7.189,0,0,1,4.315-1.424A7.561,7.561,0,0,1,157.546,154.108Zm-7.836,3.439H134.646v-6.078a17.763,17.763,0,0,1,2.138-.13A16.458,16.458,0,0,1,149.711,157.546Zm-19.2,2.675V140.317l2.069,2.069v15.766Zm1.463,1.463,2.069-2.069h24.113l2.069,2.069Zm29.715-1.463-2.069-2.069V142.386l2.069-2.069Z" fill="#fff"/>
    <path id="路径_15" data-name="路径 15" d="M492.63,491.024a3.1,3.1,0,1,0,3.1,3.1A3.108,3.108,0,0,0,492.63,491.024Zm0,4.139a1.035,1.035,0,1,1,1.035-1.035A1.036,1.036,0,0,1,492.63,495.163Z" transform="translate(-344.464 -345.893)" fill="#fff"/>
  </g>
</svg>
