<?xml version="1.0" standalone="no"?><!DOCTYPE svg PUBLIC "-//W3C//DTD SVG 1.1//EN" "http://www.w3.org/Graphics/SVG/1.1/DTD/svg11.dtd"><svg t="1642414509598" class="icon" viewBox="0 0 1066 1024" version="1.1" xmlns="http://www.w3.org/2000/svg" p-id="9930" xmlns:xlink="http://www.w3.org/1999/xlink" width="208.203125" height="200"><defs><style type="text/css"></style></defs><path d="M967.467 908.31l-38.763-38.891-0.832-0.811a162.667 162.667 0 0 0 29.29-93.44c0-90.39-73.493-163.712-164.074-163.712a163.477 163.477 0 0 0-115.05 47.083 164.181 164.181 0 0 0-39.68 62.058 163.307 163.307 0 0 0-9.366 54.656v0.107a161.13 161.13 0 0 0 9.579 54.976c5.12 14.57 12.33 28.117 21.269 40.427a163.755 163.755 0 0 0 133.333 68.309 162.773 162.773 0 0 0 87.19-25.024l1.664 1.835 38.741 38.89c6.485 6.464 14.933 9.75 23.339 9.75 8.448 0 16.768-3.2 23.146-9.558 12.843-13.013 12.95-33.834 0.214-46.656z m-174.379-35.094a98.56 98.56 0 0 1-92.63-65.13 76.16 76.16 0 0 1-2.56-8.62 96.683 96.683 0 0 1-3.093-24.32c0-11.37 1.835-22.357 5.547-32.81v-0.107c0.427-1.322 1.024-2.666 1.536-4.096v-0.106a96.939 96.939 0 0 1 22.101-32.832 97.92 97.92 0 0 1 68.992-28.203c54.187 0 98.283 44.01 98.283 98.07a98.176 98.176 0 0 1-98.176 98.154z" p-id="9931" fill="#ffffff"></path><path d="M506.56 905.835H193.813V118.187H915.52v337.066h65.813V52.523H128v918.954h378.56z" p-id="9932" fill="#ffffff"></path><path d="M476.117 308.032c-156.693-28.117 0-133.653 0-133.653H296.811s156.693 105.45 0 133.653c-160.79 40.619 32.81 503.85 32.81 503.85h113.707c0-0.106 193.579-463.231 32.79-503.85z m-18.41 303.104a1724.416 1724.416 0 0 1-49.451 149.333h-43.584a1736.533 1736.533 0 0 1-49.45-149.333c-45.44-163.819-29.825-222.485-20.971-240.128 4.202-8.405 8.533-11.392 13.866-13.013 33.835-6.379 59.947-17.046 78.251-32.128 18.304 14.976 44.416 25.749 78.23 32.106 5.333 1.643 9.663 4.63 13.866 13.035 9.067 17.643 24.704 76.31-20.757 240.128z m133.76-423.019h270.4v65.643h-270.4v-65.643z m0 155.392h270.4v65.664h-270.4V343.51z m0 155.52h270.4v65.643h-270.4v-65.643z" p-id="9933" fill="#ffffff"></path></svg>