<?xml version="1.0" standalone="no"?><!DOCTYPE svg PUBLIC "-//W3C//DTD SVG 1.1//EN" "http://www.w3.org/Graphics/SVG/1.1/DTD/svg11.dtd"><svg t="1642414151523" class="icon" viewBox="0 0 1024 1024" version="1.1" xmlns="http://www.w3.org/2000/svg" p-id="9446" xmlns:xlink="http://www.w3.org/1999/xlink" width="200" height="200"><defs><style type="text/css"></style></defs><path d="M757.57 99.34c27.15 0.01 52.29 14.4 66.19 37.89l122.5 207.1-0.34-0.02c30.37 60.35 11.38 134.03-44.3 171.89-55.69 37.87-130.65 28.08-174.91-22.83-27.42 29.32-65.66 45.92-105.66 45.85-41.74 0.05-81.48-18.02-109.05-49.57-27.56 31.55-67.29 49.61-109.03 49.57-39.99 0.05-78.22-16.54-105.66-45.85-46.19 52.93-125.16 60.89-180.85 18.22C60.8 468.92 47.35 390.15 85.7 331.21l103.01-191.27c13.47-25.01 39.47-40.6 67.72-40.6h501.14z m0 77.58H256.44L151.81 371.14l-1.8 2.79c-16.07 24.87-10.35 58.02 13.12 75.97 23.46 17.95 56.71 14.63 76.21-7.62l55.76-64.21 58.22 61.99c12.86 13.73 30.56 21.57 49.67 21.57 19.93 0 38.32-8.54 51.26-23.33l57.79-65.89 57.76 65.89c12.94 14.79 31.34 23.33 51.26 23.33 19.11 0 36.78-7.84 49.62-21.52l58.17-62.07 55.83 64.22c18.66 21.46 50.27 25.6 73.76 9.65 23.49-15.95 31.54-47 18.78-72.47l-0.87-1.73-118.78-200.79z m-514.04 672.4V612.07a166.35 166.35 0 0 1-77.05 0v237.25c0 42.85 34.49 77.58 77.05 77.58h154.1v-77.58h-154.1z" p-id="9447" fill="#ffffff"></path><path d="M628.77 668.29H397.62V926.9h77.05V745.88h77.05V926.9h77.05v-80.43z" p-id="9448" fill="#ffffff"></path><path d="M782.87 603.66v245.66h-154.1v-2.86 80.43h154.1c42.55 0 77.05-34.73 77.05-77.58V616.07c-26.3 2.08-52.71-2.18-77.05-12.41z" p-id="9449" fill="#ffffff"></path></svg>