<?xml version="1.0" standalone="no"?><!DOCTYPE svg PUBLIC "-//W3C//DTD SVG 1.1//EN" "http://www.w3.org/Graphics/SVG/1.1/DTD/svg11.dtd"><svg t="1642414464910" class="icon" viewBox="0 0 1071 1024" version="1.1" xmlns="http://www.w3.org/2000/svg" p-id="9768" xmlns:xlink="http://www.w3.org/1999/xlink" width="209.1796875" height="200"><defs><style type="text/css"></style></defs><path d="M997.77799 675.678003a45.592 45.592 0 1 1 0 93.007999h-187.609998l-6.612-39.209999c-31.914-184.189998-91.182999-267.167997-170.969998-267.167998S495.811995 545.970005 464.581995 731.984003l-6.382999 39.209999H314.811997a45.592 45.592 0 1 1 0-93.007999h64.739999C419.444996 478.720005 501.509995 369.985006 632.359994 369.985006s213.597998 107.139999 255.313997 305.692997h110.104999z m0 0" p-id="9769" fill="#ffffff"></path><path d="M93.006999 93.014009v837.749992h884.253991V93.015009z m0-93.006999h884.253991a93.006999 93.006999 0 0 1 94.147 93.006999v837.749992a93.006999 93.006999 0 0 1-93.007 93.007999H93.006999A93.006999 93.006999 0 0 1 0 930.765001V93.015009A93.006999 93.006999 0 0 1 93.006999 0.00601z m0 0" p-id="9770" fill="#ffffff"></path><path d="M296.346997 412.841006a71.579999 71.579999 0 1 0-68.387999-70.894999 70.894999 70.894999 0 0 0 68.387999 70.894999z m0 0" p-id="9771" fill="#ffffff"></path></svg>