<?xml version="1.0" standalone="no"?><!DOCTYPE svg PUBLIC "-//W3C//DTD SVG 1.1//EN" "http://www.w3.org/Graphics/SVG/1.1/DTD/svg11.dtd"><svg t="1584429897090" class="icon" viewBox="0 0 1024 1024" version="1.1" xmlns="http://www.w3.org/2000/svg" p-id="16831" xmlns:xlink="http://www.w3.org/1999/xlink" width="300" height="300"><defs><style type="text/css"></style></defs><path d="M512 109.714286c54.857143 0 106.057143 10.971429 157.257143 32.914285 47.542857 21.942857 91.428571 47.542857 128 87.771429 36.571429 36.571429 65.828571 80.457143 87.771428 128 21.942857 51.2 32.914286 102.4 32.914286 157.257143s-10.971429 106.057143-32.914286 157.257143c-21.942857 47.542857-47.542857 91.428571-87.771428 128-36.571429 36.571429-80.457143 65.828571-128 87.771428-51.2 14.628571-102.4 25.6-157.257143 25.6s-106.057143-10.971429-157.257143-32.914285c-47.542857-21.942857-91.428571-47.542857-128-87.771429-36.571429-36.571429-65.828571-80.457143-87.771428-128-18.285714-47.542857-29.257143-98.742857-29.257143-153.6s10.971429-106.057143 32.914285-157.257143c21.942857-47.542857 47.542857-91.428571 87.771429-128 36.571429-36.571429 80.457143-65.828571 128-87.771428 47.542857-18.285714 98.742857-29.257143 153.6-29.257143m0-73.142857c-65.828571 0-128 10.971429-186.514286 36.571428-54.857143 25.6-106.057143 58.514286-149.942857 102.4S98.742857 270.628571 73.142857 325.485714c-25.6 58.514286-36.571429 120.685714-36.571428 186.514286s10.971429 128 36.571428 186.514286c25.6 54.857143 58.514286 106.057143 102.4 149.942857C219.428571 892.342857 270.628571 925.257143 325.485714 950.857143c58.514286 25.6 120.685714 36.571429 186.514286 36.571428s128-10.971429 186.514286-36.571428c54.857143-25.6 106.057143-58.514286 149.942857-102.4 43.885714-43.885714 76.8-95.085714 102.4-149.942857 25.6-58.514286 36.571429-120.685714 36.571428-186.514286s-10.971429-128-36.571428-186.514286c-25.6-54.857143-58.514286-106.057143-102.4-149.942857C804.571429 131.657143 753.371429 98.742857 698.514286 73.142857c-58.514286-21.942857-120.685714-36.571429-186.514286-36.571428z" fill="#FF0000" p-id="16832"></path><path d="M548.571429 720.457143c10.971429 10.971429 14.628571 21.942857 14.628571 32.914286 0 14.628571-3.657143 25.6-14.628571 36.571428-10.971429 10.971429-21.942857 14.628571-36.571429 14.628572s-25.6-3.657143-36.571429-14.628572-14.628571-21.942857-14.628571-36.571428 3.657143-25.6 14.628571-32.914286c10.971429-10.971429 21.942857-14.628571 36.571429-14.628572s25.6 7.314286 36.571429 14.628572zM475.428571 219.428571h73.142858l-14.628572 427.885715h-51.2L475.428571 219.428571z" fill="#FF0000" p-id="16833"></path></svg>