<?xml version="1.0" standalone="no"?><!DOCTYPE svg PUBLIC "-//W3C//DTD SVG 1.1//EN" "http://www.w3.org/Graphics/SVG/1.1/DTD/svg11.dtd"><svg t="1614844317869" class="icon" viewBox="0 0 1024 1024" version="1.1" xmlns="http://www.w3.org/2000/svg" p-id="15404" xmlns:xlink="http://www.w3.org/1999/xlink" width="200" height="200"><defs><style type="text/css"></style></defs><path d="M401.066667 174.933333c46.933333 0 89.6 17.066667 119.466666 51.2 34.133333 34.133333 51.2 76.8 51.2 119.466667 0 46.933333-17.066667 85.333333-51.2 119.466667-34.133333 34.133333-72.533333 51.2-119.466666 51.2s-89.6-17.066667-119.466667-51.2c-34.133333-34.133333-51.2-76.8-51.2-119.466667 0-46.933333 17.066667-89.6 51.2-119.466667 34.133333-34.133333 76.8-51.2 119.466667-51.2m0-85.333333c-68.266667 0-132.266667 25.6-179.2 76.8C174.933333 213.333333 145.066667 277.333333 145.066667 345.6s25.6 132.266667 76.8 179.2c46.933333 46.933333 110.933333 76.8 179.2 76.8s132.266667-25.6 179.2-76.8c46.933333-46.933333 76.8-110.933333 76.8-179.2s-25.6-132.266667-76.8-179.2C533.333333 115.2 469.333333 89.6 401.066667 89.6z" p-id="15405" fill="#ffffff"></path><path d="M686.933333 648.533333c-38.4-38.4-81.066667-68.266667-128-85.333333-51.2-21.333333-102.4-34.133333-157.866666-34.133333s-106.666667 8.533333-157.866667 29.866666c-46.933333 21.333333-89.6 51.2-128 85.333334s-68.266667 81.066667-85.333333 128c-21.333333 55.466667-29.866667 106.666667-29.866667 162.133333h72.533333c0-89.6 34.133333-170.666667 98.133334-234.666667s145.066667-98.133333 234.666666-98.133333 170.666667 34.133333 234.666667 98.133333 98.133333 145.066667 98.133333 234.666667H810.666667c0-51.2-12.8-106.666667-29.866667-157.866667-25.6-46.933333-55.466667-89.6-93.866667-128zM802.133333 153.6c-46.933333-42.666667-110.933333-68.266667-179.2-68.266667v72.533334c102.4 0 183.466667 72.533333 183.466667 157.866666 0 55.466667-34.133333 110.933333-93.866667 140.8l29.866667 64c85.333333-38.4 136.533333-119.466667 136.533333-204.8 0-59.733333-25.6-115.2-76.8-162.133333z" p-id="15406" fill="#ffffff"></path><path d="M934.4 597.333333c-59.733333-72.533333-140.8-123.733333-230.4-140.8l-12.8 72.533334c72.533333 12.8 140.8 55.466667 187.733333 115.2 51.2 59.733333 76.8 136.533333 76.8 217.6H1024c0-98.133333-34.133333-192-89.6-264.533334z" p-id="15407" fill="#ffffff"></path></svg>