<?xml version="1.0" standalone="no"?><!DOCTYPE svg PUBLIC "-//W3C//DTD SVG 1.1//EN" "http://www.w3.org/Graphics/SVG/1.1/DTD/svg11.dtd"><svg t="1608344800955" class="icon" viewBox="0 0 1024 1024" version="1.1" xmlns="http://www.w3.org/2000/svg" p-id="6668" xmlns:xlink="http://www.w3.org/1999/xlink" width="32" height="32"><defs><style type="text/css"></style></defs><path d="M483.2 752l-3.2 140.8h64c-32-41.6-54.4-89.6-60.8-140.8z" p-id="6669"></path><path d="M528 870.4h-195.2v64h256c-25.6-19.2-44.8-41.6-60.8-64zM480 726.4H96V153.6h832v316.8c25.6 16 44.8 35.2 64 57.6V163.2c0-41.6-32-73.6-73.6-73.6H105.6C64 89.6 32 121.6 32 163.2v553.6c0 41.6 32 73.6 73.6 73.6h387.2c-6.4-19.2-9.6-41.6-12.8-64z" p-id="6670"></path><path d="M768 486.4c-124.8 0-224 99.2-224 224s99.2 224 224 224 224-99.2 224-224-99.2-224-224-224z m105.6 291.2c-6.4 6.4-19.2-22.4-19.2-19.2-3.2 9.6-6.4 19.2-16 28.8 0 0 12.8 6.4 16 16 3.2 9.6 9.6 25.6-35.2 28.8-25.6 3.2-44.8-12.8-48-12.8h-12.8s-9.6 12.8-48 12.8c-28.8 0-38.4-19.2-32-28.8 6.4-9.6 16-12.8 16-16-6.4-9.6-12.8-16-16-25.6 0-3.2 0-3.2-3.2-6.4 0-3.2-9.6 25.6-19.2 19.2-9.6-6.4-9.6-22.4-3.2-38.4 6.4-16 19.2-32 19.2-35.2v-19.2c3.2-6.4 6.4-3.2 6.4-9.6 0-48 35.2-89.6 83.2-89.6 44.8 0 83.2 38.4 83.2 89.6 0 3.2 6.4 0 6.4 9.6v19.2c0 3.2 12.8 9.6 19.2 35.2 12.8 25.6 6.4 38.4 3.2 41.6z" p-id="6671"></path><path d="M310.4 534.4c-9.6 0-16-3.2-22.4-9.6l-83.2-83.2c-12.8-12.8-12.8-32 0-44.8L288 316.8c12.8-12.8 32-12.8 44.8 0 12.8 12.8 12.8 32 0 44.8l-60.8 60.8 60.8 60.8c12.8 12.8 12.8 32 0 44.8-6.4 3.2-16 6.4-22.4 6.4zM470.4 531.2c-6.4 0-9.6 0-16-3.2-16-9.6-22.4-28.8-12.8-44.8l83.2-153.6c9.6-16 28.8-22.4 44.8-12.8 16 9.6 22.4 28.8 12.8 44.8l-83.2 153.6c-6.4 9.6-16 16-28.8 16zM752 422.4c3.2 3.2 9.6 0 16 0 19.2 0 38.4 3.2 57.6 6.4 3.2-9.6 0-22.4-6.4-28.8L736 316.8c-12.8-12.8-32-12.8-44.8 0-12.8 12.8-12.8 32 0 44.8l60.8 60.8z" p-id="6672"></path></svg>