<?xml version="1.0" standalone="no"?><!DOCTYPE svg PUBLIC "-//W3C//DTD SVG 1.1//EN" "http://www.w3.org/Graphics/SVG/1.1/DTD/svg11.dtd"><svg t="1608549167796" class="icon" viewBox="0 0 1024 1024" version="1.1" xmlns="http://www.w3.org/2000/svg" p-id="25191" xmlns:xlink="http://www.w3.org/1999/xlink" width="32" height="32"><defs><style type="text/css"></style></defs><path d="M1024 521.6c-3.2 16-6.4 41.6-12.8 64-12.8 54.4-48 89.6-102.4 108.8-54.4 19.2-108.8 22.4-163.2 3.2-92.8-28.8-131.2-92.8-124.8-192 0-22.4 3.2-44.8 9.6-64 16-60.8 57.6-92.8 115.2-108.8s112-12.8 169.6 6.4c60.8 22.4 96 67.2 102.4 131.2 3.2 12.8 3.2 28.8 6.4 51.2z m-140.8-9.6c0-19.2-3.2-38.4-3.2-57.6 0-19.2-12.8-28.8-28.8-35.2-9.6-3.2-19.2-3.2-25.6-3.2-38.4 0-57.6 12.8-57.6 44.8-3.2 35.2-3.2 70.4 0 105.6 3.2 38.4 28.8 54.4 67.2 48 28.8-3.2 41.6-16 44.8-48 0-19.2 0-35.2 3.2-54.4zM518.4 348.8c3.2-19.2 3.2-19.2 25.6-22.4h44.8c6.4 0 9.6 3.2 9.6 9.6 0 35.2 0 70.4 3.2 105.6 0 12.8-3.2 16-16 12.8h-54.4c-3.2 0-9.6-3.2-12.8-3.2-25.6-32-57.6-44.8-96-48h-28.8c-9.6 0-19.2 3.2-19.2 12.8 0 9.6 9.6 12.8 16 16 32 9.6 60.8 19.2 92.8 28.8 12.8 3.2 25.6 6.4 41.6 12.8 51.2 16 86.4 64 89.6 108.8 0 57.6-38.4 105.6-99.2 118.4-54.4 12.8-108.8 3.2-160-22.4-3.2 0-3.2-3.2-6.4-3.2h-3.2v6.4c0 19.2 0 19.2-19.2 19.2H272c-6.4 0-12.8 0-12.8-9.6v-121.6c0-6.4 3.2-9.6 9.6-9.6h57.6c3.2 0 9.6 3.2 9.6 6.4 19.2 32 51.2 44.8 86.4 51.2 16 3.2 35.2 0 51.2-3.2 6.4 0 19.2-3.2 16-12.8 0-6.4-9.6-12.8-16-12.8-44.8-16-89.6-25.6-131.2-41.6-19.2-6.4-38.4-16-54.4-32-57.6-48-48-140.8 19.2-176 54.4-28.8 112-25.6 166.4-6.4 19.2 3.2 32 9.6 44.8 16z" p-id="25192"></path><path d="M185.6 419.2v176c0 12.8 3.2 16 16 16h32c6.4 0 9.6 3.2 9.6 9.6v73.6c0 6.4-3.2 9.6-9.6 9.6H12.8c-6.4 0-9.6-3.2-9.6-9.6v-73.6c-3.2-9.6 0-12.8 6.4-12.8h41.6v-188.8c-16 0-35.2 0-51.2-3.2v-86.4c0-3.2 6.4-6.4 9.6-6.4h217.6c9.6 0 12.8 3.2 12.8 12.8v70.4c0 9.6-3.2 9.6-12.8 9.6-12.8 3.2-25.6 3.2-41.6 3.2zM137.6 281.6c92.8-131.2 214.4-195.2 371.2-192 147.2 3.2 259.2 73.6 345.6 192-12.8 3.2-19.2 3.2-25.6-6.4-22.4-25.6-48-51.2-70.4-76.8-6.4-6.4-9.6-6.4-19.2-3.2-9.6 6.4-22.4 12.8-32 19.2 16 22.4 32 41.6 48 64-12.8 6.4-19.2 3.2-25.6-3.2-9.6-16-22.4-28.8-35.2-44.8-3.2-3.2-6.4-6.4-12.8-3.2-19.2 9.6-41.6 16-64 25.6 3.2 9.6 6.4 19.2 12.8 28.8-9.6 3.2-16 3.2-19.2-6.4-9.6-19.2-9.6-19.2-32-16-22.4 3.2-48 6.4-73.6 9.6 0 12.8-3.2 19.2-16 12.8-3.2-16-3.2-16-22.4-16-22.4-3.2-44.8-3.2-64-9.6-12.8-3.2-16 3.2-19.2 12.8-3.2 9.6-6.4 19.2-19.2 16 0 0-3.2 0-3.2-3.2 3.2-9.6 6.4-19.2 12.8-28.8-22.4-9.6-44.8-16-64-22.4-3.2 0-9.6 3.2-9.6 3.2-16 16-28.8 28.8-38.4 44.8-6.4 6.4-12.8 9.6-25.6 6.4 16-22.4 28.8-41.6 44.8-64-9.6-9.6-22.4-16-35.2-22.4-3.2 0-9.6 3.2-9.6 3.2-32 22.4-54.4 48-73.6 73.6-6.4 9.6-12.8 12.8-25.6 6.4z m348.8-28.8V176c0-3.2-3.2-12.8-6.4-12.8-9.6 0-25.6-6.4-28.8 0-19.2 22.4-35.2 51.2-54.4 76.8 0 3.2 3.2 3.2 3.2 6.4 28.8 0 57.6 3.2 86.4 6.4z m105.6-12.8c0-3.2 0-3.2 3.2-6.4-16-25.6-35.2-51.2-51.2-73.6 0-3.2-6.4-3.2-9.6-3.2-9.6 0-19.2 3.2-25.6 3.2v89.6c25.6-3.2 54.4-6.4 83.2-9.6z m86.4-25.6c-25.6-25.6-54.4-44.8-80-64-16-9.6-25.6-6.4-38.4 3.2 16 25.6 32 51.2 51.2 76.8 0 3.2 6.4 3.2 9.6 3.2 16-6.4 35.2-12.8 57.6-19.2z m-243.2-67.2c-9.6-3.2-19.2-6.4-25.6-3.2-35.2 16-64 41.6-92.8 70.4 22.4 6.4 41.6 12.8 60.8 19.2 3.2 0 6.4-3.2 6.4-3.2 16-25.6 32-51.2 51.2-83.2z m147.2-32c-48-16-144-12.8-172.8 0 48 38.4 124.8 35.2 172.8 0z m-188.8 9.6c-9.6 0-16-3.2-22.4 0-32 12.8-60.8 28.8-89.6 41.6-9.6 3.2-16 9.6-25.6 16 16 9.6 25.6 12.8 35.2 19.2h9.6c28.8-25.6 60.8-48 92.8-76.8z m339.2 57.6c-38.4-28.8-76.8-48-121.6-57.6-3.2 0-9.6 3.2-12.8 3.2l96 76.8c12.8-9.6 25.6-16 38.4-22.4zM758.4 739.2c-16 22.4-32 41.6-44.8 64 12.8 6.4 25.6 16 38.4 22.4 3.2 0 9.6-3.2 9.6-3.2 22.4-25.6 48-48 70.4-73.6 6.4-9.6 12.8-9.6 25.6-6.4-80 115.2-185.6 185.6-326.4 195.2-166.4 9.6-294.4-57.6-390.4-192 12.8-3.2 19.2-3.2 25.6 6.4 22.4 25.6 48 51.2 70.4 76.8 6.4 6.4 9.6 6.4 16 3.2 9.6-6.4 22.4-12.8 32-19.2-16-22.4-32-41.6-48-64 12.8-12.8 19.2-12.8 25.6-3.2 9.6 16 22.4 28.8 32 41.6 3.2 3.2 9.6 6.4 12.8 3.2 22.4-6.4 44.8-16 67.2-25.6-3.2-9.6-9.6-19.2-12.8-32 12.8-3.2 16 0 22.4 9.6 9.6 22.4 6.4 16 28.8 12.8 19.2-3.2 41.6-6.4 60.8-6.4 12.8 0 19.2-3.2 16-16h16c-3.2 19.2 9.6 16 22.4 16l76.8 9.6c6.4-9.6 9.6-19.2 16-25.6 3.2-3.2 9.6 0 16 0-3.2 12.8-9.6 22.4-12.8 32 19.2 6.4 38.4 12.8 54.4 22.4 12.8 6.4 19.2 3.2 25.6-6.4 9.6-12.8 19.2-22.4 25.6-35.2 6.4-6.4 16-9.6 28.8-6.4z m-355.2 41.6c0 3.2-3.2 3.2-3.2 6.4 16 25.6 35.2 51.2 51.2 76.8 3.2 6.4 32 3.2 35.2 0v-3.2-86.4c-25.6 0-54.4 3.2-83.2 6.4z m195.2 6.4s0-3.2-3.2-3.2l-86.4-9.6v70.4c0 19.2 0 22.4 19.2 22.4 6.4 0 12.8 0 16-3.2 19.2-25.6 35.2-51.2 54.4-76.8z m-281.6 22.4c25.6 25.6 54.4 44.8 83.2 64 16 9.6 25.6 6.4 38.4-3.2-19.2-28.8-35.2-54.4-54.4-86.4-22.4 9.6-44.8 19.2-67.2 25.6z m246.4 64c12.8 9.6 22.4 12.8 35.2 0 6.4-6.4 12.8-6.4 19.2-12.8 19.2-16 41.6-32 60.8-48v-6.4l-57.6-19.2c-3.2 0-6.4 0-6.4 3.2-19.2 28.8-35.2 54.4-51.2 83.2z m25.6 35.2c-44.8-38.4-144-32-176 0 57.6 12.8 115.2 12.8 176 0z m147.2-67.2c-12.8-6.4-25.6-12.8-35.2-19.2-3.2 0-6.4 0-9.6 3.2-28.8 25.6-60.8 48-89.6 73.6 6.4 0 12.8 3.2 16 3.2 44.8-16 83.2-32 118.4-60.8zM393.6 896c-32-25.6-60.8-48-89.6-73.6-3.2-3.2-6.4-3.2-9.6 0-12.8 6.4-22.4 12.8-35.2 19.2 38.4 28.8 76.8 48 121.6 57.6 3.2 3.2 9.6 0 12.8-3.2z" p-id="25193"></path></svg>