<?xml version="1.0" standalone="no"?><!DOCTYPE svg PUBLIC "-//W3C//DTD SVG 1.1//EN" "http://www.w3.org/Graphics/SVG/1.1/DTD/svg11.dtd"><svg t="1608549181727" class="icon" viewBox="0 0 1024 1024" version="1.1" xmlns="http://www.w3.org/2000/svg" p-id="25317" xmlns:xlink="http://www.w3.org/1999/xlink" width="32" height="32"><defs><style type="text/css"></style></defs><path d="M633.6 220.8c3.2 3.2 6.4 3.2 9.6 3.2 9.6 0 19.2-6.4 22.4-16L726.4 64c6.4-12.8 0-25.6-12.8-32-12.8-6.4-25.6 0-32 12.8L620.8 192c-6.4 9.6 0 25.6 12.8 28.8z m-275.2-12.8c3.2 9.6 12.8 16 22.4 16h9.6c12.8-6.4 19.2-19.2 12.8-32l-57.6-144c-3.2-12.8-19.2-19.2-28.8-12.8-12.8 3.2-19.2 16-12.8 28.8l54.4 144z m-310.4 140.8l140.8 60.8c3.2 0 6.4 3.2 9.6 3.2 9.6 0 19.2-6.4 22.4-12.8 6.4-12.8 0-25.6-12.8-32l-140.8-64c-12.8-6.4-25.6 0-32 12.8-6.4 12.8 0 25.6 12.8 32z m140.8 281.6l-140.8 57.6c-12.8 6.4-19.2 19.2-12.8 32 3.2 9.6 9.6 16 19.2 16 3.2 0 6.4 0 9.6-3.2l140.8-57.6c12.8-6.4 19.2-19.2 12.8-32-3.2-9.6-16-16-28.8-12.8z m787.2 60.8l-140.8-60.8c-12.8-6.4-25.6 0-32 12.8-6.4 12.8 0 25.6 12.8 32l140.8 60.8c3.2 0 6.4 3.2 9.6 3.2 9.6 0 19.2-6.4 22.4-12.8 6.4-16 0-28.8-12.8-35.2z m-150.4-278.4c3.2 0 6.4 0 9.6-3.2l140.8-57.6c12.8-6.4 19.2-19.2 12.8-32-3.2-12.8-19.2-19.2-28.8-12.8l-140.8 57.6c-12.8 6.4-19.2 19.2-12.8 32 3.2 9.6 9.6 16 19.2 16z m-192 102.4c0-9.6-6.4-19.2-16-19.2-19.2 0-28.8 19.2-28.8 35.2v3.2h28.8c9.6 3.2 16-6.4 16-19.2z m-230.4-19.2c-9.6 0-16 9.6-16 19.2s9.6 19.2 16 19.2h28.8v-6.4c0-9.6-6.4-32-28.8-32z m80 89.6c3.2 76.8 3.2 204.8 3.2 256h51.2c0-51.2 0-179.2 3.2-256h-57.6z" p-id="25318"></path><path d="M512 236.8c-73.6 0-144 28.8-195.2 80-51.2 51.2-80 121.6-80 198.4 0 83.2 35.2 163.2 99.2 214.4 9.6 6.4 25.6 32 25.6 112h83.2c0-73.6 0-188.8-3.2-256h-32c-35.2 0-64-32-64-67.2s28.8-67.2 64-67.2c38.4 0 70.4 28.8 76.8 76.8v12.8h60.8v-12.8c6.4-44.8 35.2-73.6 76.8-73.6 35.2 0 64 28.8 64 67.2 0 35.2-28.8 67.2-64 67.2h-32c0 67.2-3.2 182.4-3.2 256h80c0-80 16-105.6 25.6-112 64-51.2 99.2-128 99.2-211.2 0-76.8-28.8-147.2-80-198.4-57.6-57.6-128-86.4-201.6-86.4z m-153.6 736c0 9.6 6.4 19.2 16 19.2h272c9.6 0 16-6.4 16-19.2v-86.4h-307.2l3.2 86.4z" p-id="25319"></path></svg>