<?xml version="1.0" standalone="no"?><!DOCTYPE svg PUBLIC "-//W3C//DTD SVG 1.1//EN" "http://www.w3.org/Graphics/SVG/1.1/DTD/svg11.dtd"><svg t="1608549154354" class="icon" viewBox="0 0 1024 1024" version="1.1" xmlns="http://www.w3.org/2000/svg" p-id="24940" xmlns:xlink="http://www.w3.org/1999/xlink" width="32" height="32"><defs><style type="text/css"></style></defs><path d="M492.8 979.2c6.4-35.2 12.8-70.4 16-105.6 12.8-83.2 28.8-169.6 41.6-252.8 6.4-28.8 9.6-60.8 16-89.6 0-3.2 3.2-6.4 6.4-9.6 76.8-57.6 150.4-124.8 208-201.6 12.8-16 22.4-35.2 35.2-54.4 3.2-3.2 3.2-6.4 6.4-9.6 9.6 16 16 32 22.4 51.2 12.8 51.2 12.8 102.4 6.4 153.6-6.4 64-22.4 124.8-48 185.6-9.6 22.4-22.4 41.6-35.2 57.6-38.4 54.4-86.4 102.4-144 140.8-3.2 3.2-3.2 6.4-3.2 9.6v115.2c0 9.6-3.2 9.6-9.6 9.6h-118.4z m128-323.2v28.8c0 22.4 0 22.4 22.4 22.4 3.2 0 9.6-3.2 12.8-6.4 25.6-32 48-64 70.4-96 0-3.2 3.2-3.2 3.2-6.4 3.2-16 3.2-32 3.2-44.8 0-9.6-6.4-16-16-9.6-28.8 22.4-60.8 41.6-89.6 64-3.2 3.2-6.4 6.4-6.4 12.8v35.2z" p-id="24941"></path><path d="M342.4 992c41.6-137.6 64-281.6 83.2-422.4-12.8 0-25.6 3.2-35.2 3.2 0-9.6 0-19.2 3.2-32 3.2-35.2 3.2-70.4 6.4-102.4 0-3.2 0-6.4 6.4-9.6 70.4-22.4 128-64 179.2-115.2 76.8-76.8 137.6-166.4 185.6-265.6 0-3.2 3.2-6.4 6.4-12.8 3.2 9.6 6.4 16 9.6 25.6 19.2 48 12.8 99.2-6.4 147.2-19.2 57.6-54.4 105.6-92.8 150.4-44.8 51.2-92.8 96-147.2 137.6-3.2 3.2-6.4 6.4-6.4 12.8-9.6 60.8-19.2 124.8-28.8 185.6-12.8 73.6-25.6 147.2-35.2 220.8-3.2 22.4-6.4 44.8-12.8 70.4 0 6.4-3.2 9.6-9.6 9.6-32 0-67.2 0-99.2 3.2-3.2-6.4-3.2-6.4-6.4-6.4zM345.6 851.2c-25.6-3.2-51.2-9.6-73.6-19.2-60.8-28.8-89.6-76.8-96-140.8-3.2-44.8 3.2-86.4 22.4-124.8 25.6-51.2 70.4-80 121.6-102.4 6.4-3.2 9.6-3.2 16-6.4h3.2V576c0 6.4-3.2 9.6-6.4 12.8-32 28.8-48 64-41.6 108.8 3.2 25.6 22.4 41.6 51.2 44.8 6.4 0 6.4 3.2 6.4 6.4v99.2c-3.2 0-3.2 0-3.2 3.2z" p-id="24942"></path></svg>