<?xml version="1.0" standalone="no"?><!DOCTYPE svg PUBLIC "-//W3C//DTD SVG 1.1//EN" "http://www.w3.org/Graphics/SVG/1.1/DTD/svg11.dtd"><svg t="1608549190334" class="icon" viewBox="0 0 1024 1024" version="1.1" xmlns="http://www.w3.org/2000/svg" p-id="25443" xmlns:xlink="http://www.w3.org/1999/xlink" width="32" height="32"><defs><style type="text/css"></style></defs><path d="M387.2 259.2m-80 0a80 80 0 1 0 160 0 80 80 0 1 0-160 0Z" p-id="25444"></path><path d="M32 230.4s28.8 19.2 38.4 76.8 25.6 99.2 25.6 99.2 25.6 102.4 121.6 105.6c0 0 54.4 0 73.6-6.4 0 0-12.8-83.2-57.6-144 0 0-32-41.6-80-64 0 0 51.2 3.2 96 54.4s60.8 108.8 60.8 108.8 28.8 99.2 22.4 156.8c-6.4 57.6-16 131.2-16 131.2l147.2-32s16-128 35.2-160c0 0 76.8-265.6 268.8-336 0 0-89.6 60.8-140.8 150.4-51.2 89.6-64 108.8-83.2 198.4 0 0 115.2 32 188.8 3.2 76.8-28.8 89.6-67.2 89.6-67.2s44.8-54.4 67.2-214.4c0 0 19.2-92.8 28.8-118.4 9.6-25.6 25.6-48 44.8-60.8 0 0-169.6-22.4-380.8 147.2 0 0-112 96-176 233.6 0 0-32-124.8-188.8-217.6 3.2 0-92.8-44.8-185.6-44.8z" p-id="25445"></path><path d="M992 620.8c-12.8-44.8-99.2-64-224-54.4h3.2c76.8-3.2 128 9.6 134.4 35.2 12.8 51.2-140.8 134.4-348.8 188.8-201.6 54.4-380.8 57.6-393.6 9.6-6.4-25.6 25.6-57.6 86.4-89.6-96 51.2-153.6 105.6-140.8 147.2 19.2 70.4 233.6 76.8 476.8 12.8 243.2-67.2 425.6-179.2 406.4-249.6z" p-id="25446"></path></svg>