<?xml version="1.0" standalone="no"?><!DOCTYPE svg PUBLIC "-//W3C//DTD SVG 1.1//EN" "http://www.w3.org/Graphics/SVG/1.1/DTD/svg11.dtd"><svg t="1608549162260" class="icon" viewBox="0 0 1027 1024" version="1.1" xmlns="http://www.w3.org/2000/svg" p-id="25066" xmlns:xlink="http://www.w3.org/1999/xlink" width="32.09375" height="32"><defs><style type="text/css"></style></defs><path d="M1027.2 374.4c-3.2 9.6-3.2 22.4-6.4 32-9.6 44.8-28.8 83.2-54.4 121.6-35.2 51.2-83.2 92.8-134.4 128-57.6 38.4-121.6 67.2-188.8 89.6-3.2 0-3.2 0-6.4 3.2 6.4 38.4 12.8 76.8 19.2 118.4-41.6 12.8-86.4 28.8-128 41.6 3.2-262.4 3.2-524.8 6.4-787.2 32 195.2 64 387.2 96 582.4h3.2c48-22.4 96-48 137.6-80 41.6-32 76.8-67.2 105.6-112 44.8-70.4 54.4-144 32-224-16-54.4-51.2-92.8-99.2-121.6-38.4-22.4-80-35.2-121.6-44.8-19.2-3.2-41.6-6.4-60.8-9.6 25.6-3.2 51.2-3.2 73.6-6.4 41.6-3.2 86.4 0 128 12.8 41.6 9.6 83.2 28.8 115.2 57.6 44.8 38.4 70.4 83.2 76.8 140.8 0 6.4 3.2 16 3.2 25.6 3.2 9.6 3.2 22.4 3.2 32zM364.8 918.4c-3.2 0-3.2-3.2-3.2-6.4 3.2-22.4 6.4-44.8 9.6-64 9.6-64 19.2-124.8 32-188.8 6.4-44.8 16-89.6 22.4-131.2 9.6-57.6 19.2-115.2 28.8-169.6 9.6-48 16-96 22.4-147.2 6.4-32 9.6-67.2 16-99.2v800c0 3.2 0 6.4-6.4 6.4H364.8zM374.4 435.2c-16 9.6-32 19.2-44.8 28.8-12.8 6.4-12.8 6.4-6.4 19.2 6.4 16 12.8 28.8 19.2 44.8-3.2-3.2-3.2-3.2-6.4-3.2-16-9.6-32-22.4-48-32-3.2-3.2-6.4-3.2-9.6 0-12.8 9.6-28.8 22.4-44.8 32 0 0-3.2 3.2-6.4 3.2 0-3.2 0-3.2 3.2-6.4l19.2-48c3.2-6.4 0-6.4-3.2-9.6-16-9.6-32-16-44.8-25.6 0 0-3.2-3.2-6.4-3.2h64c6.4 0 6.4 0 9.6-6.4 3.2-16 9.6-32 12.8-48 0-3.2 0-3.2 3.2-6.4 0 3.2 3.2 6.4 3.2 6.4 6.4 16 9.6 32 16 51.2 0 3.2 3.2 6.4 6.4 6.4 19.2 0 38.4-3.2 57.6-3.2 3.2-3.2 3.2-3.2 6.4 0zM166.4 793.6c3.2-6.4 6.4-12.8 6.4-19.2 3.2-6.4 6.4-16 9.6-22.4 3.2-3.2 3.2-6.4-3.2-9.6-12.8-6.4-22.4-12.8-32-19.2-3.2 0-3.2-3.2-6.4-3.2h51.2c3.2 0 3.2 0 6.4-3.2 3.2-9.6 6.4-22.4 9.6-32 0-3.2 3.2-6.4 3.2-9.6 0 3.2 3.2 6.4 3.2 6.4 3.2 12.8 9.6 25.6 12.8 38.4 0 3.2 3.2 3.2 6.4 3.2 12.8 0 25.6-3.2 41.6-3.2h6.4c-9.6 6.4-16 9.6-25.6 16-6.4 3.2-9.6 6.4-16 9.6-3.2 3.2-3.2 3.2-3.2 6.4 6.4 12.8 9.6 25.6 16 35.2 0 0 0 3.2 3.2 6.4-3.2-3.2-3.2-3.2-6.4-3.2-12.8-9.6-22.4-16-35.2-25.6-3.2-3.2-6.4-3.2-9.6 0-9.6 9.6-22.4 16-32 25.6-3.2 0-3.2 0-6.4 3.2zM99.2 403.2c3.2-6.4 6.4-16 9.6-22.4 3.2-3.2 0-6.4-3.2-9.6-6.4-3.2-16-9.6-22.4-12.8h28.8c3.2 0 6.4 0 6.4-3.2 3.2-6.4 3.2-16 6.4-25.6 0 3.2 3.2 6.4 3.2 6.4 0 9.6 3.2 16 3.2 22.4 0 3.2 3.2 3.2 6.4 3.2H163.2l-3.2 3.2c-6.4 3.2-12.8 6.4-19.2 12.8-3.2 3.2-3.2 3.2-3.2 6.4 3.2 6.4 6.4 12.8 9.6 22.4l-3.2-3.2c-6.4-3.2-12.8-6.4-16-12.8-3.2-3.2-6.4-3.2-9.6 0-6.4 3.2-12.8 9.6-19.2 12.8zM67.2 592c-6.4-6.4-16-9.6-22.4-16-3.2-3.2-6.4-3.2-9.6 0-6.4 6.4-12.8 9.6-22.4 12.8 3.2-6.4 3.2-9.6 6.4-16 6.4-12.8 6.4-12.8-6.4-19.2-3.2-3.2-9.6-6.4-12.8-9.6h19.2c12.8 0 12.8 0 16-12.8 0-6.4 3.2-9.6 6.4-16 3.2 9.6 6.4 16 6.4 25.6 0 6.4 3.2 6.4 9.6 6.4h25.6c-3.2 3.2-9.6 6.4-12.8 9.6-12.8 6.4-12.8 6.4-6.4 19.2 3.2 6.4 3.2 12.8 3.2 16 3.2 0 0 0 0 0z" p-id="25067"></path></svg>