<svg t="1594265222491" class="icon" viewBox="0 0 1024 1024" version="1.1" xmlns="http://www.w3.org/2000/svg" p-id="12580" width="24" height="24"><path d="M732.8 185.6H67.2C48 185.6 32 169.6 32 150.4s16-35.2 35.2-35.2h665.6c19.2 0 35.2 16 35.2 35.2s-16 35.2-35.2 35.2zM761.6 390.4h6.4V384c0-19.2-16-35.2-35.2-35.2H67.2c-19.2 0-35.2 16-35.2 35.2 0 19.2 16 35.2 35.2 35.2h566.4c38.4-19.2 80-28.8 128-28.8zM489.6 585.6H67.2c-19.2 0-35.2 16-35.2 35.2 0 19.2 16 35.2 35.2 35.2h406.4c3.2-25.6 6.4-48 16-70.4zM508.8 819.2H67.2c-19.2 0-35.2 16-35.2 35.2 0 19.2 16 35.2 35.2 35.2h499.2c-22.4-19.2-41.6-41.6-57.6-70.4zM761.6 448c-128 0-230.4 102.4-230.4 230.4s102.4 230.4 230.4 230.4 230.4-102.4 230.4-230.4-102.4-230.4-230.4-230.4z m92.8 188.8V672h-73.6v32h73.6v35.2h-73.6v73.6h-41.6v-73.6h-73.6V704h73.6v-32h-73.6v-35.2h60.8L659.2 544H704l54.4 76.8 54.4-76.8h44.8l-67.2 92.8h64z" fill="#23B5FA" p-id="12581"></path></svg>