<?xml version="1.0" standalone="no"?><!DOCTYPE svg PUBLIC "-//W3C//DTD SVG 1.1//EN" "http://www.w3.org/Graphics/SVG/1.1/DTD/svg11.dtd"><svg t="1603268452877" class="icon" viewBox="0 0 1024 1024" version="1.1" xmlns="http://www.w3.org/2000/svg" p-id="2878" xmlns:xlink="http://www.w3.org/1999/xlink" width="16" height="16"><defs><style type="text/css"></style></defs><path d="M476.8 224z" fill="#2394FB" p-id="2879"></path><path d="M652.8 188.8c92.8 0 169.6 57.6 198.4 137.6-16-22.4-38.4-35.2-67.2-35.2-25.6 0-48 9.6-60.8 28.8l-80 102.4-118.4-195.2c38.4-22.4 83.2-38.4 128-38.4" fill="#23B5FA" p-id="2880"></path><path d="M800 793.6H153.6c-19.2 0-32-12.8-32-32s12.8-32 32-32H800c19.2 0 32 12.8 32 32s-12.8 32-32 32zM476.8 950.4h-73.6c-19.2 0-32-12.8-32-32s12.8-32 32-32h73.6c19.2 0 32 12.8 32 32s-12.8 32-32 32zM950.4 950.4h-297.6c-19.2 0-32-12.8-32-32s12.8-32 32-32h297.6c19.2 0 32 12.8 32 32s-16 32-32 32zM960 672c-9.6 0-22.4-6.4-25.6-16l-147.2-230.4-124.8 156.8c-6.4 9.6-16 12.8-25.6 12.8-9.6 0-19.2-6.4-25.6-16L361.6 185.6 92.8 640c-9.6 16-28.8 19.2-44.8 9.6-16-9.6-19.2-28.8-12.8-44.8l297.6-499.2c6.4-9.6 16-16 25.6-16 9.6 0 22.4 6.4 25.6 16l256 403.2 124.8-156.8c6.4-9.6 16-12.8 25.6-12.8 9.6 0 19.2 6.4 25.6 16l172.8 268.8c9.6 16 6.4 35.2-9.6 44.8-6.4 3.2-12.8 3.2-19.2 3.2z" fill="#333333" p-id="2881"></path><path d="M908.8 576c-6.4 0-9.6 0-16-3.2-16-9.6-19.2-28.8-12.8-44.8 22.4-38.4 35.2-83.2 35.2-131.2 0-144-115.2-259.2-259.2-259.2-80 0-153.6 35.2-204.8 99.2-9.6 12.8-32 16-44.8 6.4-12.8-9.6-16-32-6.4-44.8 60.8-80 153.6-124.8 256-124.8 179.2 0 323.2 144 323.2 323.2 0 57.6-16 115.2-44.8 163.2-3.2 12.8-12.8 16-25.6 16z" fill="#333333" p-id="2882"></path></svg>