<?xml version="1.0" standalone="no"?><!DOCTYPE svg PUBLIC "-//W3C//DTD SVG 1.1//EN" "http://www.w3.org/Graphics/SVG/1.1/DTD/svg11.dtd"><svg class="icon" width="200px" height="200.00px" viewBox="0 0 1024 1024" version="1.1" xmlns="http://www.w3.org/2000/svg"><path d="M412.8 752l105.6-102.4 51.2 51.2 163.2-166.4 134.4 134.4v144H412.8z" fill="#23B5FA" /><path d="M470.4 604.8c-16 0-28.8-6.4-41.6-16-9.6-9.6-16-25.6-16-41.6s6.4-28.8 16-41.6c9.6-9.6 25.6-16 41.6-16s28.8 6.4 38.4 16c9.6 9.6 16 25.6 16 41.6s-6.4 28.8-16 41.6-22.4 16-38.4 16z" fill="#333333" /><path d="M979.2 374.4c-12.8-12.8-28.8-19.2-44.8-19.2H345.6c-19.2 0-32 6.4-44.8 19.2-12.8 12.8-19.2 28.8-19.2 44.8v448c0 19.2 6.4 32 19.2 44.8 12.8 12.8 28.8 19.2 44.8 19.2h585.6c19.2 0 32-6.4 44.8-19.2 12.8-12.8 19.2-28.8 19.2-44.8v-448c3.2-16-3.2-32-16-44.8z m-41.6 48v448s0 3.2-3.2 3.2H345.6s-3.2 0-3.2-3.2V419.2s0-3.2 3.2-3.2H934.4s3.2 0 3.2 3.2v3.2z" fill="#333333" /><path d="M230.4 768v-28.8h-16s-3.2 0-3.2-3.2V288s0-3.2 3.2-3.2H800s3.2 0 3.2 3.2v19.2H864V288c0-19.2-6.4-32-19.2-44.8-9.6-12.8-25.6-19.2-44.8-19.2H214.4c-19.2 0-32 6.4-44.8 19.2-12.8 12.8-19.2 28.8-19.2 44.8v448c0 19.2 6.4 32 19.2 44.8 12.8 12.8 25.6 19.2 44.8 19.2h25.6l-3.2-9.6c-3.2-6.4-6.4-12.8-6.4-22.4z" fill="#333333" /><path d="M108.8 636.8V608h-19.2s-3.2 0-3.2-3.2l-3.2-3.2v-448s0-3.2 3.2-3.2H678.4l3.2 3.2v16h60.8v-12.8c0-19.2-6.4-32-19.2-44.8-12.8-12.8-28.8-19.2-44.8-19.2H89.6c-19.2 0-32 6.4-44.8 19.2-12.8 9.6-19.2 25.6-19.2 44.8v448c0 19.2 6.4 32 19.2 44.8 12.8 12.8 28.8 19.2 44.8 19.2h25.6l-3.2-9.6c-3.2-6.4-3.2-16-3.2-22.4z" fill="#333333" /></svg>