<?xml version="1.0" standalone="no"?><!DOCTYPE svg PUBLIC "-//W3C//DTD SVG 1.1//EN" "http://www.w3.org/Graphics/SVG/1.1/DTD/svg11.dtd"><svg t="1584331691101" class="icon" viewBox="0 0 1024 1024" version="1.1" xmlns="http://www.w3.org/2000/svg" p-id="16014" xmlns:xlink="http://www.w3.org/1999/xlink" width="300" height="300"><defs><style type="text/css"></style></defs><path d="M512 64C268.8 64 64 268.8 64 512s198.4 448 448 448c243.2 0 448-198.4 448-448s-204.8-448-448-448z m64 710.4c0 19.2-32 38.4-64 38.4s-64-19.2-64-38.4V435.2c0-19.2 32-38.4 64-38.4s64 19.2 64 38.4v339.2z m-64-448c-38.4 0-64-25.6-64-57.6s32-57.6 64-57.6 64 25.6 64 57.6-25.6 57.6-64 57.6z" p-id="16015"></path></svg>