<?xml version="1.0" standalone="no"?><!DOCTYPE svg PUBLIC "-//W3C//DTD SVG 1.1//EN" "http://www.w3.org/Graphics/SVG/1.1/DTD/svg11.dtd"><svg t="1604916668278" class="icon" viewBox="0 0 1024 1024" version="1.1" xmlns="http://www.w3.org/2000/svg" p-id="5455" xmlns:xlink="http://www.w3.org/1999/xlink" width="200" height="200"><defs><style type="text/css"></style></defs><path d="M220.8 320c-22.4 0-41.6-19.2-41.6-41.6 0-22.4 19.2-41.6 41.6-41.6 22.4 0 41.6 19.2 41.6 41.6 0 22.4-19.2 41.6-41.6 41.6z m99.2-73.6h268.8v60.8H320z m-99.2 371.2c-22.4 0-41.6-19.2-41.6-41.6 0-22.4 19.2-41.6 41.6-41.6 22.4 0 41.6 19.2 41.6 41.6 0 22.4-19.2 41.6-41.6 41.6z" p-id="5456"></path><path d="M768 486.4c-124.8 0-224 99.2-224 224s99.2 224 224 224 224-99.2 224-224-99.2-224-224-224z m83.2 326.4c-22.4 19.2-51.2 32-83.2 32h-9.6c-38.4-3.2-73.6-22.4-96-54.4v22.4c0 9.6-6.4 16-16 16s-16-6.4-16-16v-73.6H704c9.6 0 16 6.4 16 16s-6.4 16-16 16h-22.4c16 25.6 44.8 44.8 76.8 48h6.4c22.4 0 44.8-9.6 64-22.4 19.2-16 32-41.6 35.2-67.2 0-6.4 6.4-12.8 16-12.8s12.8 6.4 12.8 16c0 28.8-16 57.6-41.6 80z m51.2-131.2h-73.6c-9.6 0-16-6.4-16-16s6.4-16 16-16h22.4c-9.6-16-22.4-28.8-38.4-35.2-6.4-3.2-16-6.4-25.6-6.4h-16c-19.2 0-41.6 6.4-57.6 19.2-22.4 16-35.2 38.4-41.6 64 0 6.4-6.4 12.8-16 12.8h-3.2c-9.6 0-12.8-9.6-12.8-16 6.4-35.2 25.6-64 54.4-83.2 22.4-16 48-25.6 76.8-25.6 6.4 0 16 0 22.4 3.2 12.8 3.2 22.4 6.4 32 9.6 19.2 9.6 35.2 22.4 48 41.6V608c0-9.6 6.4-16 16-16s16 6.4 16 16v73.6z" fill="#23B5FA" p-id="5457"></path><path d="M531.2 547.2H320V608h179.2c9.6-22.4 19.2-44.8 32-60.8z m192-121.6v-28.8H454.4v60.8h172.8c28.8-16 60.8-25.6 96-32zM864 438.4c0-3.2 3.2-6.4 3.2-9.6 0-22.4-19.2-41.6-41.6-41.6-22.4 0-38.4 16-41.6 35.2 25.6 3.2 54.4 6.4 80 16zM483.2 752L480 892.8h64c-32-41.6-54.4-89.6-60.8-140.8z" p-id="5458"></path><path d="M528 870.4H332.8v64h256c-25.6-19.2-44.8-41.6-60.8-64z m-48-144H96V153.6h832v316.8c25.6 16 44.8 35.2 64 57.6V163.2c0-41.6-32-73.6-73.6-73.6H105.6c-41.6 0-73.6 32-73.6 73.6v553.6c0 41.6 32 73.6 73.6 73.6h387.2c-6.4-19.2-9.6-41.6-12.8-64z" p-id="5459"></path></svg>