<?xml version="1.0" standalone="no"?><!DOCTYPE svg PUBLIC "-//W3C//DTD SVG 1.1//EN" "http://www.w3.org/Graphics/SVG/1.1/DTD/svg11.dtd"><svg t="1604916526069" class="icon" viewBox="0 0 1024 1024" version="1.1" xmlns="http://www.w3.org/2000/svg" p-id="5075" xmlns:xlink="http://www.w3.org/1999/xlink" width="200" height="200"><defs><style type="text/css"></style></defs><path d="M732.8 185.6H67.2c-19.2 0-35.2-16-35.2-35.2s16-35.2 35.2-35.2h665.6c19.2 0 35.2 16 35.2 35.2s-16 35.2-35.2 35.2z m28.8 204.8h6.4V384c0-19.2-16-35.2-35.2-35.2H67.2C48 348.8 32 364.8 32 384c0 19.2 16 35.2 35.2 35.2h566.4c38.4-19.2 80-28.8 128-28.8z m-272 195.2H67.2c-19.2 0-35.2 16-35.2 35.2C32 640 48 656 67.2 656h406.4c3.2-25.6 6.4-48 16-70.4z m19.2 233.6H67.2c-19.2 0-35.2 16-35.2 35.2 0 19.2 16 35.2 35.2 35.2h499.2c-22.4-19.2-41.6-41.6-57.6-70.4z" p-id="5076"></path><path d="M761.6 448c-128 0-230.4 102.4-230.4 230.4s102.4 230.4 230.4 230.4S992 806.4 992 678.4 889.6 448 761.6 448z m153.6 262.4H726.4V521.6H768v147.2h147.2v41.6z" fill="#23B5FA" p-id="5077"></path></svg>