<?xml version="1.0" standalone="no"?><!DOCTYPE svg PUBLIC "-//W3C//DTD SVG 1.1//EN" "http://www.w3.org/Graphics/SVG/1.1/DTD/svg11.dtd"><svg t="1604916466480" class="icon" viewBox="0 0 1024 1024" version="1.1" xmlns="http://www.w3.org/2000/svg" p-id="4949" xmlns:xlink="http://www.w3.org/1999/xlink" width="200" height="200"><defs><style type="text/css"></style></defs><path d="M482.24 28.8h59.84v112.96h-59.84zM55.36 455.36h112.96v59.84H55.36zM277.44 213.12l2.24-2.24-77.44-77.76-2.56-2.24-42.24 42.24 80 80zM866.24 173.12l-39.68-40-2.24-2.24-77.76 77.76-2.24 2.24 42.24 42.24zM375.36 935.36h272.96v59.84h-272.96zM512 188.8c-78.4 0-152.32 31.04-208.96 87.68-56.64 56.32-87.68 130.56-87.68 208.96 0 119.04 59.84 217.28 160 263.36v139.84h272.96V748.8c100.16-46.08 160-144.32 160-263.36 0-78.4-31.04-152.32-87.68-208.96C664.32 219.84 590.4 188.8 512 188.8z m78.4 523.2l-1.6 0.96v115.84h-153.6v-115.84l-28.48-16.96C324.48 654.72 275.2 576 275.2 485.44c0-63.68 24.64-123.2 69.12-167.68 44.48-44.48 104-69.12 167.68-69.12s123.2 24.64 167.68 69.12a235.424 235.424 0 0 1 69.12 167.68c0 90.56-49.28 169.28-131.84 210.56l-26.56 16zM855.36 455.36h112.96v59.84h-112.96z" p-id="4950"></path><path d="M410.24 498.24v53.44h74.88v187.52h53.76v-187.52h74.88v-53.44z" fill="#23B5FA" p-id="4951"></path></svg>