<?xml version="1.0" standalone="no"?><!DOCTYPE svg PUBLIC "-//W3C//DTD SVG 1.1//EN" "http://www.w3.org/Graphics/SVG/1.1/DTD/svg11.dtd"><svg t="1604916710346" class="icon" viewBox="0 0 1024 1024" version="1.1" xmlns="http://www.w3.org/2000/svg" p-id="5583" xmlns:xlink="http://www.w3.org/1999/xlink" width="200" height="200"><defs><style type="text/css"></style></defs><path d="M424 409.6h94.4v60.16h-94.4zM186.24 409.6h180.48v180.48H186.24zM424 530.88h94.4v60.16h-94.4z" fill="#23B5FA" p-id="5584"></path><path d="M417.28 725.12h64v141.12h-64v-141.12z" p-id="5585"></path><path d="M518.4 702.08H97.28V128.32h736v132.8h64V138.24c0-40.64-32.96-73.92-73.92-73.92H107.2c-40.64 0-73.92 32.96-73.92 73.92v553.92c0 40.64 32.96 73.92 73.92 73.92H518.4v-64z" p-id="5586"></path><path d="M990.4 393.28a62.72 62.72 0 0 0-17.28-47.68c-11.84-12.8-28.8-20.16-45.76-20.16h-280c-35.2 0-65.28 30.72-65.28 67.52v499.52c0 36.48 29.76 67.52 65.28 67.52h277.76c35.2 0 65.28-30.72 65.28-67.52v-499.2z m-356.16-0.64c0-7.36 5.76-13.12 13.12-13.12h29.44l13.12 18.56c7.36 12.48 22.4 20.48 38.08 20.48h117.12c15.68 0 30.72-8 38.08-20.16l13.44-19.2h28.8c7.36 0 13.12 5.76 13.12 13.12l2.24 499.52c0 7.36-5.76 13.12-13.12 13.12h-280c-7.36 0-13.12-5.76-13.12-13.12v-499.2z" p-id="5587"></path><path d="M832 816h-91.2c-11.2 0-20.16 8.96-20.16 20.16s8.96 20.16 20.16 20.16H832c11.2 0 20.16-8.96 20.16-20.16s-8.96-20.16-20.16-20.16zM518.4 844.8H293.12c-17.6 0-32 14.4-32 32s14.4 32 32 32h224.96v-64z" p-id="5588"></path><path d="M518.4 328.64c0-36.48 29.76-67.52 65.28-67.52h161.28v-21.44H186.24v114.24H518.4v-25.28z" fill="#23B5FA" p-id="5589"></path></svg>