<?xml version="1.0" standalone="no"?><!DOCTYPE svg PUBLIC "-//W3C//DTD SVG 1.1//EN" "http://www.w3.org/Graphics/SVG/1.1/DTD/svg11.dtd"><svg t="1604916372389" class="icon" viewBox="0 0 1024 1024" version="1.1" xmlns="http://www.w3.org/2000/svg" p-id="4823" xmlns:xlink="http://www.w3.org/1999/xlink" width="200" height="200"><defs><style type="text/css"></style></defs><path d="M595.2 268.8c25.6-22.4 41.6-54.4 41.6-89.6 0-64-51.2-115.2-115.2-115.2s-115.2 51.2-115.2 115.2c0 35.2 16 67.2 41.6 89.6-64 25.6-108.8 80-108.8 147.2 0 16 12.8 28.8 28.8 28.8s28.8-12.8 28.8-28.8c0-57.6 57.6-105.6 128-105.6s128 48 128 105.6c0 16 12.8 28.8 28.8 28.8s28.8-12.8 28.8-28.8c-6.4-67.2-51.2-121.6-115.2-147.2zM521.6 240c-35.2 0-60.8-28.8-60.8-60.8s28.8-60.8 60.8-60.8 60.8 28.8 60.8 60.8-25.6 60.8-60.8 60.8zM288 787.2c25.6-22.4 41.6-54.4 41.6-89.6 0-64-51.2-115.2-115.2-115.2S99.2 633.6 99.2 697.6c0 35.2 16 67.2 41.6 89.6-64 25.6-108.8 80-108.8 147.2 0 12.8 12.8 25.6 28.8 25.6s28.8-12.8 28.8-28.8c0-57.6 57.6-105.6 128-105.6s128 48 128 105.6c0 16 12.8 28.8 28.8 28.8s28.8-12.8 28.8-28.8c-6.4-64-51.2-118.4-115.2-144z m-73.6-28.8c-35.2 0-60.8-28.8-60.8-60.8s28.8-60.8 60.8-60.8 60.8 28.8 60.8 60.8-28.8 60.8-60.8 60.8z m668.8 28.8c25.6-22.4 41.6-54.4 41.6-89.6 0-64-51.2-115.2-115.2-115.2s-115.2 51.2-115.2 115.2c0 35.2 16 67.2 41.6 89.6-64 25.6-108.8 80-108.8 147.2 0 16 12.8 28.8 28.8 28.8s28.8-12.8 28.8-28.8c0-57.6 57.6-105.6 128-105.6s128 48 128 105.6c0 16 12.8 28.8 28.8 28.8s28.8-12.8 28.8-28.8c-6.4-67.2-51.2-121.6-115.2-147.2z m-73.6-28.8c-35.2 0-60.8-28.8-60.8-60.8s28.8-60.8 60.8-60.8 60.8 28.8 60.8 60.8-25.6 60.8-60.8 60.8z" p-id="4824"></path><path d="M636.8 665.6c12.8-12.8 6.4-35.2-12.8-48L553.6 576v-83.2c0-19.2-12.8-35.2-35.2-35.2-19.2 0-35.2 12.8-35.2 35.2V576L416 617.6c-12.8 6.4-19.2 28.8-12.8 48 6.4 12.8 28.8 19.2 48 12.8l67.2-41.6 67.2 41.6c16 9.6 38.4 9.6 51.2-12.8z" fill="#23B5FA" p-id="4825"></path></svg>