<?xml version="1.0" standalone="no"?><!DOCTYPE svg PUBLIC "-//W3C//DTD SVG 1.1//EN" "http://www.w3.org/Graphics/SVG/1.1/DTD/svg11.dtd"><svg t="1604916576850" class="icon" viewBox="0 0 1024 1024" version="1.1" xmlns="http://www.w3.org/2000/svg" p-id="5201" xmlns:xlink="http://www.w3.org/1999/xlink" width="200" height="200"><defs><style type="text/css"></style></defs><path d="M345.6 579.2c64 0 115.2-64 115.2-121.6H345.6V342.4c-57.6 3.2-112 51.2-112 118.4-3.2 67.2 48 118.4 112 118.4z" fill="#23B5FA" p-id="5202"></path><path d="M819.2 137.6H566.4V80h-112v57.6H64V224h57.6v380.8c0 48 38.4 86.4 83.2 86.4h246.4L268.8 905.6l41.6 38.4 204.8-243.2L713.6 944l41.6-38.4-176-214.4h240c44.8 0 83.2-38.4 83.2-86.4V224H960v-86.4H819.2zM848 604.8c0 16-12.8 28.8-28.8 28.8H204.8c-16 0-28.8-12.8-28.8-28.8V224h672v380.8z" p-id="5203"></path><path d="M393.6 284.8V400H496c0-60.8-41.6-115.2-102.4-115.2z m176 54.4h224v57.6h-224z m0 118.4h224v57.6h-224z" p-id="5204"></path></svg>