<?xml version="1.0" standalone="no"?><!DOCTYPE svg PUBLIC "-//W3C//DTD SVG 1.1//EN" "http://www.w3.org/Graphics/SVG/1.1/DTD/svg11.dtd"><svg t="1568881394978" class="icon" viewBox="0 0 1024 1024" version="1.1" xmlns="http://www.w3.org/2000/svg" p-id="2118" xmlns:xlink="http://www.w3.org/1999/xlink" width="200" height="200"><defs><style type="text/css"></style></defs><path d="M265.309091 872.727273H372.363636v-72.145455h-100.072727c-16.290909 0-30.254545-9.309091-37.236364-23.272727v53.527273c-2.327273 23.272727 11.636364 41.890909 30.254546 41.890909z m507.345454 0c16.290909 0 32.581818-20.945455 32.581819-44.218182v-51.2c-6.981818 13.963636-20.945455 23.272727-37.236364 23.272727h-97.745455-2.327272v72.145455h104.727272z m0 0" fill="#23B8FF" p-id="2119"></path><path d="M930.909091 381.672727L572.509091 114.036364c-32.581818-25.6-79.127273-25.6-111.709091 0l-27.927273 20.945454c-11.636364 9.309091-13.963636 27.927273-4.654545 39.563637 9.309091 11.636364 27.927273 13.963636 39.563636 4.654545l27.927273-20.945455c13.963636-9.309091 32.581818-9.309091 44.218182 0l358.4 267.636364c4.654545 4.654545 11.636364 4.654545 16.290909 4.654546 9.309091 0 16.290909-4.654545 23.272727-11.636364 9.309091-11.636364 4.654545-27.927273-6.981818-37.236364z m-549.236364-146.618182c6.981818 0 11.636364-2.327273 16.290909-4.654545l4.654546-4.654545c13.963636-9.309091 16.290909-27.927273 6.981818-39.563637-9.309091-11.636364-27.927273-13.963636-39.563636-4.654545l-4.654546 4.654545c-11.636364 9.309091-13.963636 27.927273-4.654545 39.563637 4.654545 4.654545 13.963636 9.309091 20.945454 9.30909z m-37.236363 0c-9.309091-11.636364-27.927273-13.963636-39.563637-4.654545L93.090909 388.654545c-11.636364 9.309091-13.963636 27.927273-4.654545 39.563637 4.654545 6.981818 13.963636 11.636364 23.272727 11.636363 6.981818 0 11.636364-2.327273 16.290909-4.654545l211.781818-158.254545c9.309091-11.636364 13.963636-27.927273 4.654546-41.89091z m486.4 214.109091c-16.290909 0-27.927273 11.636364-27.927273 27.927273v353.745455c0 23.272727-13.963636 44.218182-32.581818 44.218181h-107.054546V607.418182c0-16.290909-11.636364-27.927273-27.927272-27.927273H400.290909c-16.290909 0-27.927273 11.636364-27.927273 27.927273v265.309091h-107.054545c-16.290909 0-32.581818-20.945455-32.581818-44.218182V477.090909c0-16.290909-11.636364-27.927273-27.927273-27.927273s-27.927273 11.636364-27.927273 27.927273v353.745455c0 55.854545 39.563636 100.072727 88.436364 100.072727h507.345454c48.872727 0 88.436364-44.218182 88.436364-100.072727V477.090909c-2.327273-16.290909-13.963636-27.927273-30.254545-27.927273z m-221.090909 186.181819v237.381818h-181.527273V635.345455h181.527273z m0 0" fill="#909399" p-id="2120"></path></svg>