<?xml version="1.0" standalone="no"?><!DOCTYPE svg PUBLIC "-//W3C//DTD SVG 1.1//EN" "http://www.w3.org/Graphics/SVG/1.1/DTD/svg11.dtd"><svg t="1619490785983" class="icon" viewBox="0 0 1024 1024" version="1.1" xmlns="http://www.w3.org/2000/svg" p-id="30070" xmlns:xlink="http://www.w3.org/1999/xlink" width="200" height="200"><defs><style type="text/css"></style></defs><path d="M817.152 158.208H221.184c-30.72 0-55.808 25.088-55.808 55.808v123.392c0 15.36 12.8 28.16 28.16 28.16s28.16-12.8 28.16-28.16l-0.512-122.88 595.456-0.512 0.512 595.456-595.456 0.512v-151.552c0-15.36-12.8-28.16-28.16-28.16s-28.16 12.8-28.16 28.16v151.552c0 30.72 25.088 55.808 55.808 55.808h595.968c30.72 0 55.808-25.088 55.808-55.808V214.016c0-30.72-25.088-55.808-55.808-55.808z" p-id="30071"></path><path d="M594.432 538.112l-105.472 109.568c-10.752 11.264-10.24 29.184 0.512 39.936a28.3648 28.3648 0 0 0 39.936-1.024l152.576-158.208a28.16 28.16 0 0 0 0-39.424L529.408 332.8a28.2624 28.2624 0 0 0-40.448 39.424l106.496 109.568H184.832c-15.36 0-28.16 12.8-28.16 28.16 0 15.36 12.8 28.16 28.16 28.16h409.6z" p-id="30072"></path></svg>