<?xml version="1.0" standalone="no"?><!DOCTYPE svg PUBLIC "-//W3C//DTD SVG 1.1//EN" "http://www.w3.org/Graphics/SVG/1.1/DTD/svg11.dtd"><svg t="1584432557019" class="icon" viewBox="0 0 1024 1024" version="1.1" xmlns="http://www.w3.org/2000/svg" p-id="16966" xmlns:xlink="http://www.w3.org/1999/xlink" width="300" height="300"><defs><style type="text/css"></style></defs><path d="M517.12 788.48c51.2 0 97.28-35.84 112.64-81.92 0-5.12 0-5.12-5.12-10.24-5.12 0-5.12 0-10.24 5.12 0 0-20.48 30.72-87.04 40.96h-30.72c-51.2 0-71.68-20.48-71.68-20.48h-10.24s-5.12 5.12 0 10.24c20.48 30.72 61.44 56.32 102.4 56.32z" p-id="16967"></path><path d="M896 348.16C855.04 168.96 696.32 35.84 506.88 35.84c-194.56 0-358.4 143.36-394.24 327.68-35.84 5.12-61.44 35.84-61.44 76.8v148.48c0 40.96 35.84 76.8 76.8 76.8 25.6 0 46.08-10.24 56.32-25.6 30.72 87.04 97.28 158.72 184.32 194.56 0 0 0-5.12 5.12-5.12l5.12-5.12h5.12c-20.48-15.36-92.16-92.16-107.52-194.56-5.12-46.08 25.6-92.16 66.56-97.28 66.56-10.24 128-25.6 194.56-35.84 40.96-5.12 71.68-30.72 87.04-66.56 5.12-10.24 10.24-25.6 10.24-51.2 0-5.12 5.12-5.12 10.24-5.12 0 0 5.12 0 5.12 5.12 25.6 35.84 76.8 117.76 81.92 204.8 10.24 97.28 5.12 168.96-71.68 235.52v5.12s0 5.12 5.12 5.12h5.12c76.8-40.96 133.12-112.64 163.84-199.68 10.24 15.36 30.72 25.6 46.08 30.72-30.72 143.36-163.84 235.52-322.56 250.88-10.24-25.6-35.84-40.96-61.44-40.96-35.84 0-66.56 30.72-66.56 66.56 0 35.84 30.72 66.56 66.56 66.56 30.72 0 51.2-20.48 61.44-46.08 184.32-15.36 337.92-128 368.64-296.96 30.72-10.24 46.08-40.96 46.08-71.68V424.96c0-40.96-35.84-76.8-76.8-76.8z m-66.56 46.08c-46.08-133.12-174.08-225.28-322.56-225.28S230.4 261.12 184.32 389.12c0-5.12-5.12-5.12-10.24-10.24C204.8 225.28 337.92 102.4 506.88 102.4c163.84 0 302.08 117.76 327.68 276.48 0 5.12-5.12 10.24-5.12 15.36z" p-id="16968"></path></svg>