<?xml version="1.0" standalone="no"?><!DOCTYPE svg PUBLIC "-//W3C//DTD SVG 1.1//EN" "http://www.w3.org/Graphics/SVG/1.1/DTD/svg11.dtd"><svg class="icon" width="200px" height="200.00px" viewBox="0 0 1024 1024" version="1.1" xmlns="http://www.w3.org/2000/svg"><path fill="#23B8FF" d="M918.4 89.6H105.6C64 89.6 32 121.6 32 163.2v553.6c0 41.6 32 73.6 73.6 73.6H480v80h-147.2v64h358.4v-64H544v-80h374.4c41.6 0 73.6-32 73.6-73.6V163.2c0-41.6-32-73.6-73.6-73.6z m9.6 636.8H96V153.6h832v572.8z"  /><path fill="#23B8FF" d="M700.8 329.6c9.6-28.8 9.6-83.2-38.4-89.6-41.6-6.4-89.6 22.4-115.2 38.4-9.6 0-16-3.2-25.6-3.2-67.2 0-108.8 22.4-144 67.2-12.8 16-25.6 48-28.8 80 19.2-32 73.6-89.6 134.4-112 0 0-89.6 64-134.4 156.8-3.2 3.2-3.2 9.6-6.4 12.8-44.8 108.8-9.6 153.6 25.6 163.2 28.8 9.6 73.6-6.4 105.6-44.8 57.6 12.8 115.2-3.2 137.6-12.8 41.6-22.4 67.2-60.8 73.6-102.4h-112s-6.4 35.2-64 35.2c-54.4 0-57.6-64-57.6-64h233.6s3.2-67.2-28.8-115.2c-19.2-19.2-44.8-41.6-80-54.4 9.6-9.6 28.8-19.2 44.8-25.6 28.8-9.6 51.2-3.2 64 19.2 16 28.8-9.6 99.2-9.6 99.2s16-19.2 25.6-48z m-243.2 268.8c-44.8 38.4-83.2 32-99.2 9.6-12.8-19.2-16-54.4 0-105.6 6.4 19.2 19.2 38.4 35.2 54.4 16 19.2 38.4 32 64 41.6z m-3.2-198.4s3.2-44.8 51.2-48c41.6-3.2 64 16 70.4 51.2l-121.6-3.2z"  /></svg>