<svg xmlns="http://www.w3.org/2000/svg" width="24.553" height="23.793" viewBox="0 0 24.553 23.793">
  <defs>
    <style>
      .cls-1 {
        fill: #555;
      }

      .cls-2 {
        fill: #19a0f1;
      }
    </style>
  </defs>
  <g id="kefu1" transform="translate(-144.64 -171.2)">
    <path id="路径_3" data-name="路径 3" class="cls-1" d="M166.97,178.941a10.384,10.384,0,0,0-20.084,0,3.175,3.175,0,0,0-2.245,3.027v3.507a3.189,3.189,0,0,0,3.184,3.184h.19a3.189,3.189,0,0,0,3.184-3.184v-3.507a3.187,3.187,0,0,0-2.379-3.072,8.534,8.534,0,0,1,16.219,0,3.187,3.187,0,0,0-2.379,3.072v3.507a3.173,3.173,0,0,0,1.687,2.793,8.407,8.407,0,0,1-4.356,3.195,2.35,2.35,0,0,0-2.1-1.307h-1.932a2.357,2.357,0,0,0-2.357,2.357v.123a2.357,2.357,0,0,0,2.357,2.357h1.932a2.342,2.342,0,0,0,2.245-1.687,10.23,10.23,0,0,0,6.1-4.613.067.067,0,0,0,.011-.045,3.18,3.18,0,0,0,2.949-3.161v-3.507A3.131,3.131,0,0,0,166.97,178.941Zm-17.593,3.027v3.507a1.368,1.368,0,0,1-1.363,1.363h-.19a1.368,1.368,0,0,1-1.363-1.363v-3.507a1.368,1.368,0,0,1,1.363-1.363h.19A1.368,1.368,0,0,1,149.376,181.968Zm9.048,10.668a.544.544,0,0,1-.536.536h-1.932a.544.544,0,0,1-.536-.536v-.123a.544.544,0,0,1,.536-.536h1.932a.544.544,0,0,1,.536.536Zm8.97-7.16a1.368,1.368,0,0,1-1.363,1.363h-.19a1.368,1.368,0,0,1-1.363-1.363v-3.507a1.368,1.368,0,0,1,1.363-1.363h.19a1.368,1.368,0,0,1,1.363,1.363Z" transform="translate(0 0)"/>
    <path id="路径_4" data-name="路径 4" class="cls-2" d="M397.224,543.885a3.7,3.7,0,0,1-3.541-2.67.785.785,0,0,1,1.508-.436,2.131,2.131,0,0,0,4.088,0,.785.785,0,1,1,1.508.436A3.743,3.743,0,0,1,397.224,543.885Z" transform="translate(-240.319 -356.13)"/>
  </g>
</svg>
