<?xml version="1.0" standalone="no"?><!DOCTYPE svg PUBLIC "-//W3C//DTD SVG 1.1//EN" "http://www.w3.org/Graphics/SVG/1.1/DTD/svg11.dtd"><svg t="1619490761171" class="icon" viewBox="0 0 1024 1024" version="1.1" xmlns="http://www.w3.org/2000/svg" p-id="29689" xmlns:xlink="http://www.w3.org/1999/xlink" width="200" height="200"><defs><style type="text/css"></style></defs><path d="M362.496 242.688c61.44 0 100.352 46.08 100.352 46.08l42.496 56.832 50.176-50.176 2.048-2.048 0.512-1.024c13.824-14.848 51.2-49.152 104.96-49.152 29.184 0 59.904 10.24 91.648 30.208 35.328 22.528 53.248 49.152 54.272 82.944 5.632 125.44-187.392 317.952-294.4 407.04-157.184-131.072-303.616-300.544-299.52-407.04 1.024-20.48 7.168-51.2 54.784-82.432 32.256-20.48 63.488-31.232 92.672-31.232m0-61.44c-36.352 0-78.848 10.752-125.44 40.448C180.224 260.096 155.648 305.152 153.6 354.304c-7.68 205.312 358.4 486.4 359.936 488.448 13.312-9.216 365.568-284.672 356.352-488.448-2.048-49.152-26.624-96.256-82.944-132.096-46.08-29.184-88.064-39.424-124.416-39.424-90.624 0-146.944 65.536-151.04 69.632-3.584-5.632-58.88-71.168-148.992-71.168z" p-id="29690"></path></svg>