<?xml version="1.0" standalone="no"?><!DOCTYPE svg PUBLIC "-//W3C//DTD SVG 1.1//EN" "http://www.w3.org/Graphics/SVG/1.1/DTD/svg11.dtd"><svg t="1584673874968" class="icon" viewBox="0 0 1024 1024" version="1.1" xmlns="http://www.w3.org/2000/svg" p-id="7092" xmlns:xlink="http://www.w3.org/1999/xlink" width="300" height="300"><defs><style type="text/css"></style></defs><path d="M512 64c-121.6 0-230.4 44.8-313.6 128C115.2 281.6 64 390.4 64 512s44.8 230.4 128 313.6 198.4 128 313.6 128 230.4-44.8 313.6-128 128-198.4 128-313.6c0-121.6-44.8-230.4-128-313.6C742.4 115.2 633.6 64 512 64m275.2 723.2c-76.8 76.8-172.8 115.2-275.2 115.2s-204.8-38.4-275.2-115.2C160 716.8 121.6 614.4 121.6 512s38.4-204.8 115.2-275.2C307.2 160 409.6 121.6 512 121.6s204.8 38.4 275.2 115.2c76.8 76.8 115.2 172.8 115.2 275.2s-38.4 204.8-115.2 275.2" p-id="7093"></path><path d="M704 544H518.4V268.8c0-12.8-12.8-25.6-25.6-25.6s-25.6 12.8-25.6 25.6V576c0 6.4 0 6.4 6.4 12.8s12.8 19.2 25.6 19.2H704c19.2 0 32-12.8 32-32s-12.8-32-32-32z" p-id="7094"></path></svg>