<svg t="1594265110521" class="icon" viewBox="0 0 1024 1024" version="1.1" xmlns="http://www.w3.org/2000/svg" p-id="12175" width="24" height="24"><path d="M595.2 508.8l-86.4-86.4-54.4 147.2 140.8-60.8z m278.4-275.2l-89.6-92.8-262.4 256 92.8 96 259.2-259.2z m76.8-70.4c12.8-12.8 0-41.6 0-41.6s-25.6-25.6-51.2-44.8c-28.8-19.2-48 0-48 0l-48 48L896 217.6l54.4-54.4zM761.6 512v169.6c0 76.8-64 140.8-140.8 140.8h-169.6v-60.8h169.6c44.8 0 80-35.2 80-80V512M220.8 288c0 16 12.8 28.8 28.8 28.8s28.8-12.8 28.8-28.8c0-19.2-12.8-32-28.8-32s-28.8 12.8-28.8 32zM220.8 368h60.8v230.4H220.8z" fill="#23B5FA" p-id="12176"></path><path d="M790.4 956.8H179.2c-60.8 0-108.8-48-108.8-108.8V233.6c0-60.8 48-108.8 108.8-108.8h361.6c19.2 0 32 12.8 32 32s-12.8 32-32 32H179.2c-25.6 0-44.8 19.2-44.8 44.8v611.2c0 25.6 19.2 44.8 44.8 44.8h611.2c25.6 0 44.8-19.2 44.8-44.8V467.2c0-19.2 12.8-32 32-32s32 12.8 32 32v380.8c3.2 57.6-48 108.8-108.8 108.8z" fill="#23B5FA" p-id="12177"></path></svg>