<?xml version="1.0" standalone="no"?><!DOCTYPE svg PUBLIC "-//W3C//DTD SVG 1.1//EN" "http://www.w3.org/Graphics/SVG/1.1/DTD/svg11.dtd"><svg class="icon" width="16px" height="15.91px" viewBox="0 0 1030 1024" version="1.1" xmlns="http://www.w3.org/2000/svg"><path fill="#b6b6b6" d="M512 204.8c102.4 0 198.4 32 281.6 89.6 76.8 57.6 134.4 128 172.8 217.6-32 89.6-96 160-172.8 217.6-83.2 57.6-179.2 89.6-281.6 89.6-102.4 0-198.4-32-281.6-89.6-76.8-51.2-134.4-128-166.4-217.6 32-89.6 96-160 172.8-217.6C313.6 236.8 409.6 204.8 512 204.8m0-57.6c-115.2 0-217.6 32-313.6 96C108.8 307.2 38.4 396.8 0 492.8V512l6.4 12.8c38.4 102.4 108.8 192 198.4 249.6 89.6 64 198.4 96 313.6 96s217.6-32 313.6-96c89.6-64 160-153.6 198.4-249.6L1024 512l-6.4-12.8c-38.4-102.4-108.8-192-198.4-249.6-89.6-70.4-192-102.4-307.2-102.4zM512 377.6c70.4 0 134.4 57.6 134.4 134.4s-64 134.4-134.4 134.4-134.4-64-134.4-134.4 64-134.4 134.4-134.4M512 320C409.6 320 320 409.6 320 512s83.2 192 192 192 192-83.2 192-192-89.6-192-192-192z" /></svg>