<?xml version="1.0" standalone="no"?><!DOCTYPE svg PUBLIC "-//W3C//DTD SVG 1.1//EN" "http://www.w3.org/Graphics/SVG/1.1/DTD/svg11.dtd"><svg t="1584427858686" class="icon" viewBox="0 0 1024 1024" version="1.1" xmlns="http://www.w3.org/2000/svg" p-id="16557" xmlns:xlink="http://www.w3.org/1999/xlink" width="300" height="300"><defs><style type="text/css"></style></defs><path d="M422.4 182.4c0 64 51.2 115.2 115.2 115.2s115.2-51.2 115.2-115.2-51.2-115.2-115.2-115.2c-64 3.2-115.2 54.4-115.2 115.2zM185.6 284.8c0 57.6 48 105.6 105.6 105.6s105.6-48 105.6-105.6c0-57.6-48-105.6-105.6-105.6-57.6 3.2-105.6 48-105.6 105.6zM185.6 627.2c-51.2 0-92.8-41.6-92.8-92.8s41.6-92.8 92.8-92.8 92.8 41.6 92.8 92.8-41.6 92.8-92.8 92.8z" fill="#333333" p-id="16558"></path><path d="M211.2 787.2c0 44.8 35.2 80 80 80s80-35.2 80-80-35.2-80-80-80-80 35.2-80 80z" fill="#333333" opacity=".85" p-id="16559"></path><path d="M534.4 953.6c-38.4 0-67.2-28.8-70.4-70.4 0-38.4 28.8-70.4 70.4-70.4 38.4 0 67.2 28.8 67.2 70.4s-28.8 70.4-67.2 70.4z" fill="#333333" opacity=".6" p-id="16560"></path><path d="M729.6 780.8c0 32 25.6 54.4 54.4 54.4s54.4-25.6 54.4-54.4-25.6-54.4-54.4-54.4-54.4 25.6-54.4 54.4z" fill="#333333" opacity=".45" p-id="16561"></path><path d="M838.4 537.6c0 25.6 22.4 48 48 48s48-22.4 48-48-22.4-48-48-48-48 22.4-48 48z" fill="#333333" opacity=".3" p-id="16562"></path><path d="M748.8 288c0 19.2 16 35.2 35.2 35.2s35.2-16 35.2-35.2-16-35.2-35.2-35.2-35.2 16-35.2 35.2z" fill="#333333" opacity=".15" p-id="16563"></path></svg>