<?xml version="1.0" standalone="no"?><!DOCTYPE svg PUBLIC "-//W3C//DTD SVG 1.1//EN" "http://www.w3.org/Graphics/SVG/1.1/DTD/svg11.dtd"><svg t="1589770367308" class="icon" viewBox="0 0 1024 1024" version="1.1" xmlns="http://www.w3.org/2000/svg" p-id="17529" xmlns:xlink="http://www.w3.org/1999/xlink" width="300" height="300"><defs><style type="text/css"></style></defs><path d="M953.6 364.8c-38.4-38.4-89.6-57.6-147.2-57.6h-96c-32 0-51.2 25.6-51.2 51.2 0 32 25.6 51.2 51.2 51.2h96c32 0 57.6 12.8 76.8 32 12.8 12.8 32 32 32 64s-12.8 51.2-25.6 64c-19.2 19.2-51.2 32-83.2 32H569.6c-64 6.4-108.8-38.4-108.8-89.6 0-32-25.6-51.2-51.2-51.2-32 0-57.6 25.6-57.6 51.2 0 57.6 19.2 102.4 57.6 140.8 38.4 38.4 96 64 153.6 64h236.8c57.6 0 115.2-25.6 153.6-64 38.4-38.4 57.6-89.6 57.6-140.8 6.4-57.6-19.2-108.8-57.6-147.2z" p-id="17530"></path><path d="M320 601.6H224c-32 0-57.6-6.4-76.8-25.6-12.8-12.8-32-32-32-64s12.8-51.2 25.6-64c19.2-19.2 51.2-32 83.2-32h236.8c57.6 0 108.8 44.8 108.8 96 0 32 25.6 51.2 51.2 51.2 32 0 51.2-25.6 51.2-51.2 0-57.6-19.2-102.4-57.6-140.8-38.4-38.4-96-64-153.6-64H217.6c-57.6 0-115.2 25.6-153.6 64C25.6 409.6 6.4 460.8 6.4 512c0 57.6 25.6 108.8 64 147.2s89.6 57.6 147.2 57.6H320c32 0 51.2-25.6 51.2-51.2 0-38.4-25.6-64-51.2-64z" p-id="17531"></path></svg>