<?xml version="1.0" standalone="no"?><!DOCTYPE svg PUBLIC "-//W3C//DTD SVG 1.1//EN" "http://www.w3.org/Graphics/SVG/1.1/DTD/svg11.dtd"><svg t="1585106369386" class="icon" viewBox="0 0 1024 1024" version="1.1" xmlns="http://www.w3.org/2000/svg" p-id="11221" xmlns:xlink="http://www.w3.org/1999/xlink" width="300" height="300"><defs><style type="text/css"></style></defs><path d="M627.2 736c-19.2 0-32 12.8-32 32v115.2H115.2V140.8h480v121.6c0 19.2 12.8 32 32 32s32-12.8 32-32V108.8c0-19.2-12.8-32-32-32H83.2c-19.2 0-32 12.8-32 32v806.4c0 19.2 12.8 32 32 32h544c19.2 0 32-12.8 32-32V768c0-19.2-12.8-32-32-32z" p-id="11222"></path><path d="M966.4 492.8l-160-160c-12.8-12.8-32-12.8-44.8 0s-12.8 32 0 44.8l102.4 102.4H454.4c-19.2 0-32 19.2-32 32s12.8 32 32 32h416L768 646.4c-12.8 12.8-12.8 32 0 44.8 0 12.8 6.4 12.8 19.2 12.8s19.2 0 25.6-6.4l160-160c6.4-6.4 6.4-12.8 6.4-25.6s-6.4-12.8-12.8-19.2z" p-id="11223"></path></svg>