<?xml version="1.0" standalone="no"?><!DOCTYPE svg PUBLIC "-//W3C//DTD SVG 1.1//EN" "http://www.w3.org/Graphics/SVG/1.1/DTD/svg11.dtd"><svg t="1619590879383" class="icon" viewBox="0 0 8000 1024" version="1.1" xmlns="http://www.w3.org/2000/svg" p-id="14086" xmlns:xlink="http://www.w3.org/1999/xlink" width="1562.5" height="200"><defs><style type="text/css"></style></defs><path d="M1353.6 3.2H115.2l-22.4 169.6h560l-35.2 236.8H124.8l-22.4 169.6h489.6l-35.2 233.6-32 208H761.6l384-12.8h9.6c16-3.2 32-6.4 48-12.8 76.8-35.2 131.2-105.6 140.8-188.8l102.4-675.2c16-60.8-28.8-118.4-92.8-128z m-144 265.6l-60.8 387.2c-16 112-112 192-224 192h-128l96-675.2h240c44.8 0 80 35.2 80 80-3.2 9.6-3.2 12.8-3.2 16z" p-id="14087"></path><path d="M0 1024h387.2l22.4-169.6H25.6zM2761.6 0H1724.8l-22.4 144h1040zM1545.6 489.6h307.2l-275.2 380.8-19.2 150.4 838.4-6.4 163.2-6.4c44.8-3.2 80-41.6 76.8-86.4v-12.8l-35.2-201.6h-259.2l25.6 134.4-464 9.6 262.4-364.8H2784l19.2-140.8H1564.8l-19.2 144zM4134.4 0H3084.8L3072 51.2l-188.8 966.4h275.2l67.2-342.4h92.8l-48 342.4 393.6-51.2 19.2-137.6-140.8 19.2 25.6-172.8h67.2l217.6 342.4h249.6l-99.2-156.8 96-19.2 19.2-137.6-192 41.6-41.6-67.2h265.6l16-124.8h-553.6l9.6-54.4h499.2l16-112h-112l9.6-54.4h-220.8l-9.6 54.4h-166.4l9.6-54.4h-224l-9.6 54.4h-108.8l-16 112h112l-9.6 54.4h-140.8l38.4-188.8h-3.2l41.6-217.6 3.2-25.6h560l-6.4 57.6h-435.2l-22.4 124.8h672c28.8 0 51.2-19.2 54.4-48l25.6-195.2c6.4-28.8-16-57.6-44.8-60.8zM4771.2 867.2c22.4 38.4 48 89.6 57.6 121.6l32-12.8c-9.6-32-35.2-83.2-60.8-121.6l-28.8 12.8zM4841.6 617.6h-192v198.4h192v-198.4z m-32 163.2h-128v-134.4h128v134.4zM4566.4 752v-9.6h70.4v-32h-70.4v-80c25.6-6.4 48-9.6 64-19.2l-19.2-25.6c-38.4 16-105.6 28.8-160 35.2 3.2 6.4 6.4 19.2 9.6 25.6 22.4-3.2 48-6.4 73.6-12.8v73.6h-80v32h73.6c-19.2 51.2-51.2 108.8-80 140.8 6.4 9.6 12.8 22.4 16 32 22.4-28.8 48-73.6 67.2-118.4V992h32v-208c16 25.6 38.4 57.6 48 73.6l19.2-28.8c-6.4-9.6-51.2-60.8-64-76.8zM4617.6 976c6.4 3.2 22.4 12.8 28.8 19.2 28.8-32 54.4-80 70.4-128l-32-6.4c-16 41.6-38.4 86.4-67.2 115.2zM5136 726.4h163.2v-32H5120v-108.8h-32v108.8h-176v32h160c-38.4 76.8-108.8 153.6-176 192 6.4 6.4 19.2 19.2 25.6 28.8 64-38.4 124.8-108.8 166.4-182.4v230.4h35.2v-230.4c44.8 73.6 105.6 144 166.4 182.4 6.4-9.6 16-22.4 25.6-28.8-70.4-38.4-137.6-115.2-179.2-192zM5500.8 777.6h198.4v-172.8h-288v172.8h48c-28.8 41.6-70.4 76.8-115.2 102.4 9.6 6.4 19.2 16 25.6 22.4 25.6-16 51.2-35.2 73.6-57.6h60.8c-28.8 48-76.8 89.6-124.8 118.4 6.4 6.4 19.2 19.2 25.6 22.4 51.2-32 102.4-83.2 134.4-140.8h60.8c-22.4 54.4-54.4 102.4-96 131.2 9.6 3.2 22.4 16 25.6 19.2 41.6-35.2 80-89.6 102.4-153.6h54.4c-6.4 76.8-16 108.8-25.6 118.4-3.2 3.2-9.6 6.4-16 6.4-9.6 0-28.8 0-51.2-3.2 6.4 9.6 9.6 19.2 9.6 28.8h54.4c12.8 0 22.4-3.2 28.8-12.8 12.8-12.8 22.4-51.2 32-153.6v-16h-256c19.2-6.4 32-19.2 38.4-32z m-54.4-144h220.8v44.8h-220.8v-44.8z m0 115.2V704h220.8v44.8h-220.8zM5964.8 995.2h32v-16h137.6v16h32v-147.2h-201.6v147.2z m32-118.4h137.6v73.6h-137.6v-73.6z" p-id="14088"></path><path d="M6086.4 694.4l-28.8-9.6c-25.6 38.4-73.6 76.8-128 105.6l-6.4-22.4c-12.8 6.4-25.6 9.6-38.4 16v-76.8h41.6v-32h-41.6v-89.6h-32v89.6h-54.4v32h54.4V800c-19.2 9.6-38.4 16-54.4 22.4l9.6 32 44.8-19.2v121.6c0 6.4-3.2 9.6-9.6 9.6h-41.6c3.2 9.6 9.6 22.4 9.6 32 28.8 0 44.8 0 57.6-6.4 9.6-6.4 16-12.8 16-32v-134.4l35.2-16c6.4 6.4 12.8 16 19.2 19.2 19.2-9.6 38.4-22.4 54.4-35.2v25.6h140.8v-25.6c16 12.8 35.2 22.4 54.4 32 6.4-9.6 16-19.2 22.4-25.6-48-19.2-102.4-57.6-131.2-86.4 0-9.6 3.2-12.8 6.4-19.2z m41.6 89.6h-134.4c22.4-16 44.8-35.2 64-57.6 19.2 19.2 44.8 38.4 70.4 57.6z" p-id="14089"></path><path d="M6019.2 585.6h-32v44.8h-60.8v28.8h60.8V704h32v-44.8h89.6V704h28.8v-44.8h64v-28.8h-64v-44.8h-28.8v44.8h-89.6zM6409.6 976c6.4 6.4 19.2 16 25.6 19.2 25.6-19.2 54.4-48 73.6-76.8l-28.8-9.6c-16 28.8-44.8 51.2-70.4 67.2zM6569.6 912l-22.4 16c25.6 22.4 57.6 51.2 70.4 70.4l22.4-19.2c-12.8-19.2-44.8-48-70.4-67.2zM6406.4 723.2c16-16 32-38.4 41.6-60.8h198.4v-28.8H6464c6.4-12.8 9.6-28.8 12.8-41.6l-28.8-6.4c-9.6 38.4-28.8 76.8-51.2 102.4v-28.8h-153.6v28.8h44.8c-3.2 108.8-6.4 220.8-48 284.8 9.6 3.2 19.2 12.8 25.6 22.4 35.2-51.2 44.8-128 51.2-214.4h48c-3.2 121.6-6.4 163.2-12.8 172.8-3.2 6.4-6.4 6.4-12.8 6.4h-32l9.6 28.8h38.4c9.6 0 16-3.2 25.6-12.8 9.6-16 12.8-64 19.2-208v-16h-76.8c0-19.2 0-41.6 3.2-60.8h76.8c-3.2 6.4-9.6 9.6-12.8 12.8 0 3.2 9.6 12.8 16 19.2z" p-id="14090"></path><path d="M6323.2 659.2l28.8-12.8c-6.4-16-19.2-41.6-32-60.8l-28.8 9.6c12.8 19.2 25.6 44.8 32 64zM6604.8 736h32v-28.8h-32v-28.8h-28.8v28.8h-89.6v-28.8h-28.8v28.8h-28.8v28.8h28.8v137.6h-48v28.8h243.2v-28.8h-44.8V736z m-28.8 140.8h-89.6v-32h89.6v32z m0-57.6h-89.6v-32h89.6v32z m0-54.4h-89.6V736h89.6v28.8zM6697.6 652.8h172.8V992h35.2v-233.6c51.2 28.8 112 64 140.8 89.6l22.4-32c-35.2-28.8-105.6-67.2-160-92.8l-6.4 6.4v-80h188.8v-35.2h-396.8v38.4zM7452.8 902.4l22.4-19.2c-9.6-22.4-28.8-54.4-48-83.2 12.8-35.2 22.4-76.8 28.8-121.6l-28.8-3.2c-6.4 32-9.6 64-19.2 92.8-16-22.4-32-44.8-51.2-64l-22.4 16c19.2 25.6 41.6 54.4 60.8 83.2-19.2 48-41.6 89.6-73.6 121.6 6.4 3.2 19.2 12.8 25.6 19.2 28.8-28.8 51.2-64 67.2-108.8 19.2 22.4 32 48 38.4 67.2z" p-id="14091"></path><path d="M7347.2 867.2c-9.6-19.2-25.6-44.8-44.8-67.2 12.8-35.2 22.4-76.8 28.8-121.6l-32-3.2c-6.4 32-12.8 64-19.2 92.8-16-22.4-35.2-44.8-51.2-67.2l-19.2 19.2c19.2 25.6 41.6 54.4 60.8 83.2-16 48-41.6 86.4-70.4 118.4 6.4 3.2 22.4 12.8 25.6 19.2 25.6-28.8 48-64 67.2-105.6 12.8 22.4 25.6 41.6 35.2 57.6l19.2-25.6z" p-id="14092"></path><path d="M7161.6 992h32V643.2h300.8v307.2c0 6.4-3.2 9.6-12.8 9.6h-67.2c3.2 9.6 9.6 22.4 12.8 32 41.6 0 64 0 80-6.4 12.8-6.4 19.2-16 19.2-38.4V611.2h-368V992zM7641.6 720l-25.6 6.4c9.6 51.2 19.2 115.2 22.4 160l28.8-6.4c-6.4-44.8-16-108.8-25.6-160zM7708.8 652.8c-6.4-19.2-19.2-44.8-32-67.2l-28.8 9.6c12.8 22.4 25.6 51.2 28.8 67.2l32-9.6zM7596.8 668.8h172.8v32h-172.8zM7996.8 710.4v-32h-112v-92.8h-35.2V800H7776v195.2h32v-22.4h134.4v19.2h35.2v-195.2h-92.8v-89.6h112z m-51.2 118.4v112h-134.4v-112h134.4z" p-id="14093"></path><path d="M7715.2 889.6c12.8-48 22.4-115.2 32-166.4l-32-6.4c-6.4 54.4-16 131.2-28.8 179.2-35.2 9.6-70.4 16-96 22.4l9.6 32c48-12.8 108.8-28.8 169.6-41.6l-3.2-32-51.2 12.8zM4531.2 326.4c-32 0-54.4-16-70.4-32l-19.2 22.4c19.2 19.2 44.8 38.4 89.6 38.4 51.2 0 89.6-28.8 89.6-80 0-38.4-25.6-64-60.8-70.4 28.8-9.6 51.2-35.2 51.2-67.2 0-44.8-35.2-70.4-83.2-70.4-32 0-57.6 12.8-80 35.2l19.2 22.4c16-16 35.2-28.8 57.6-28.8 28.8 0 48 19.2 48 44.8 0 28.8-19.2 54.4-76.8 54.4v25.6c64 0 86.4 22.4 86.4 57.6 6.4 28.8-19.2 48-51.2 48zM4908.8 48h-35.2V128l3.2 35.2c-19.2-16-35.2-25.6-57.6-25.6-48 0-89.6 41.6-89.6 108.8 0 70.4 35.2 108.8 86.4 108.8 25.6 0 48-12.8 64-28.8l3.2 25.6h28.8V48z m-35.2 249.6c-16 19.2-35.2 28.8-54.4 28.8-38.4 0-57.6-28.8-57.6-80 0-48 25.6-80 60.8-80 16 0 32 6.4 51.2 22.4v108.8zM5088 368c-9.6 25.6-22.4 44.8-48 44.8-6.4 0-12.8-3.2-16-3.2l-6.4 28.8c6.4 3.2 16 3.2 25.6 3.2 41.6 0 64-32 76.8-73.6l80-227.2h-35.2L5126.4 256l-19.2 57.6h-3.2c-6.4-19.2-12.8-41.6-19.2-57.6l-41.6-115.2h-35.2l83.2 208-3.2 19.2zM5427.2 320l3.2 32h28.8V144h-35.2v147.2c-19.2 25.6-35.2 35.2-57.6 35.2-28.8 0-38.4-16-38.4-54.4v-128h-35.2v131.2c0 54.4 19.2 80 64 80 32 3.2 51.2-12.8 70.4-35.2zM5696 137.6c-28.8 0-51.2 16-70.4 35.2l-3.2-28.8h-28.8V352h35.2V201.6c22.4-22.4 35.2-32 57.6-32 28.8 0 38.4 16 38.4 54.4v128h35.2V220.8c-3.2-54.4-22.4-83.2-64-83.2zM6022.4 323.2h-115.2l112-160v-19.2h-144v28.8h99.2l-108.8 160v19.2h156.8zM6259.2 224v128h35.2V220.8c0-54.4-19.2-83.2-64-83.2-28.8 0-51.2 16-70.4 35.2V48h-35.2V352h35.2V201.6c22.4-22.4 35.2-32 57.6-32 28.8 0 41.6 16 41.6 54.4zM6409.6 297.6c0 38.4 25.6 57.6 60.8 57.6 25.6 0 48-12.8 70.4-28.8l3.2 25.6h28.8V224c0-51.2-22.4-86.4-73.6-86.4-32 0-64 16-83.2 28.8l12.8 25.6c16-9.6 38.4-22.4 64-22.4 35.2 0 41.6 25.6 41.6 51.2-86.4 9.6-124.8 32-124.8 76.8z m128-54.4v57.6c-19.2 19.2-38.4 28.8-57.6 28.8-19.2 0-38.4-9.6-38.4-32 0-28.8 25.6-44.8 96-54.4zM6732.8 201.6c22.4-22.4 35.2-32 57.6-32 28.8 0 38.4 16 38.4 54.4v128h35.2V220.8c0-54.4-19.2-83.2-64-83.2-28.8 0-51.2 16-70.4 35.2l-3.2-28.8h-28.8V352h35.2V201.6zM7011.2 358.4c12.8 0 25.6-9.6 25.6-25.6s-12.8-28.8-25.6-28.8-25.6 12.8-25.6 28.8c0 12.8 9.6 25.6 25.6 25.6zM7235.2 358.4c25.6 0 48-9.6 67.2-25.6l-16-22.4c-12.8 12.8-28.8 19.2-48 19.2-38.4 0-64-32-64-80s28.8-80 64-80c16 0 28.8 6.4 41.6 19.2l19.2-22.4c-16-12.8-35.2-25.6-60.8-25.6-54.4 0-99.2 41.6-99.2 108.8 0 67.2 41.6 108.8 96 108.8zM7481.6 137.6c-51.2 0-96 41.6-96 108.8 0 70.4 44.8 108.8 96 108.8s96-38.4 96-108.8c0-67.2-44.8-108.8-96-108.8z m0 188.8c-35.2 0-60.8-32-60.8-80s25.6-80 60.8-80c35.2 0 60.8 32 60.8 80s-25.6 80-60.8 80zM7728 201.6c19.2-22.4 38.4-32 51.2-32 25.6 0 38.4 16 38.4 54.4v128h35.2V201.6c19.2-22.4 35.2-32 51.2-32 25.6 0 38.4 16 38.4 54.4v128h35.2V220.8c0-54.4-19.2-83.2-64-83.2-25.6 0-48 16-67.2 38.4-9.6-25.6-25.6-38.4-57.6-38.4-25.6 0-48 16-64 35.2l-3.2-28.8h-28.8V352h35.2V201.6z" p-id="14094"></path></svg>