<?xml version="1.0" standalone="no"?><!DOCTYPE svg PUBLIC "-//W3C//DTD SVG 1.1//EN" "http://www.w3.org/Graphics/SVG/1.1/DTD/svg11.dtd"><svg t="1568709820119" class="icon" viewBox="0 0 1024 1024" version="1.1" xmlns="http://www.w3.org/2000/svg" p-id="4779" xmlns:xlink="http://www.w3.org/1999/xlink" width="200" height="200"><defs><style type="text/css"></style></defs><path d="M616.448 562.176h21.504v35.84h26.624V614.4h-55.296v-39.936L584.704 614.4h-34.816l41.984-68.608v-1.024h28.672v9.216z" p-id="4780" fill="#ffffff"></path><path d="M553.984 409.6h104.448v135.168h-29.696V436.224h-44.032v108.544h-30.72zM442.368 409.6h98.304v16.384h-98.304zM476.16 614.4h-29.696V498.688h64.512V471.04h-68.608v-30.72h98.304v88.064h-64.512z" p-id="4781" fill="#ffffff"></path><path d="M492.544 544.768H522.24V614.4h-29.696zM724.992 409.6l-31.744 52.224h36.864l14.336-26.624h15.36l13.312 26.624h37.888L779.264 409.6zM731.136 492.544h39.936v52.224h34.816v-68.608H697.344V614.4h108.544v-16.384h-74.752zM867.328 409.6v188.416H819.2V614.4h81.92V409.6z" p-id="4782" fill="#ffffff"></path><path d="M852.992 422.912H819.2v147.456h33.792z" p-id="4783" fill="#ffffff"></path><path d="M160.768 505.856l-37.888-20.48v-38.912L244.736 378.88 368.64 446.464v40.96L244.736 419.84l-83.968 47.104zM331.776 518.144l36.864 20.48v38.912L244.736 645.12 122.88 577.536v-40.96L244.736 604.16l87.04-47.104z" p-id="4784" fill="#ffffff"></path><path d="M244.736 471.04l-76.8 41.984 76.8 40.96 74.752-40.96z" p-id="4785" fill="#ffffff"></path></svg>