<?xml version="1.0" standalone="no"?><!DOCTYPE svg PUBLIC "-//W3C//DTD SVG 1.1//EN" "http://www.w3.org/Graphics/SVG/1.1/DTD/svg11.dtd"><svg t="1568881399123" class="icon" viewBox="0 0 1024 1024" version="1.1" xmlns="http://www.w3.org/2000/svg" p-id="2239" xmlns:xlink="http://www.w3.org/1999/xlink" width="200" height="200"><defs><style type="text/css"></style></defs><path d="M856.436364 318.836364l-107.054546-48.872728-337.454545 153.6 102.4 46.545455 342.109091-151.272727z m0 0" fill="#23B8FF" p-id="2240"></path><path d="M86.109091 337.454545l414.254545 190.836364c4.654545 2.327273 6.981818 2.327273 11.636364 2.327273s6.981818 0 11.636364-2.327273l414.254545-181.527273c9.309091-4.654545 16.290909-13.963636 16.290909-25.6 0-11.636364-6.981818-20.945455-16.290909-25.6L514.327273 100.072727c-6.981818-2.327273-16.290909-2.327273-23.272728 0l-65.163636 30.254546c-13.963636 6.981818-20.945455 23.272727-13.963636 37.236363 6.981818 13.963636 23.272727 20.945455 37.236363 13.963637l53.527273-23.272728 244.363636 111.709091 107.054546 48.872728L512 470.109091l-102.4-46.545455-242.036364-111.709091 102.4-46.545454c13.963636-6.981818 20.945455-23.272727 13.963637-37.236364-6.981818-13.963636-23.272727-20.945455-37.236364-13.963636l-160.581818 72.145454c-9.309091 2.327273-16.290909 13.963636-16.290909 25.6 0 9.309091 6.981818 20.945455 16.290909 25.6z m0 0" fill="#909399" p-id="2241"></path><path d="M346.763636 228.072727c4.654545 0 6.981818 0 11.636364-2.327272l9.309091-4.654546c13.963636-6.981818 20.945455-23.272727 13.963636-37.236364-6.981818-13.963636-23.272727-20.945455-37.236363-13.963636l-9.309091 4.654546c-13.963636 6.981818-20.945455 23.272727-13.963637 37.236363 2.327273 9.309091 13.963636 16.290909 25.6 16.290909zM914.618182 512L512 695.854545 111.709091 502.690909c-13.963636-6.981818-30.254545 0-37.236364 13.963636-6.981818 13.963636 0 30.254545 13.963637 37.236364l414.254545 197.818182c4.654545 2.327273 9.309091 2.327273 11.636364 2.327273 4.654545 0 6.981818 0 11.636363-2.327273l414.254546-188.509091c13.963636-6.981818 20.945455-23.272727 13.963636-37.236364-9.309091-13.963636-25.6-20.945455-39.563636-13.963636z m0 0" fill="#909399" p-id="2242"></path><path d="M914.618182 681.890909L512 865.745455 111.709091 672.581818c-13.963636-6.981818-30.254545 0-37.236364 13.963637-6.981818 13.963636 0 30.254545 13.963637 37.236363l414.254545 197.818182c4.654545 2.327273 9.309091 2.327273 11.636364 2.327273 4.654545 0 6.981818 0 11.636363-2.327273l414.254546-188.509091c13.963636-6.981818 20.945455-23.272727 13.963636-37.236364-9.309091-13.963636-25.6-20.945455-39.563636-13.963636z m0 0" fill="#909399" p-id="2243"></path></svg>