<?xml version="1.0" standalone="no"?><!DOCTYPE svg PUBLIC "-//W3C//DTD SVG 1.1//EN" "http://www.w3.org/Graphics/SVG/1.1/DTD/svg11.dtd"><svg t="1585106376836" class="icon" viewBox="0 0 1024 1024" version="1.1" xmlns="http://www.w3.org/2000/svg" p-id="11356" xmlns:xlink="http://www.w3.org/1999/xlink" width="300" height="300"><defs><style type="text/css"></style></defs><path d="M985.6 800c-6.4 19.2-12.8 32-32 32-32 0-51.2 25.6-51.2 51.2 0 6.4 0 12.8 6.4 19.2 6.4 19.2 0 38.4-12.8 44.8l-64 32c-6.4 0-12.8 6.4-19.2 6.4-12.8 0-25.6-6.4-32-12.8-6.4-6.4-32-25.6-44.8-25.6-12.8 0-38.4 19.2-44.8 25.6-12.8 12.8-32 19.2-44.8 6.4l-64-32c-19.2-12.8-19.2-32-12.8-44.8 0 0 6.4-12.8 6.4-19.2 0-25.6-25.6-51.2-51.2-51.2-12.8 0-25.6-12.8-32-32 0 0-6.4-25.6-6.4-51.2 0-19.2 6.4-44.8 6.4-51.2 6.4-19.2 12.8-32 32-32 32 0 51.2-25.6 51.2-51.2 0-6.4 0-12.8-6.4-19.2-6.4-19.2 0-38.4 12.8-44.8l64-32c12.8-6.4 32 0 44.8 6.4 6.4 6.4 25.6 25.6 44.8 25.6 12.8 0 32-19.2 44.8-25.6 12.8-12.8 32-19.2 44.8-12.8l64 32c19.2 12.8 19.2 32 12.8 44.8 0 6.4-6.4 12.8-6.4 19.2 0 32 25.6 51.2 51.2 51.2 12.8 0 25.6 12.8 32 32 0 0 6.4 25.6 6.4 51.2 6.4 32 0 57.6 0 57.6m-44.8-83.2c-51.2-6.4-89.6-51.2-89.6-102.4 0-12.8 0-19.2 6.4-32l-44.8-25.6c-6.4 6.4-12.8 12.8-19.2 12.8-19.2 12.8-38.4 19.2-57.6 19.2-19.2 0-38.4-6.4-57.6-19.2-6.4-6.4-12.8-6.4-19.2-12.8l-38.4 32c0 6.4 6.4 19.2 6.4 32 0 51.2-38.4 96-89.6 102.4v64c51.2 6.4 89.6 51.2 89.6 102.4 0 12.8 0 25.6-6.4 32l44.8 25.6c6.4-6.4 12.8-12.8 19.2-12.8 19.2-12.8 38.4-19.2 57.6-19.2 19.2 0 38.4 6.4 57.6 19.2 6.4 6.4 12.8 12.8 19.2 12.8l44.8-25.6c-6.4-12.8-6.4-19.2-6.4-32 0-51.2 38.4-96 89.6-102.4v-32c-6.4-12.8-6.4-25.6-6.4-38.4m-204.8 128c-51.2 0-96-44.8-96-96s44.8-96 96-89.6c51.2 0 89.6 44.8 89.6 89.6 6.4 57.6-38.4 96-89.6 96m0-134.4c-25.6 0-44.8 19.2-44.8 44.8 0 25.6 19.2 44.8 44.8 44.8 25.6 0 44.8-19.2 44.8-44.8 0-25.6-19.2-44.8-44.8-44.8M601.6 467.2l-19.2 12.8c-32 25.6-89.6 38.4-128 38.4h-38.4c-179.2 19.2-320 166.4-320 352v51.2h390.4c12.8 19.2 25.6 44.8 38.4 64H64c-19.2 0-32-12.8-32-32v-83.2c0-172.8 102.4-320 262.4-384l19.2-6.4-19.2-12.8c-57.6-44.8-96-115.2-96-192C198.4 140.8 307.2 32 441.6 32s243.2 108.8 243.2 243.2c6.4 76.8-25.6 147.2-83.2 192M448 96c-102.4 0-179.2 83.2-179.2 179.2 0 102.4 83.2 179.2 179.2 179.2 102.4 0 179.2-83.2 179.2-179.2 0-102.4-76.8-179.2-179.2-179.2" p-id="11357"></path></svg>