<?xml version="1.0" standalone="no"?><!DOCTYPE svg PUBLIC "-//W3C//DTD SVG 1.1//EN" "http://www.w3.org/Graphics/SVG/1.1/DTD/svg11.dtd"><svg t="1585106389042" class="icon" viewBox="0 0 1024 1024" version="1.1" xmlns="http://www.w3.org/2000/svg" p-id="11625" xmlns:xlink="http://www.w3.org/1999/xlink" width="300" height="300"><defs><style type="text/css"></style></defs><path d="M736 211.2H153.6c-64 0-121.6 64-121.6 140.8v454.4c0 76.8 51.2 140.8 121.6 140.8h582.4c64 0 121.6-64 121.6-140.8V352c0-76.8-57.6-140.8-121.6-140.8z m-582.4 64h582.4c32 0 64 38.4 64 83.2v320c-6.4-6.4-12.8-6.4-19.2-12.8-19.2-12.8-44.8-19.2-70.4-19.2-38.4 0-76.8 12.8-108.8 38.4l-19.2 19.2-217.6-230.4c-12.8-12.8-32-12.8-44.8 0l-230.4 204.8v-320c0-51.2 32-83.2 64-83.2z m582.4 614.4H153.6c-32 0-64-38.4-64-83.2v-51.2s6.4 0 6.4-6.4l243.2-217.6 224 230.4v6.4c12.8 12.8 32 6.4 44.8-6.4 0 0 44.8-64 102.4-64h6.4c32 0 51.2 19.2 83.2 57.6 0 6.4 6.4 6.4 6.4 6.4v38.4c-6.4 57.6-32 89.6-70.4 89.6z" p-id="11626"></path><path d="M838.4 70.4H339.2c-19.2 0-32 19.2-32 38.4s12.8 32 32 32h499.2c51.2 0 89.6 51.2 89.6 108.8V704c0 19.2 19.2 32 32 32 19.2 0 32-19.2 32-32V249.6c0-96-64-179.2-153.6-179.2z" p-id="11627"></path><path d="M620.8 550.4c51.2 0 102.4-44.8 102.4-102.4 0-51.2-44.8-102.4-102.4-102.4-51.2 0-102.4 44.8-102.4 102.4s44.8 102.4 102.4 102.4z m0-140.8c25.6 0 38.4 19.2 38.4 38.4 0 25.6-19.2 38.4-38.4 38.4-19.2 6.4-38.4-12.8-38.4-38.4 0-19.2 19.2-38.4 38.4-38.4z" p-id="11628"></path></svg>