<?xml version="1.0" standalone="no"?><!DOCTYPE svg PUBLIC "-//W3C//DTD SVG 1.1//EN" "http://www.w3.org/Graphics/SVG/1.1/DTD/svg11.dtd"><svg t="1594003232961" class="icon" viewBox="0 0 1024 1024" version="1.1" xmlns="http://www.w3.org/2000/svg" p-id="16865" width="32" height="32" xmlns:xlink="http://www.w3.org/1999/xlink"><defs><style type="text/css"></style></defs><path d="M512 614.4l-19.2-6.4L38.4 345.6V320c0-12.8 6.4-25.6 19.2-32L512 32l19.2 6.4 454.4 256V320c0 12.8-6.4 25.6-19.2 32L512 614.4zM128 326.4l384 217.6 384-217.6-384-217.6-384 217.6z" p-id="16866"></path><path d="M512 806.4L51.2 537.6C32 531.2 32 512 38.4 499.2c6.4-12.8 25.6-19.2 44.8-12.8L512 736l428.8-243.2c12.8-6.4 32-6.4 44.8 12.8 6.4 12.8 6.4 32-12.8 44.8l-460.8 256z" p-id="16867"></path><path d="M512 992L51.2 729.6c-12.8-6.4-19.2-25.6-12.8-44.8 6.4-12.8 25.6-19.2 44.8-12.8L512 921.6l428.8-243.2c12.8-6.4 32-6.4 44.8 12.8 6.4 12.8 6.4 32-12.8 44.8l-460.8 256z" p-id="16868"></path></svg>