<?xml version="1.0" standalone="no"?><!DOCTYPE svg PUBLIC "-//W3C//DTD SVG 1.1//EN" "http://www.w3.org/Graphics/SVG/1.1/DTD/svg11.dtd"><svg class="icon" width="16px" height="16.00px" viewBox="0 0 1024 1024" version="1.1" xmlns="http://www.w3.org/2000/svg"><path fill="#b6b6b6" d="M787.2 876.8H236.8c-19.2 0-32-12.8-32-32v-44.8h-38.4c-19.2 0-32-12.8-32-32V243.2c0-19.2 12.8-32 32-32h38.4v-64c0-19.2 12.8-32 32-32h550.4c19.2 0 32 12.8 32 32v64h51.2c19.2 0 32 12.8 32 32v531.2c0 19.2-12.8 32-32 32h-51.2v44.8c-6.4 12.8-19.2 25.6-32 25.6z m-518.4-57.6h492.8v-44.8c0-19.2 12.8-32 32-32h51.2V268.8h-51.2c-19.2 0-32-12.8-32-32v-64H268.8v64c0 19.2-12.8 32-32 32h-38.4v473.6h38.4c19.2 0 32 12.8 32 32v44.8zM236.8 806.4c-6.4 0-12.8 0-19.2-6.4-12.8-12.8-12.8-32 0-38.4L768 211.2c12.8-12.8 32-12.8 38.4 0 12.8 12.8 12.8 32 0 38.4L256 800c-6.4 6.4-12.8 6.4-19.2 6.4zM236.8 947.2H96c-19.2 0-32-12.8-32-32V768c0-19.2 12.8-32 32-32h147.2c19.2 0 32 12.8 32 32v147.2c-6.4 19.2-19.2 32-38.4 32z m-115.2-57.6h83.2v-83.2H121.6v83.2z m326.4-12.8c-6.4 0-12.8 0-19.2-6.4-12.8-12.8-12.8-32 0-38.4l409.6-409.6c12.8-12.8 32-12.8 38.4 0 12.8 12.8 12.8 32 0 38.4l-409.6 409.6s-6.4 6.4-19.2 6.4zM172.8 563.2c-6.4 0-12.8 0-19.2-6.4-12.8-12.8-12.8-32 0-44.8l364.8-364.8c12.8-12.8 32-12.8 38.4 0 12.8 12.8 12.8 32 0 38.4L192 556.8c-6.4 6.4-12.8 6.4-19.2 6.4z m64-294.4H96c-19.2 0-32-12.8-32-25.6V96c0-19.2 12.8-32 32-32h147.2c19.2 0 32 12.8 32 32v147.2c-6.4 12.8-19.2 25.6-38.4 25.6z m-115.2-57.6h83.2V128H121.6v83.2z m806.4 57.6h-147.2c-19.2 0-32-12.8-32-32V96c0-19.2 12.8-32 32-32h147.2c19.2 0 32 12.8 32 32v147.2c0 12.8-12.8 25.6-32 25.6z m-115.2-57.6H896V128h-83.2v83.2z m115.2 736h-147.2c-19.2 0-32-12.8-32-32V768c0-19.2 12.8-32 32-32h147.2c19.2 0 32 12.8 32 32v147.2c0 19.2-12.8 32-32 32z m-115.2-57.6H896v-83.2h-83.2v83.2z" /></svg>