<?xml version="1.0" standalone="no"?><!DOCTYPE svg PUBLIC "-//W3C//DTD SVG 1.1//EN" "http://www.w3.org/Graphics/SVG/1.1/DTD/svg11.dtd"><svg t="1591601761794" class="icon" viewBox="0 0 1024 1024" version="1.1" xmlns="http://www.w3.org/2000/svg" p-id="8625" xmlns:xlink="http://www.w3.org/1999/xlink" width="16" height="16"><defs><style type="text/css"></style></defs><path d="M220.8 523.52V295.68c-3.2 0-6.4 0-9.6 0.64A330.24 330.24 0 0 1 512 105.6c133.76 0 248.96 78.08 300.8 190.08-3.2 0-6.4-0.64-9.6-0.64v227.84c64 0 116.48-51.2 116.48-113.92 0-42.88-24.32-80-59.52-99.84-49.92-140.16-186.88-241.92-348.16-241.92-161.28 0-298.24 101.12-348.16 242.56-35.2 19.84-59.52 56.96-59.52 99.84 0 62.72 51.84 113.92 116.48 113.92z" p-id="8626"></path><path d="M263.04 431.36c0 133.76 110.72 242.56 247.68 242.56s247.68-108.8 247.68-242.56-110.72-242.56-247.68-242.56-247.68 108.16-247.68 242.56z" p-id="8627"></path><path d="M757.76 652.8a366.4 366.4 0 0 1-247.04 95.36c-95.36 0-182.4-35.84-247.04-95.36-115.84 58.24-192 161.92-192 303.36h880c0.64-140.8-76.8-245.12-193.92-303.36z" p-id="8628"></path></svg>