<svg t="1594291360541" class="icon" viewBox="0 0 1024 1024" version="1.1" xmlns="http://www.w3.org/2000/svg" p-id="16870" width="24" height="24"><path d="M358.4 694.4H224c-6.4 0-12.8 6.4-12.8 12.8v96c0 6.4 6.4 12.8 12.8 12.8h128c9.6 0 19.2-9.6 19.2-19.2v-86.4c0-9.6-6.4-16-12.8-16zM358.4 358.4H224c-6.4 0-12.8 6.4-12.8 12.8v195.2c0 6.4 6.4 12.8 12.8 12.8h134.4c6.4 0 12.8-6.4 12.8-12.8v-195.2c0-6.4-6.4-12.8-12.8-12.8zM649.6 582.4h-185.6c-6.4 0-12.8 6.4-12.8 12.8V800c0 6.4 6.4 12.8 12.8 12.8h185.6c6.4 0 12.8-6.4 12.8-12.8v-204.8c0-6.4-6.4-12.8-12.8-12.8zM649.6 358.4h-185.6c-6.4 0-12.8 6.4-12.8 12.8v99.2c0 6.4 6.4 12.8 12.8 12.8h185.6c6.4 0 12.8-6.4 12.8-12.8v-99.2c3.2-6.4-3.2-12.8-12.8-12.8z" p-id="16871" fill="#ffffff"></path><path d="M752 272v627.2H124.8V272h627.2m35.2-51.2H89.6c-9.6 0-16 6.4-16 16v694.4c0 9.6 6.4 16 16 16h697.6c9.6 0 16-6.4 16-16V236.8c0-9.6-6.4-16-16-16z" p-id="16872" fill="#ffffff"></path><path d="M908.8 764.8h-124.8v-51.2H896V124.8H310.4v112H259.2V115.2c0-22.4 19.2-41.6 41.6-41.6h611.2c22.4 0 41.6 19.2 41.6 41.6v611.2c-3.2 19.2-22.4 38.4-44.8 38.4z" p-id="16873" fill="#ffffff"></path></svg>