<?xml version="1.0" standalone="no"?><!DOCTYPE svg PUBLIC "-//W3C//DTD SVG 1.1//EN" "http://www.w3.org/Graphics/SVG/1.1/DTD/svg11.dtd"><svg t="1585106382867" class="icon" viewBox="0 0 1024 1024" version="1.1" xmlns="http://www.w3.org/2000/svg" p-id="11490" xmlns:xlink="http://www.w3.org/1999/xlink" width="300" height="300"><defs><style type="text/css"></style></defs><path d="M825.6 953.6H204.8c-19.2 0-38.4-12.8-38.4-38.4V563.2c0-19.2 12.8-38.4 38.4-38.4 19.2 0 38.4 12.8 38.4 38.4v326.4h550.4V550.4c0-19.2 12.8-38.4 38.4-38.4 19.2 0 38.4 19.2 38.4 38.4v364.8c-6.4 25.6-25.6 38.4-44.8 38.4m128-409.6c-6.4 0-19.2-6.4-25.6-12.8L512 147.2l-416 384c-12.8 12.8-38.4 12.8-51.2 0-12.8-12.8-12.8-32 0-44.8l441.6-409.6c6.4-6.4 12.8-6.4 25.6-6.4 6.4 0 19.2 6.4 25.6 12.8l448 416c12.8 12.8 12.8 32 0 44.8h-32" p-id="11491"></path><path d="M524.8 800c-19.2 0-32-12.8-32-32V544c0-12.8 19.2-32 32-32s32 12.8 32 32V768c0 12.8-12.8 32-32 32z" p-id="11492"></path></svg>