<?xml version="1.0" standalone="no"?><!DOCTYPE svg PUBLIC "-//W3C//DTD SVG 1.1//EN" "http://www.w3.org/Graphics/SVG/1.1/DTD/svg11.dtd"><svg t="1611575771695" class="icon" viewBox="0 0 1024 1024" version="1.1" xmlns="http://www.w3.org/2000/svg" p-id="16791" width="16" height="16" xmlns:xlink="http://www.w3.org/1999/xlink"><defs><style type="text/css"></style></defs><path d="M0 153.6h1024v512H0zM0 665.6h182.4l-89.6 89.6L0 665.6z" fill="#F69A23" p-id="16792"></path><path d="M192 300.8h32L310.4 448l25.6 48c0-22.4-3.2-51.2-3.2-73.6V300.8h28.8v233.6h-28.8l-86.4-147.2-25.6-48c0 22.4 3.2 48 3.2 73.6v121.6H192V300.8zM422.4 300.8h134.4v25.6h-105.6v73.6h89.6v25.6h-89.6V512h108.8v25.6h-137.6V300.8zM585.6 300.8h32l25.6 128c3.2 25.6 9.6 51.2 12.8 76.8 6.4-25.6 9.6-51.2 16-76.8l32-128h25.6l32 128c6.4 25.6 12.8 51.2 16 76.8 3.2-25.6 9.6-51.2 12.8-76.8l25.6-128h28.8l-48 233.6H768l-35.2-140.8c-3.2-19.2-6.4-35.2-12.8-54.4-3.2 19.2-6.4 35.2-12.8 54.4L672 537.6h-35.2l-51.2-236.8z" fill="#FFFFFF" p-id="16793"></path></svg>