<?xml version="1.0" standalone="no"?><!DOCTYPE svg PUBLIC "-//W3C//DTD SVG 1.1//EN" "http://www.w3.org/Graphics/SVG/1.1/DTD/svg11.dtd"><svg t="1591767014686" class="icon" viewBox="0 0 1024 1024" version="1.1" xmlns="http://www.w3.org/2000/svg" p-id="7897" xmlns:xlink="http://www.w3.org/1999/xlink" width="16" height="16"><defs><style type="text/css"></style></defs><path d="M414.08 495.36c-28.16-44.8-39.04-95.36-39.04-151.04C375.04 186.88 497.92 64 654.72 64s280.32 122.88 280.32 280.32-123.52 280.32-280.32 280.32c-61.44 0-112-16.64-162.56-50.56l-128.64 128.64 61.44 61.44-78.72 78.08-60.8-61.44-39.04 39.04 61.44 61.44L229.12 960l-140.16-140.16 325.12-324.48z m240.64-319.36c-95.36 0-168.32 72.96-168.32 168.32C487.04 439.04 559.36 512 654.72 512s168.32-72.96 168.32-168.32c0-94.72-78.72-167.68-168.32-167.68z" p-id="7898"></path></svg>