<?xml version="1.0" standalone="no"?><!DOCTYPE svg PUBLIC "-//W3C//DTD SVG 1.1//EN" "http://www.w3.org/Graphics/SVG/1.1/DTD/svg11.dtd"><svg t="1611813990542" class="icon" viewBox="0 0 4096 1024" version="1.1" xmlns="http://www.w3.org/2000/svg" p-id="7679" xmlns:xlink="http://www.w3.org/1999/xlink" width="128" height="32"><defs><style type="text/css"></style></defs><path d="M1382.4 571.733333c51.2-59.733333 93.866667-128 128-204.8l42.666667 17.066667c-17.066667 34.133333-34.133333 68.266667-51.2 93.866667v349.866666h-42.666667V554.666667c-17.066667 25.6-42.666667 51.2-59.733333 68.266666 0-17.066667 0-34.133333-17.066667-51.2z m8.533333-213.333333c59.733333-59.733333 93.866667-119.466667 128-170.666667l42.666667 25.6c-42.666667 76.8-93.866667 145.066667-153.6 204.8-8.533333-25.6-8.533333-42.666667-17.066667-59.733333z m332.8 256h-85.333333v34.133333c0 76.8-17.066667 136.533333-68.266667 170.666667-8.533333-8.533333-17.066667-25.6-34.133333-42.666667 34.133333-25.6 51.2-68.266667 51.2-128v-68.266666h179.2v110.933333c17.066667-17.066667 42.666667-42.666667 68.266667-59.733333 8.533333 17.066667 8.533333 34.133333 8.533333 51.2-25.6 17.066667-51.2 42.666667-76.8 68.266666l-25.6 25.6-34.133333-42.666666c8.533333-8.533333 17.066667-34.133333 17.066666-51.2 8.533333 0 0-68.266667 0-68.266667z m-153.6-204.8V247.466667h42.666667v119.466666h59.733333v-170.666666h42.666667v170.666666h59.733333V247.466667h42.666667V426.666667h-42.666667v-17.066667h-204.8z m17.066667 59.733333h213.333333V512h-213.333333v-42.666667z" fill="#393738" p-id="7680"></path><path d="M1954.133333 657.066667c34.133333-76.8 59.733333-179.2 68.266667-307.2h34.133333v-42.666667h-145.066666c8.533333-34.133333 17.066667-76.8 25.6-119.466667l-51.2-8.533333c-17.066667 110.933333-42.666667 204.8-76.8 281.6 8.533333 8.533333 17.066667 25.6 34.133333 34.133333 8.533333-17.066667 17.066667-34.133333 17.066667-51.2 0 85.333333 17.066667 153.6 42.666666 213.333334-25.6 51.2-68.266667 93.866667-110.933333 145.066666 8.533333 17.066667 25.6 34.133333 34.133333 42.666667 42.666667-42.666667 76.8-85.333333 102.4-128 25.6 51.2 59.733333 93.866667 93.866667 128 8.533333-17.066667 17.066667-34.133333 34.133333-51.2-42.666667-42.666667-76.8-85.333333-102.4-136.533333z m-59.733333-298.666667l76.8-8.533333c-8.533333 110.933333-25.6 196.266667-42.666667 247.466666-25.6-68.266667-34.133333-145.066667-34.133333-238.933333z m170.666667 145.066667c68.266667-93.866667 119.466667-204.8 153.6-324.266667l51.2 17.066667c-17.066667 59.733333-42.666667 119.466667-68.266667 170.666666v477.866667h-51.2V460.8c-17.066667 34.133333-42.666667 68.266667-68.266667 93.866667l-17.066666-51.2z m196.266666-230.4H2474.666667c-17.066667-17.066667-25.6-42.666667-42.666667-68.266667l42.666667-25.6 51.2 76.8-34.133334 17.066667H2730.666667v42.666666h-469.333334v-42.666666z m42.666667 110.933333h392.533333V426.666667H2304v-42.666667z m0 102.4h392.533333v42.666667H2304v-42.666667z m0 102.4v247.466667h51.2v-34.133334h281.6v42.666667h51.2V597.333333L2304 588.8z m332.8 162.133333h-281.6V640h281.6v110.933333z m494.933333-59.733333c68.266667-59.733333 128-128 170.666667-221.866667v-51.2h-187.733333V315.733333h290.133333v-42.666666h-290.133333V170.666667h-59.733334v93.866666h-307.2v51.2h307.2v102.4H2816v51.2h68.266667c34.133333 93.866667 85.333333 170.666667 153.6 221.866667-68.266667 34.133333-162.133333 68.266667-281.6 93.866667 8.533333 17.066667 17.066667 34.133333 34.133333 51.2 128-34.133333 230.4-68.266667 298.666667-119.466667 68.266667 42.666667 170.666667 76.8 290.133333 102.4 8.533333-17.066667 17.066667-34.133333 42.666667-59.733333-119.466667 0-213.333333-34.133333-290.133334-68.266667z m-187.733333-221.866667H3242.666667c-34.133333 76.8-76.8 136.533333-153.6 187.733334-59.733333-42.666667-110.933333-102.4-145.066667-187.733334z m486.4 25.6c59.733333-85.333333 110.933333-196.266667 153.6-315.733333l59.733333 17.066667c-17.066667 51.2-34.133333 93.866667-59.733333 136.533333v494.933333h-59.733333V443.733333c-25.6 42.666667-51.2 76.8-76.8 119.466667 0-34.133333 0-51.2-17.066667-68.266667z" fill="#393738" p-id="7681"></path><path d="M3626.666667 332.8h307.2V179.2h59.733333v145.066667h93.866667v51.2h-93.866667v341.333333c0 68.266667-34.133333 102.4-93.866667 102.4h-102.4c0-17.066667-8.533333-34.133333-8.533333-59.733333 34.133333 8.533333 68.266667 8.533333 93.866667 8.533333 17.066667 0 34.133333 0 42.666666-17.066667s8.533333-25.6 8.533334-51.2V384h-307.2v-51.2z" fill="#393738" p-id="7682"></path><path d="M3669.333333 486.4l42.666667-34.133333c25.6 42.666667 59.733333 93.866667 93.866667 153.6l-51.2 34.133333c-25.6-59.733333-51.2-110.933333-85.333334-153.6z" fill="#393738" p-id="7683"></path><path d="M426.666667 648.533333c-8.533333 8.533333-8.533333 8.533333-17.066667 8.533334-17.066667 0-25.6-8.533333-34.133333-17.066667v-8.533333L264.533333 401.066667v-8.533334c0-8.533333 8.533333-17.066667 17.066667-17.066666s8.533333 0 8.533333 8.533333l119.466667 85.333333h42.666667c8.533333 0 17.066667 0 17.066666-8.533333l580.266667-256C947.2 85.333333 776.533333 8.533333 580.266667 8.533333 264.533333 8.533333 8.533333 221.866667 8.533333 486.4c0 145.066667 76.8 273.066667 196.266667 358.4 8.533333 8.533333 17.066667 17.066667 17.066667 34.133333v8.533334c-8.533333 34.133333-25.6 93.866667-25.6 93.866666s-8.533333 8.533333-8.533334 17.066667 8.533333 17.066667 17.066667 17.066667 8.533333 0 8.533333-8.533334l136.533334-68.266666c8.533333-8.533333 17.066667-8.533333 34.133333-8.533334h17.066667c59.733333 17.066667 119.466667 25.6 187.733333 25.6 315.733333 0 571.733333-213.333333 571.733333-477.866666 0-76.8-25.6-153.6-68.266666-221.866667L426.666667 648.533333z" fill="#00AC1C" p-id="7684"></path></svg>