<?xml version="1.0" standalone="no"?><!DOCTYPE svg PUBLIC "-//W3C//DTD SVG 1.1//EN" "http://www.w3.org/Graphics/SVG/1.1/DTD/svg11.dtd"><svg t="1611813979549" class="icon" viewBox="0 0 4096 1024" version="1.1" xmlns="http://www.w3.org/2000/svg" p-id="7289" width="128" height="32" xmlns:xlink="http://www.w3.org/1999/xlink"><defs><style type="text/css"></style></defs><path d="M563.2 785.066667c93.866667 0 179.2-59.733333 256-153.6-102.4-51.2-196.266667-85.333333-281.6-76.8-25.6 0-76.8 17.066667-93.866667 34.133333-85.333333 68.266667-42.666667 196.266667 119.466667 196.266667z" fill="#1E95D4" p-id="7290"></path><path d="M1305.6 170.666667c0-93.866667-76.8-162.133333-162.133333-162.133334H452.266667C366.933333 8.533333 290.133333 76.8 290.133333 170.666667v682.666666c0 42.666667 17.066667 85.333333 42.666667 119.466667 34.133333 34.133333 68.266667 42.666667 119.466667 42.666667h691.2c42.666667 0 85.333333-17.066667 119.466666-42.666667 34.133333-34.133333 42.666667-68.266667 42.666667-119.466667 0 0-264.533333-110.933333-401.066667-170.666666-25.6 25.6-51.2 42.666667-76.8 68.266666 0 0-8.533333 0-8.533333 8.533334-17.066667 17.066667-42.666667 34.133333-68.266667 51.2h-8.533333c-25.6 17.066667-51.2 25.6-76.8 34.133333h-8.533333c-34.133333 0-51.2 8.533333-85.333334 8.533333h-8.533333c-25.6 0-51.2-8.533333-68.266667-8.533333-8.533333 0-8.533333-8.533333-17.066666-8.533333-8.533333-8.533333-25.6-17.066667-34.133334-17.066667-17.066667-8.533333-17.066667-17.066667-25.6-17.066667 0-8.533333-8.533333-17.066667-17.066666-25.6-59.733333-59.733333-59.733333-153.6 0-221.866666 25.6-25.6 59.733333-51.2 110.933333-59.733334 17.066667-8.533333 42.666667-8.533333 68.266667-8.533333 85.333333 8.533333 187.733333 34.133333 281.6 59.733333 17.066667-42.666667 42.666667-93.866667 59.733333-145.066666H529.066667v-34.133334h204.8v-68.266666H486.4V256h247.466667V153.6s0-17.066667 17.066666-17.066667H853.333333V256h247.466667v42.666667H853.333333v68.266666h204.8c-17.066667 76.8-51.2 145.066667-76.8 213.333334 59.733333 17.066667 110.933333 42.666667 153.6 59.733333 136.533333 42.666667 170.666667 42.666667 170.666667 42.666667V170.666667z" fill="#1E95D4" p-id="7291"></path><path d="M2722.133333 418.133333h-85.333333l68.266667 230.4h93.866666L2730.666667 426.666667c8.533333-8.533333 0-8.533333-8.533334-8.533334z m-273.066666-256l-128 315.733334h102.4v392.533333h93.866666v-512H2474.666667l85.333333-204.8-110.933333 8.533333z m819.2 85.333334h409.6v76.8h119.466666v-76.8c0-17.066667-8.533333-25.6-25.6-25.6h-230.4v-76.8H3413.333333v68.266666h-256v102.4h110.933334v-68.266666z m494.933333 469.333333c0-8.533333-8.533333-8.533333-8.533333-8.533333h-102.4l34.133333 110.933333h-162.133333V580.266667h264.533333v-25.6h-264.533333V426.666667h264.533333v-25.6H3157.333333V426.666667h264.533334v128H3157.333333v25.6h264.533334v238.933333H3157.333333v25.6h648.533334l-42.666667-128z m-1774.933333-17.066667l17.066666-8.533333c110.933333-76.8 179.2-179.2 213.333334-290.133333h-230.4V290.133333h273.066666V256h-273.066666V153.6H1877.333333c-8.533333 0-8.533333 0-8.533333 8.533333l-8.533333 8.533334v93.866666h-273.066667v34.133334h281.6v110.933333h-230.4v25.6h460.8l-8.533333 17.066667c0 8.533333-25.6 102.4-153.6 213.333333l-8.533334 8.533333-8.533333-8.533333c-85.333333-76.8-128-136.533333-136.533333-153.6h-93.866667c42.666667 68.266667 102.4 128 187.733333 187.733333l17.066667 8.533334-17.066667 8.533333c-76.8 51.2-170.666667 93.866667-273.066666 119.466667v42.666666c42.666667-8.533333 196.266667-51.2 341.333333-128l8.533333-8.533333 8.533334 8.533333c145.066667 85.333333 290.133333 119.466667 332.8 128v-34.133333c-102.4-34.133333-187.733333-76.8-264.533334-128-17.066667 0-42.666667-17.066667-42.666666-17.066667z" fill="#050101" p-id="7292"></path><path d="M2995.2 162.133333H2901.333333v128h-307.2v25.6H2901.333333v477.866667c0 17.066667-17.066667 34.133333-34.133333 34.133333H2816v25.6h145.066667c17.066667 0 34.133333-17.066667 34.133333-34.133333V315.733333h51.2v-25.6h-51.2V162.133333z" fill="#050101" p-id="7293"></path></svg>