<svg xmlns="http://www.w3.org/2000/svg" width="22.553" height="22.88" viewBox="0 0 22.553 22.88">
  <defs>
    <style>
      .cls-1 {
        fill: #555;
      }

      .cls-2 {
        fill: #19a0f1;
      }
    </style>
  </defs>
  <g id="dianhua1" transform="translate(-164.784 -159.822)">
    <path id="路径_5" data-name="路径 5" class="cls-1" d="M170.077,161.664a1.8,1.8,0,0,1,1.133.551,6.021,6.021,0,0,1,1.5,2.537l.01.052.021.042a4.526,4.526,0,0,1,.281,1.04l.021.114.031.114a1.986,1.986,0,0,1-.447,2.048.257.257,0,0,1-.094.042,1.876,1.876,0,0,0-1.31,1.133,1.925,1.925,0,0,0,.229,1.736,15.651,15.651,0,0,0,1.955,2.36,21.768,21.768,0,0,0,2.038,2,1.973,1.973,0,0,0,1.279.5,1.8,1.8,0,0,0,1.591-.967,1.129,1.129,0,0,1,.354-.437,2.7,2.7,0,0,1,.613-.062,6.532,6.532,0,0,1,2.631.655,6.262,6.262,0,0,1,2.3,1.892,1.75,1.75,0,0,1,.4,1.4l-.021.083-.01.062a3.317,3.317,0,0,1-1.165,1.716l-.042.031-.042.042a4.091,4.091,0,0,1-2.735.9,7.838,7.838,0,0,1-2.589-.478,17.641,17.641,0,0,1-7.226-5.261,18.04,18.04,0,0,1-3.691-6.124,11.435,11.435,0,0,1-.6-2.87,6.076,6.076,0,0,1,.229-2.3,4.274,4.274,0,0,1,1.061-1.643,3.826,3.826,0,0,1,1.872-.863l.3-.052h.135m0-1.664a2.665,2.665,0,0,0-.406.031l-.291.052a5.427,5.427,0,0,0-2.683,1.227,5.743,5.743,0,0,0-1.549,2.329l-.01.01a7.573,7.573,0,0,0-.333,2.932,12.517,12.517,0,0,0,.686,3.306,19.6,19.6,0,0,0,4.034,6.706,19.234,19.234,0,0,0,7.923,5.719,9.775,9.775,0,0,0,3.13.561,5.813,5.813,0,0,0,3.805-1.289,4.938,4.938,0,0,0,1.809-2.693,3.326,3.326,0,0,0-.6-2.839,7.858,7.858,0,0,0-2.911-2.433h-.01a8.13,8.13,0,0,0-3.379-.842,3.911,3.911,0,0,0-1.2.166l-.01.01-.01.01a2.576,2.576,0,0,0-1.227,1.217.115.115,0,0,1-.114.073.237.237,0,0,1-.156-.073,20.981,20.981,0,0,1-1.934-1.9l-.01-.01-.01-.01a13.075,13.075,0,0,1-1.8-2.163.254.254,0,0,1-.021-.177c.021-.062.125-.094.125-.094a1.961,1.961,0,0,0,.759-.354,3.634,3.634,0,0,0,1-3.837,5.955,5.955,0,0,0-.385-1.383,7.58,7.58,0,0,0-1.944-3.244A3.389,3.389,0,0,0,170.077,160Z" transform="translate(0 -0.172)"/>
    <path id="路径_6" data-name="路径 6" class="cls-2" d="M585.136,269.5a.7.7,0,0,1,.894-.52,5.448,5.448,0,0,1,4.409,6.363.914.914,0,1,1-1.8-.322,3.662,3.662,0,0,0-2.932-4.242,1.1,1.1,0,0,1-.572-1.279Z" transform="translate(-406.668 -105.574)"/>
    <path id="路径_7" data-name="路径 7" class="cls-2" d="M593.47,160.379a.7.7,0,0,1,.894-.52,9.756,9.756,0,0,1,5.979,3.805,9.212,9.212,0,0,1,1.58,6.956.914.914,0,1,1-1.8-.322,7.483,7.483,0,0,0-1.2-5.656A8.672,8.672,0,0,0,594,161.46c-.364.062-.645-.478-.53-1.081Z" transform="translate(-414.732)"/>
  </g>
</svg>
