<?xml version="1.0" standalone="no"?><!DOCTYPE svg PUBLIC "-//W3C//DTD SVG 1.1//EN" "http://www.w3.org/Graphics/SVG/1.1/DTD/svg11.dtd"><svg t="1605143467218" class="icon" viewBox="0 0 1024 1024" version="1.1" xmlns="http://www.w3.org/2000/svg" p-id="18952" xmlns:xlink="http://www.w3.org/1999/xlink" width="200" height="200"><defs><style type="text/css"></style></defs><path d="M19.84 512c0 271.573 220.373 492.16 492.16 492.16S1004.16 783.573 1004.16 512 783.573 19.84 512 19.84 19.84 240.427 19.84 512z" fill="#25262B" opacity=".5" p-id="18953"></path><path d="M512 1024C229.973 1024 0 794.027 0 512S229.973 0 512 0s512 229.973 512 512-229.973 512-512 512z m0-984.32C251.733 39.68 39.68 251.733 39.68 512S251.733 984.32 512 984.32 984.32 772.267 984.32 512 772.267 39.68 512 39.68z" p-id="18954"></path><path d="M442.027 712.533l247.68-187.093c9.386-7.253 9.386-20.907 0-28.16l-247.68-185.813c-11.52-8.32-28.16 0-28.16 13.653v373.12c0 14.293 16.64 22.827 28.16 14.293z" fill="#FFFFFF" p-id="18955"></path></svg>