<?xml version="1.0" standalone="no"?><!DOCTYPE svg PUBLIC "-//W3C//DTD SVG 1.1//EN" "http://www.w3.org/Graphics/SVG/1.1/DTD/svg11.dtd"><svg t="1631875781162" class="icon" viewBox="0 0 1024 1024" version="1.1" xmlns="http://www.w3.org/2000/svg" p-id="11425" xmlns:xlink="http://www.w3.org/1999/xlink" width="32" height="32"><defs><style type="text/css"></style></defs><path d="M791.04 153.6H232.96C189.44 153.6 153.6 189.44 153.6 232.96v558.08C153.6 834.56 189.44 870.4 232.96 870.4h532.48c43.52 0 104.96-35.84 104.96-79.36V232.96C870.4 189.44 834.56 153.6 791.04 153.6zM204.8 232.96C204.8 217.6 217.6 204.8 232.96 204.8h558.08c15.36 0 28.16 12.8 28.16 28.16v558.08c0 15.36-12.8 30.72-30.72 30.72H232.96C217.6 819.2 204.8 806.4 204.8 791.04V232.96z" fill="#333333" p-id="11426"></path><path d="M318.7712 720.4608L642.816 396.4416l36.1984 36.1984-324.0192 324.0192z" fill="#333333" p-id="11427"></path><path d="M337.92 614.4h48.64v-74.24H460.8v-48.64h-74.24v-74.24h-48.64v74.24h-74.24v48.64h74.24zM563.2 675.84h197.12v51.2H563.2z" fill="#23B8FF" p-id="11428"></path><path d="M202.24 284.16h632.32v51.2H202.24z" fill="#333333" p-id="11429"></path></svg>