<?xml version="1.0" standalone="no"?><!DOCTYPE svg PUBLIC "-//W3C//DTD SVG 1.1//EN" "http://www.w3.org/Graphics/SVG/1.1/DTD/svg11.dtd"><svg t="1608285795911" class="icon" viewBox="0 0 1024 1024" version="1.1" xmlns="http://www.w3.org/2000/svg" p-id="5817" xmlns:xlink="http://www.w3.org/1999/xlink" width="32" height="32"><defs><style type="text/css"></style></defs><path d="M446.171429 863.085714c14.628571 0 26.819048-12.190476 26.819047-26.819047s-12.190476-26.819048-26.819047-26.819048c-14.628571 0-26.819048 12.190476-26.819048 26.819048 0 14.628571 12.190476 26.819048 26.819048 26.819047zM446.171429 653.409524c14.628571 0 26.819048-12.190476 26.819047-26.819048 0-14.628571-12.190476-26.819048-26.819047-26.819047-14.628571 0-26.819048 12.190476-26.819048 26.819047 0 14.628571 12.190476 26.819048 26.819048 26.819048z" p-id="5818"></path><path d="M858.209524 304.761905l-7.314286-2.438095-2.438095-9.752381C794.819048 153.6 658.285714 60.952381 512 60.952381S226.742857 153.6 175.542857 292.571429l-4.87619 9.752381-7.314286 2.438095c-97.52381 24.380952-163.352381 114.590476-163.352381 214.552381 0 109.714286 82.895238 202.361905 192.609524 216.990476H195.047619v-56.076191h-2.438095c-31.695238-4.87619-63.390476-21.942857-85.333334-43.885714-31.695238-31.695238-48.761905-73.142857-48.761904-117.028571 0-36.571429 12.190476-70.704762 34.133333-99.961905s53.638095-48.761905 87.771429-58.514286l36.571428-9.752381 12.190476-34.133333c9.752381-29.257143 26.819048-56.07619 43.885715-80.457143 19.504762-24.380952 41.447619-43.885714 65.828571-63.390476C390.095238 136.533333 451.047619 117.028571 512 117.028571s124.342857 19.504762 175.542857 56.076191c24.380952 17.066667 46.32381 39.009524 65.828572 63.390476 19.504762 24.380952 34.133333 51.2 43.885714 80.457143l12.190476 34.133333 36.571429 9.752381c70.704762 19.504762 121.904762 82.895238 121.904762 158.476191 0 43.885714-17.066667 85.333333-48.761905 117.028571-21.942857 21.942857-53.638095 39.009524-85.333334 43.885714h-2.438095v58.514286h2.438095c107.27619-14.628571 190.171429-107.27619 190.171429-216.990476-2.438095-104.838095-68.266667-192.609524-165.790476-216.990476z" p-id="5819"></path><path d="M287.695238 963.047619h446.171429V494.933333H287.695238v468.114286zM682.666667 748.495238v160.914286H338.895238v-160.914286H682.666667z m0-204.8v160.914286H338.895238v-160.914286H682.666667z" p-id="5820"></path></svg>