<?xml version="1.0" standalone="no"?><!DOCTYPE svg PUBLIC "-//W3C//DTD SVG 1.1//EN" "http://www.w3.org/Graphics/SVG/1.1/DTD/svg11.dtd"><svg t="1608344797318" class="icon" viewBox="0 0 1024 1024" version="1.1" xmlns="http://www.w3.org/2000/svg" p-id="6538" xmlns:xlink="http://www.w3.org/1999/xlink" width="32" height="32"><defs><style type="text/css"></style></defs><path d="M419.2 403.2h102.4v64h-102.4v-64z m-256 0h192v192h-192v-192z m256 128h102.4v64h-102.4v-64z" p-id="6539"></path><path d="M409.6 739.2H480v150.4h-67.2v-150.4z" p-id="6540"></path><path d="M518.4 716.8H67.2V102.4h787.2v140.8h67.2V112c0-44.8-35.2-80-80-80H80C35.2 32 0 67.2 0 112V704c0 44.8 35.2 80 80 80h438.4v-67.2z" p-id="6541"></path><path d="M1024 384c0-19.2-6.4-38.4-19.2-51.2-12.8-12.8-32-22.4-48-22.4h-300.8c-38.4 0-70.4 32-70.4 73.6v534.4c0 38.4 32 73.6 70.4 73.6h297.6c38.4 0 70.4-32 70.4-73.6V384z m-380.8 0c0-6.4 6.4-12.8 12.8-12.8h32l12.8 19.2c6.4 12.8 22.4 22.4 41.6 22.4h124.8c16 0 32-9.6 41.6-22.4l12.8-19.2h32c6.4 0 12.8 6.4 12.8 12.8l3.2 534.4c0 6.4-6.4 12.8-12.8 12.8h-300.8c-6.4 0-12.8-6.4-12.8-12.8V384z" p-id="6542"></path><path d="M854.4 838.4h-96c-12.8 0-22.4 9.6-22.4 22.4s9.6 22.4 22.4 22.4h96c12.8 0 22.4-9.6 22.4-22.4s-9.6-22.4-22.4-22.4z m-336 28.8H278.4c-19.2 0-35.2 16-35.2 35.2 0 19.2 16 35.2 35.2 35.2h240v-70.4z" p-id="6543"></path><path d="M518.4 316.8c0-38.4 32-73.6 70.4-73.6h172.8v-22.4H163.2v121.6h355.2v-25.6z" p-id="6544"></path></svg>