<svg t="1594291429957" class="icon" viewBox="0 0 1024 1024" version="1.1" xmlns="http://www.w3.org/2000/svg" p-id="17280" width="24" height="24"><path d="M937.6 121.6H86.4c-12.8 0-22.4 12.8-22.4 25.6V736c0 12.8 9.6 22.4 22.4 22.4h332.8c0 51.2-12.8 86.4-38.4 108.8-28.8 22.4-44.8 35.2-48 35.2h355.2c-6.4 0-22.4-12.8-48-35.2-22.4-19.2-32-54.4-35.2-108.8h329.6c12.8 0 22.4-9.6 22.4-22.4V147.2c3.2-12.8-6.4-25.6-19.2-25.6zM512 713.6c-12.8 0-22.4-9.6-22.4-22.4 0-12.8 9.6-22.4 22.4-22.4 12.8 0 22.4 9.6 22.4 22.4 3.2 9.6-9.6 22.4-22.4 22.4z m403.2-92.8H112v-448h803.2v448z" p-id="17281" fill="#ffffff"></path><path d="M409.6 268.8l41.6 233.6s28.8-32 54.4-51.2l54.4 73.6c3.2 3.2 6.4 3.2 9.6 0l22.4-16c3.2-3.2 6.4-6.4 3.2-9.6L544 428.8c28.8-9.6 73.6-22.4 73.6-22.4l-208-137.6z" p-id="17282" fill="#ffffff"></path></svg>