<?xml version="1.0" standalone="no"?><!DOCTYPE svg PUBLIC "-//W3C//DTD SVG 1.1//EN" "http://www.w3.org/Graphics/SVG/1.1/DTD/svg11.dtd"><svg t="1603268514806" class="icon" viewBox="0 0 1024 1024" version="1.1" xmlns="http://www.w3.org/2000/svg" p-id="3156" xmlns:xlink="http://www.w3.org/1999/xlink" width="16" height="16"><defs><style type="text/css"></style></defs><path d="M480 537.6c0-9.6-6.4-19.2-16-25.6L108.8 364.8c-3.2 0-6.4-3.2-9.6-3.2-12.8 0-25.6 12.8-25.6 25.6v374.4c0 9.6 6.4 19.2 16 22.4l355.2 166.4c3.2 3.2 6.4 3.2 9.6 3.2 16 0 25.6-12.8 25.6-25.6V537.6z m-51.2 352l-3.2-3.2L128 745.6v-320l300.8 128v336zM73.6 262.4c-3.2 12.8 3.2 25.6 16 32l112 48c12.8 6.4 28.8 0 35.2-12.8 6.4-12.8 0-28.8-12.8-35.2l-57.6-22.4L512 121.6l345.6 150.4-64 28.8c-6.4 3.2-12.8 6.4-12.8 12.8s-3.2 12.8 0 19.2c3.2 9.6 12.8 16 22.4 16 3.2 0 6.4 0 9.6-3.2l118.4-51.2c6.4-3.2 9.6-6.4 12.8-12.8 6.4-12.8 0-28.8-12.8-35.2L521.6 70.4c-6.4-3.2-12.8-3.2-19.2 0L89.6 246.4c-6.4 3.2-12.8 9.6-16 16zM566.4 956.8c3.2 0 6.4 0 9.6-3.2l355.2-147.2c9.6-3.2 16-12.8 16-25.6V390.4c0-3.2 0-6.4-3.2-9.6-3.2-6.4-6.4-12.8-12.8-12.8-3.2 0-6.4-3.2-9.6-3.2-3.2 0-6.4 0-9.6 3.2l-355.2 150.4c-9.6 3.2-16 12.8-16 25.6v390.4c0 9.6 12.8 22.4 25.6 22.4z m28.8-400l300.8-128v336h-3.2l-300.8 124.8V556.8zM659.2 406.4c3.2-6.4 3.2-12.8 0-19.2-3.2-6.4-6.4-12.8-12.8-12.8-6.4-3.2-12.8-3.2-19.2 0l-108.8 48-134.4-57.6c-3.2 0-6.4-3.2-9.6-3.2-3.2 0-6.4 0-9.6 3.2-6.4 3.2-12.8 6.4-12.8 12.8-3.2 6.4-3.2 12.8 0 19.2 3.2 6.4 6.4 12.8 12.8 12.8l144 60.8c6.4 3.2 12.8 3.2 19.2 0l121.6-51.2c3.2 0 6.4-6.4 9.6-12.8z" fill="#333333" p-id="3157"></path><path d="M512 163.2L252.8 275.2l262.4 112 243.2-115.2L512 163.2z" fill="#23B5FA" p-id="3158"></path><path d="M537.6 739.2c-3.2-6.4-6.4-12.8-12.8-12.8L288 620.8c-3.2 0-6.4-3.2-9.6-3.2-9.6 0-19.2 6.4-25.6 16-6.4 12.8 0 28.8 12.8 35.2l236.8 102.4c3.2 0 6.4 3.2 9.6 3.2 9.6 0 19.2-6.4 22.4-16 3.2-6.4 3.2-12.8 3.2-19.2z" fill="#333333" p-id="3159"></path><path d="M492.8 736c-3.2 6.4-3.2 12.8 0 19.2 3.2 9.6 19.2 16 28.8 16h6.4l230.4-86.4c12.8-6.4 19.2-19.2 16-35.2-3.2-9.6-12.8-16-25.6-16-3.2 0-6.4 0-9.6 3.2l-230.4 86.4c-9.6 0-12.8 6.4-16 12.8z" fill="#333333" p-id="3160"></path></svg>