<svg t="1594265502200" class="icon" viewBox="0 0 1024 1024" version="1.1" xmlns="http://www.w3.org/2000/svg" p-id="13123" width="24" height="24"><path d="M883.2 92.8H140.8C99.2 92.8 64 128 64 163.2v684.8c0 48 32 83.2 76.8 83.2h454.4c16 0 28.8-12.8 28.8-28.8s-12.8-28.8-28.8-28.8H140.8c-12.8 0-19.2-12.8-19.2-28.8V374.4h784v252.8c0 16 12.8 28.8 28.8 28.8s25.6-16 25.6-28.8V163.2c0-35.2-35.2-70.4-76.8-70.4z m22.4 224H121.6V163.2c0-3.2 6.4-12.8 19.2-12.8h742.4c12.8 0 19.2 9.6 19.2 12.8l3.2 153.6z" fill="#23B5FA" p-id="13124"></path><path d="M176 204.8h57.6v57.6H176zM288 204.8h57.6v57.6H288zM400 204.8h57.6v57.6h-57.6zM560 505.6l6.4 3.2c9.6 6.4 12.8 19.2 9.6 32l-86.4 160c-6.4 9.6-16 12.8-25.6 9.6h-3.2l-6.4-6.4c-9.6-6.4-12.8-19.2-9.6-32l86.4-160c6.4-9.6 19.2-12.8 28.8-6.4zM300.8 508.8c6.4-9.6 22.4-9.6 28.8-3.2l3.2 3.2c6.4 9.6 9.6 22.4 0 32v3.2l-60.8 64 60.8 64c9.6 9.6 9.6 25.6 0 35.2-9.6 9.6-22.4 9.6-28.8 3.2l-3.2-6.4L224 624c-9.6-9.6-9.6-22.4-3.2-32l3.2-3.2 76.8-80zM758.4 905.6l51.2-105.6 131.2 131.2 19.2-19.2-131.2-131.2 105.6-51.2-297.6-121.6 121.6 297.6zM732.8 608l44.8 19.2 3.2-3.2 3.2-3.2c6.4-9.6 6.4-22.4-3.2-32L704 508.8c-9.6-6.4-22.4-6.4-28.8 3.2-9.6 9.6-9.6 25.6 0 35.2l57.6 60.8z" fill="#23B5FA" p-id="13125"></path></svg>