<?xml version="1.0" standalone="no"?><!DOCTYPE svg PUBLIC "-//W3C//DTD SVG 1.1//EN" "http://www.w3.org/Graphics/SVG/1.1/DTD/svg11.dtd"><svg t="1588129579406" class="icon" viewBox="0 0 1024 1024" version="1.1" xmlns="http://www.w3.org/2000/svg" p-id="6826" xmlns:xlink="http://www.w3.org/1999/xlink" width="200" height="200"><defs><style type="text/css"></style></defs><path d="M981.76 386.56L846.08 128c-16.64-30.72-48-49.92-83.2-49.92H512.64c-1.28 0-3.2 0.64-4.48 0.64H261.76c-35.2 0-67.84 19.2-83.2 49.92L42.88 388.48c-19.2 35.2-12.8 80 16 108.8l430.08 438.4c0.64 0.64 1.28 1.92 1.92 3.2 1.28 0.64 2.56 1.28 3.2 1.92 0.64 0.64 1.28 0.64 2.56 1.28s1.92 1.28 3.2 1.92c0.64 0 0.64 0.64 1.28 0.64h0.64c3.84 0.64 6.4 1.92 10.24 1.92s6.4 0 10.24-1.92h0.64c0.64 0 1.28-0.64 1.92-1.28 0.64-0.64 1.92-0.64 2.56-1.28 0.64-0.64 1.92-0.64 2.56-1.28 1.92-1.28 3.84-3.2 5.76-5.76l430.08-440.32c27.52-28.8 34.56-72.32 16-108.16zM325.76 472.32l113.92 326.4-318.72-326.4h204.8z m186.88-332.8c1.28 0 3.2-0.64 4.48-0.64h29.44l89.6 272.64H389.12l88.96-271.36h34.56z m0 332.8h122.88l-122.88 351.36-122.88-351.36h122.88z m186.24 0h204.16l-316.8 324.48 112.64-324.48z m92.8-316.16l133.12 254.72h-225.92l-89.6-272.64h151.68c14.08 0.64 24.96 7.04 30.72 17.92z m-559.36 1.28a34.56 34.56 0 0 1 29.44-17.92h152.32L325.76 411.52H99.2l133.12-254.08z" p-id="6827" fill="#ffffff"></path></svg>