<?xml version="1.0" standalone="no"?><!DOCTYPE svg PUBLIC "-//W3C//DTD SVG 1.1//EN" "http://www.w3.org/Graphics/SVG/1.1/DTD/svg11.dtd"><svg t="1588129668865" class="icon" viewBox="0 0 1024 1024" version="1.1" xmlns="http://www.w3.org/2000/svg" p-id="7216" xmlns:xlink="http://www.w3.org/1999/xlink" width="200" height="200"><defs><style type="text/css"></style></defs><path d="M784.32 392.96a297.824 297.824 0 0 0-287.68-221.76c-135.04 0-253.12 91.2-287.68 221.76a90.944 90.944 0 0 0-64.32 86.72v100.48c0 50.24 40.96 91.2 91.2 91.2h5.44c50.24 0 91.2-40.96 91.2-91.2v-100.48c0-42.24-29.12-77.76-68.16-88 33.28-99.84 126.08-168.32 232.32-168.32s199.04 68.8 232.32 168.32a91.296 91.296 0 0 0-68.16 88v100.48c0 34.88 19.84 64.64 48.32 80-22.72 31.68-67.2 76.16-124.8 91.52a67.328 67.328 0 0 0-60.16-37.44h-55.36c-37.12 0-67.52 30.08-67.52 67.52v3.52c0 37.12 30.08 67.52 67.52 67.52h55.36c30.72 0 56-20.48 64.32-48.32 87.68-19.52 151.04-91.2 174.72-132.16 0.32-0.32 0.32-0.96 0.32-1.28a91.104 91.104 0 0 0 84.48-90.56V480c0.64-41.28-26.56-75.52-63.68-87.04zM280.32 479.68v100.48c0 21.44-17.6 39.04-39.04 39.04h-5.44c-21.44 0-39.04-17.6-39.04-39.04v-100.48c0-21.44 17.6-39.04 39.04-39.04h5.44c21.44 0 39.04 17.6 39.04 39.04z m259.2 305.6c0 8.32-7.04 15.36-15.36 15.36h-55.36c-8.32 0-15.36-7.04-15.36-15.36v-3.52c0-8.32 7.04-15.36 15.36-15.36h55.36c8.32 0 15.36 7.04 15.36 15.36v3.52z m256.96-205.12c0 21.44-17.6 39.04-39.04 39.04h-5.44c-21.44 0-39.04-17.6-39.04-39.04v-100.48c0-21.44 17.6-39.04 39.04-39.04h5.44c21.44 0 39.04 17.6 39.04 39.04v100.48z" p-id="7217" fill="#ffffff"></path><path d="M496 645.44c-46.72 0-88.64-31.36-101.44-76.48-3.52-11.84 3.52-24.32 15.36-27.84 11.84-3.52 24.32 3.52 27.84 15.36a61.056 61.056 0 0 0 117.12 0c3.52-11.84 16-18.88 27.84-15.36 11.84 3.52 18.88 16 15.36 27.84a107.232 107.232 0 0 1-102.08 76.48z" p-id="7218" fill="#ffffff"></path></svg>