<?xml version="1.0" standalone="no"?><!DOCTYPE svg PUBLIC "-//W3C//DTD SVG 1.1//EN" "http://www.w3.org/Graphics/SVG/1.1/DTD/svg11.dtd"><svg t="1614825066495" class="icon" viewBox="0 0 1024 1024" version="1.1" xmlns="http://www.w3.org/2000/svg" p-id="12226" xmlns:xlink="http://www.w3.org/1999/xlink" width="200" height="200"><defs><style type="text/css"></style></defs><path d="M439.466667 896c-200.533333-25.6-349.866667-200.533333-349.866667-401.066667 0-221.866667 179.2-401.066667 401.066667-401.066666 204.8 0 366.933333 140.8 401.066666 341.333333 0 8.533333 4.266667 12.8 8.533334 21.333333 8.533333 8.533333 17.066667 8.533333 25.6 8.533334 8.533333 0 17.066667-4.266667 21.333333-8.533334 8.533333-8.533333 8.533333-17.066667 8.533333-25.6-34.133333-234.666667-230.4-401.066667-469.333333-401.066666C226.133333 29.866667 12.8 243.2 12.8 503.466667c0 238.933333 174.933333 443.733333 409.6 473.6h4.266667c17.066667 0 38.4-8.533333 42.666666-34.133334 4.266667-25.6-12.8-46.933333-29.866666-46.933333z" p-id="12227" fill="#ffffff"></path><path d="M465.066667 695.466667C362.666667 682.666667 281.6 597.333333 281.6 490.666667c0-115.2 93.866667-204.8 204.8-204.8 102.4 0 196.266667 81.066667 204.8 183.466666 0 8.533333 8.533333 38.4 38.4 34.133334 12.8 0 21.333333-8.533333 29.866667-17.066667 4.266667-8.533333 4.266667-12.8 4.266666-21.333333-21.333333-140.8-140.8-243.2-277.333333-243.2C337.066667 217.6 213.333333 341.333333 213.333333 494.933333c0 145.066667 102.4 264.533333 247.466667 277.333334h4.266667c12.8 0 34.133333-4.266667 34.133333-34.133334 0-25.6-12.8-38.4-34.133333-42.666666z" p-id="12228" fill="#ffffff"></path><path d="M1006.933333 674.133333l-473.6-157.866666h-4.266666-4.266667v4.266666L682.666667 998.4c0 4.266667 4.266667 4.266667 4.266666 4.266667 4.266667 0 4.266667 0 8.533334-4.266667l106.666666-209.066667 204.8-102.4v-12.8z m-243.2 42.666667c-17.066667 8.533333-29.866667 21.333333-38.4 38.4l-21.333333 38.4-46.933333-145.066667 145.066666 46.933334-38.4 21.333333z" p-id="12229" fill="#ffffff"></path></svg>