<svg t="1594264992844" class="icon" viewBox="0 0 1024 1024" version="1.1" xmlns="http://www.w3.org/2000/svg" p-id="11903" width="24" height="24"><path d="M489.6 51.2c-118.4 0-217.6 96-217.6 217.6s99.2 217.6 217.6 217.6c121.6 0 217.6-99.2 217.6-217.6 0-121.6-99.2-217.6-217.6-217.6z" fill="#FFFFFF" p-id="11904"></path><path d="M489.6 19.2C352 19.2 240 131.2 240 268.8s112 249.6 249.6 249.6c67.2 0 131.2-25.6 176-73.6s73.6-108.8 73.6-176c0-137.6-112-249.6-249.6-249.6zM300.8 268.8c0-102.4 83.2-185.6 185.6-185.6 51.2 0 96 19.2 131.2 54.4S672 220.8 672 268.8s-19.2 96-54.4 131.2-83.2 54.4-131.2 54.4c-99.2 3.2-185.6-83.2-185.6-185.6z" fill="#23B5FA" p-id="11905"></path><path d="M489.6 128c-9.6 0-19.2 0-28.8 3.2 25.6 35.2 16 83.2-19.2 108.8-25.6 19.2-60.8 19.2-86.4 0-16 76.8 32 150.4 108.8 166.4s150.4-32 166.4-108.8-32-150.4-108.8-166.4c-12.8 0-22.4-3.2-32-3.2zM537.6 668.8l-19.2 19.2 44.8 44.8 96-96-96-96-44.8 44.8 19.2 19.2H512c-227.2 0-412.8-73.6-412.8-163.2 0-54.4 54.4-89.6 99.2-108.8l12.8-6.4-3.2-12.8c-3.2-12.8-6.4-19.2-12.8-28.8L192 268.8l-16 6.4c-89.6 38.4-140.8 99.2-140.8 169.6C35.2 576 236.8 672 512 672h25.6v-3.2zM793.6 252.8l-16-6.4-6.4 25.6c0 9.6-3.2 16-3.2 25.6l-3.2 12.8 12.8 3.2c96 28.8 150.4 76.8 150.4 128 0 64-89.6 121.6-227.2 147.2l-16 3.2 12.8 60.8 16-3.2c172.8-32 278.4-112 278.4-208-3.2-83.2-73.6-147.2-198.4-188.8zM252.8 764.8v44.8h86.4v195.2H384v-214.4l-25.6-25.6zM438.4 764.8v44.8h99.2v51.2h-70.4l-28.8 28.8v89.6l28.8 25.6h115.2v-48h-96v-48h70.4l25.6-28.8v-89.6l-25.6-25.6zM656 764.8l-28.8 28.8v185.6l28.8 28.8h89.6l28.8-28.8v-185.6l-28.8-28.8h-89.6z m70.4 44.8v147.2h-51.2v-147.2h51.2zM899.2 758.4c-3.2-3.2-9.6-9.6-16-9.6-12.8-6.4-28.8-6.4-41.6 0-6.4 3.2-12.8 6.4-16 9.6s-9.6 9.6-9.6 16c-3.2 6.4-3.2 12.8-3.2 19.2s0 12.8 3.2 19.2 6.4 12.8 9.6 16c3.2 6.4 9.6 9.6 16 9.6 6.4 3.2 12.8 3.2 19.2 3.2s12.8 0 19.2-3.2 12.8-6.4 16-9.6c3.2-3.2 9.6-9.6 9.6-16 3.2-6.4 3.2-12.8 3.2-19.2s0-12.8-3.2-19.2c3.2-6.4-3.2-12.8-6.4-16z m-12.8 48c0 3.2-3.2 6.4-6.4 9.6s-6.4 3.2-9.6 6.4c-6.4 3.2-12.8 3.2-19.2 0-3.2 0-6.4-3.2-6.4-6.4-3.2-3.2-3.2-6.4-6.4-9.6 0-3.2-3.2-6.4-3.2-9.6 0-3.2 0-6.4 3.2-9.6 0-3.2 3.2-6.4 6.4-9.6 3.2-3.2 6.4-3.2 9.6-6.4 3.2 0 6.4-3.2 9.6-3.2 3.2 0 6.4 0 9.6 3.2 3.2 0 6.4 3.2 9.6 6.4 3.2 3.2 3.2 6.4 6.4 6.4 0 3.2 3.2 6.4 3.2 9.6-3.2 6.4-6.4 9.6-6.4 12.8z" fill="#23B5FA" p-id="11906"></path></svg>