<?xml version="1.0" standalone="no"?><!DOCTYPE svg PUBLIC "-//W3C//DTD SVG 1.1//EN" "http://www.w3.org/Graphics/SVG/1.1/DTD/svg11.dtd"><svg t="1570688689421" class="icon" viewBox="0 0 1024 1024" version="1.1" xmlns="http://www.w3.org/2000/svg" p-id="3210" xmlns:xlink="http://www.w3.org/1999/xlink" width="200" height="200"><defs><style type="text/css"></style></defs><path d="M819.2 777.6L710.4 672c38.4-48 64-108.8 64-176 0-150.4-121.6-272-272-272s-272 121.6-272 272S352 768 502.4 768c60.8 0 118.4-19.2 163.2-54.4l108.8 105.6c6.4 6.4 12.8 9.6 22.4 9.6 9.6 0 16-3.2 22.4-9.6 12.8-9.6 12.8-28.8 0-41.6zM291.2 496C291.2 380.8 384 288 499.2 288s208 92.8 208 208-92.8 208-208 208c-112 3.2-208-92.8-208-208z" p-id="3211"></path></svg>