<?xml version="1.0" standalone="no"?><!DOCTYPE svg PUBLIC "-//W3C//DTD SVG 1.1//EN" "http://www.w3.org/Graphics/SVG/1.1/DTD/svg11.dtd"><svg t="1619490772436" class="icon" viewBox="0 0 1024 1024" version="1.1" xmlns="http://www.w3.org/2000/svg" p-id="29943" xmlns:xlink="http://www.w3.org/1999/xlink" width="200" height="200"><defs><style type="text/css"></style></defs><path d="M916.48 177.664c-6.656-8.704-15.36-10.752-26.112-8.704L121.856 376.32c-8.704 2.048-15.36 8.704-17.408 19.456-2.048 8.704 2.048 19.456 8.704 24.064l183.808 153.088 84.48 233.472c4.096 8.704 10.752 15.36 21.504 17.408h1.536c8.704 0 17.408-4.096 21.504-12.8l49.664-84.48 144.896 125.44c4.096 4.096 10.752 6.656 17.408 6.656h6.656c8.704-2.048 15.36-6.656 17.408-15.36l259.072-639.488c4.096-8.704 2.048-19.456-4.608-26.112z m-319.488 265.728L501.76 570.88c-4.096 4.096-6.656 12.8-4.096 19.456 0 6.656 4.096 12.8 10.752 17.408 10.752 8.704 28.16 6.656 34.304-4.096l159.744-211.456c6.656-8.704 6.656-21.504 0-30.208-6.656-8.704-19.456-10.752-30.208-6.656l-352.256 172.544h-1.536L184.32 415.232l671.744-183.808-230.912 557.056-142.336-120.832a25.2928 25.2928 0 0 0-17.408-6.656H460.8a35.328 35.328 0 0 0-17.408 12.8l-38.912 65.536-62.464-172.544 254.976-123.392z" p-id="29944"></path></svg>