<svg t="1594291545631" class="icon" viewBox="0 0 1024 1024" version="1.1" xmlns="http://www.w3.org/2000/svg" p-id="17642" width="24" height="24"><path d="M636.8 473.6c-22.4 0-44.8 3.2-64 12.8-3.2-96-86.4-176-185.6-176-102.4 0-185.6 83.2-185.6 185.6 0 9.6 0 22.4 3.2 32h-19.2c-83.2 0-150.4 67.2-150.4 150.4-3.2 86.4 64 153.6 147.2 153.6h451.2c99.2 0 179.2-80 179.2-179.2 3.2-99.2-76.8-179.2-176-179.2z" p-id="17643" fill="#ffffff"></path><path d="M636.8 473.6c-22.4 0-44.8 3.2-64 12.8-3.2-96-86.4-176-185.6-176-102.4 0-185.6 83.2-185.6 185.6 0 9.6 0 22.4 3.2 32h-19.2c-83.2 0-150.4 67.2-150.4 150.4-3.2 86.4 64 153.6 147.2 153.6h451.2c99.2 0 179.2-80 179.2-179.2 3.2-99.2-76.8-179.2-176-179.2zM896 288h-80c-12.8 0-22.4 9.6-22.4 22.4 0 12.8 9.6 22.4 22.4 22.4H896c12.8 0 22.4-9.6 22.4-22.4 0-12.8-9.6-22.4-22.4-22.4zM896 505.6c12.8 0 22.4-9.6 22.4-22.4 0-12.8-9.6-22.4-22.4-22.4h-80c-12.8 0-22.4 9.6-22.4 22.4 0 12.8 9.6 22.4 22.4 22.4H896z" p-id="17644" fill="#ffffff"></path><path d="M940.8 192H537.6c-28.8 0-51.2 22.4-51.2 51.2v41.6c16 6.4 32 12.8 44.8 25.6v-64c0-3.2 3.2-6.4 6.4-6.4h403.2c3.2 0 6.4 3.2 6.4 6.4v128H588.8c6.4 12.8 12.8 28.8 16 44.8h342.4v128h-105.6c6.4 16 9.6 28.8 12.8 44.8h96v86.4c0 12.8 9.6 22.4 22.4 22.4 12.8 0 22.4-9.6 22.4-22.4V243.2C992 214.4 969.6 192 940.8 192z" p-id="17645" fill="#ffffff"></path></svg>