<?xml version="1.0" standalone="no"?><!DOCTYPE svg PUBLIC "-//W3C//DTD SVG 1.1//EN" "http://www.w3.org/Graphics/SVG/1.1/DTD/svg11.dtd"><svg class="icon" width="200px" height="200.00px" viewBox="0 0 1024 1024" version="1.1" xmlns="http://www.w3.org/2000/svg"><path fill="#23B8FF" d="M396.8 678.4c-19.2 0-41.6-16-51.2-32l-67.2-128-147.2-22.4c-19.2-6.4-32-19.2-41.6-35.2-9.6-19.2-3.2-44.8 12.8-60.8l102.4-99.2-22.4-144c0-19.2 6.4-35.2 22.4-51.2l6.4-6.4c28.8-16 48-6.4 57.6 0L393.6 160l128-67.2c19.2-9.6 44.8-9.6 60.8 9.6 9.6 9.6 22.4 25.6 22.4 51.2v3.2l-19.2 134.4 102.4 99.2c16 16 25.6 38.4 16 60.8s-25.6 38.4-48 38.4l-137.6 25.6-67.2 128c-9.6 19.2-22.4 35.2-54.4 35.2zM147.2 448l169.6 22.4 80 150.4s3.2 3.2 6.4 3.2v-3.2l76.8-150.4 169.6-28.8 3.2-6.4s0-3.2-3.2-6.4l-121.6-115.2 25.6-160c0-3.2 0-6.4-6.4-12.8H544l-150.4 76.8-156.8-70.4c-3.2 3.2-3.2 3.2-3.2 6.4l28.8 166.4-121.6 118.4-3.2 3.2c3.2 0 3.2 3.2 9.6 6.4z"  /><path fill="#23B8FF" d="M512 412.8c6.4 0 9.6-3.2 12.8-9.6 3.2-3.2 0-9.6-3.2-16l-51.2-48 9.6-70.4c0-6.4-3.2-9.6-6.4-16-3.2-3.2-9.6-3.2-16-3.2l-64 32-64-32c-3.2 3.2-9.6 3.2-12.8 6.4-3.2 3.2-6.4 6.4-6.4 12.8l12.8 70.4-51.2 48c-3.2 3.2-6.4 9.6-3.2 16 3.2 3.2 6.4 9.6 12.8 9.6l70.4 9.6 32 64c3.2 3.2 9.6 9.6 12.8 9.6 6.4 0 9.6-3.2 12.8-9.6l32-64 70.4-9.6zM281.6 688L256 761.6l-76.8 25.6 76.8 22.4 25.6 76.8 25.6-76.8 76.8-22.4-76.8-25.6zM534.4 665.6l-16 48-51.2 16 51.2 19.2 16 48 16-48 48-19.2-48-16zM912 931.2c-6.4 0-12.8-3.2-19.2-6.4l-288-288c-9.6-9.6-9.6-25.6 0-35.2s25.6-9.6 35.2 0l288 288c9.6 9.6 9.6 25.6 0 35.2-3.2 6.4-9.6 6.4-16 6.4z"  /></svg>