<?xml version="1.0" standalone="no"?><!DOCTYPE svg PUBLIC "-//W3C//DTD SVG 1.1//EN" "http://www.w3.org/Graphics/SVG/1.1/DTD/svg11.dtd"><svg class="icon" width="200px" height="200.00px" viewBox="0 0 1024 1024" version="1.1" xmlns="http://www.w3.org/2000/svg"><path d="M345.6 579.2c64 0 115.2-64 115.2-121.6h-115.2v-115.2c-57.6 3.2-112 51.2-112 118.4-3.2 67.2 48 118.4 112 118.4z" fill="#23B5FA" /><path d="M819.2 137.6h-252.8V80h-112v57.6H64V224h57.6v380.8c0 48 38.4 86.4 83.2 86.4h246.4l-182.4 214.4 41.6 38.4 204.8-243.2 198.4 243.2 41.6-38.4-176-214.4h240c44.8 0 83.2-38.4 83.2-86.4V224H960V137.6h-140.8z m28.8 467.2c0 16-12.8 28.8-28.8 28.8H204.8c-16 0-28.8-12.8-28.8-28.8V224h672v380.8z" fill="#333333" /><path d="M393.6 284.8v115.2h102.4c0-60.8-41.6-115.2-102.4-115.2zM569.6 339.2h224v57.6h-224zM569.6 457.6h224v57.6h-224z" fill="#333333" /></svg>