<?xml version="1.0" standalone="no"?><!DOCTYPE svg PUBLIC "-//W3C//DTD SVG 1.1//EN" "http://www.w3.org/Graphics/SVG/1.1/DTD/svg11.dtd"><svg t="1584429880154" class="icon" viewBox="0 0 1024 1024" version="1.1" xmlns="http://www.w3.org/2000/svg" p-id="16696" xmlns:xlink="http://www.w3.org/1999/xlink" width="300" height="300"><defs><style type="text/css"></style></defs><path d="M672.914286 365.714286l-212.114286 219.428571-113.371429-117.028571c-14.628571-14.628571-32.914286-14.628571-47.542857 0s-14.628571 32.914286 0 47.542857L438.857143 658.285714c3.657143 3.657143 3.657143 3.657143 7.314286 3.657143 10.971429 7.314286 29.257143 7.314286 40.228571-3.657143l234.057143-241.371428c14.628571-14.628571 14.628571-36.571429 0-47.542857-14.628571-14.628571-32.914286-14.628571-47.542857-3.657143z" fill="#39AF5A" p-id="16697"></path><path d="M512 36.571429C248.685714 36.571429 36.571429 248.685714 36.571429 512s212.114286 475.428571 475.428571 475.428571 475.428571-212.114286 475.428571-475.428571S775.314286 36.571429 512 36.571429z m0 874.057142C292.571429 910.628571 113.371429 731.428571 113.371429 512S292.571429 113.371429 512 113.371429 910.628571 292.571429 910.628571 512 731.428571 910.628571 512 910.628571z" fill="#39AF5A" p-id="16698"></path></svg>