<?xml version="1.0" standalone="no"?><!DOCTYPE svg PUBLIC "-//W3C//DTD SVG 1.1//EN" "http://www.w3.org/Graphics/SVG/1.1/DTD/svg11.dtd"><svg t="1587951681174" class="icon" viewBox="0 0 1024 1024" version="1.1" xmlns="http://www.w3.org/2000/svg" p-id="6563" xmlns:xlink="http://www.w3.org/1999/xlink" width="200" height="200"><defs><style type="text/css"></style></defs><path d="M327.68 211.2c10.56 0 23.04 6.08 34.88 16.96 18.88 17.28 34.88 44.48 46.08 78.08l0.32 1.6 0.64 1.28c4.16 10.24 7.04 21.12 8.64 32l0.64 3.52 0.96 3.52c11.2 36.48-9.28 58.56-13.76 63.04-0.96 0.64-1.6 0.96-2.88 1.28-14.4 3.2-32.32 14.4-40.32 34.88-8 21.12-0.96 41.92 7.04 53.44 16 22.4 36.16 50.24 60.16 72.64 18.56 21.76 40.96 41.92 62.72 61.44 5.12 4.48 19.2 15.36 39.36 15.36s38.72-10.88 48.96-29.76c3.2-6.4 7.36-11.2 10.88-13.44 4.16-0.96 10.24-1.92 18.88-1.92 24.64 0 54.4 7.68 80.96 20.16 30.4 15.36 56 36.8 70.72 58.24 11.2 16.32 15.68 32 12.16 43.2l-0.64 2.56-0.32 1.92c0 0.32-8 32.32-35.84 52.8l-1.28 0.96-1.28 1.28c-21.76 18.56-50.24 27.84-84.16 27.84-24.64 0-51.52-4.8-79.68-14.72-75.52-25.92-154.24-83.2-222.4-161.92-51.84-57.6-91.2-122.88-113.6-188.48-10.56-31.04-16.64-60.8-18.56-88.32-1.92-27.52 0.64-50.88 7.04-70.72 9.28-22.72 20.48-40.32 32.64-50.56a117.76 117.76 0 0 1 57.6-26.56l9.28-1.6h4.16m0-51.2c-4.16 0-8.32 0.32-12.48 0.96l-8.96 1.6c-30.72 4.8-58.56 17.6-82.56 37.76-19.2 16-35.2 40.32-47.68 71.68l-0.32 0.32c-8.96 26.56-12.48 56.96-10.24 90.24 1.92 32 8.96 66.56 21.12 101.76 24.64 72.32 67.52 143.68 124.16 206.4 73.28 84.8 160 147.2 243.84 176 33.92 11.52 66.24 17.28 96.32 17.28 45.44 0 85.76-13.44 117.12-39.68 45.12-32.96 55.68-82.88 55.68-82.88 8.32-26.56 1.6-57.6-18.56-87.36-19.52-28.8-51.52-55.36-89.6-74.88h-0.32c-34.56-16.64-72.32-25.92-104-25.92-13.44 0-25.92 1.6-36.8 5.12l-0.32 0.32-0.32 0.32c-18.56 8-30.72 23.68-37.76 37.44-0.96 1.92-2.24 2.24-3.52 2.24-2.24 0-4.8-1.92-4.8-2.24-21.12-18.88-42.56-38.72-59.52-58.56l-0.32-0.32-0.32-0.32c-20.8-18.56-38.4-42.88-55.36-66.56 0 0-1.6-3.2-0.64-5.44 0.64-1.92 3.84-2.88 3.84-2.88 8.64-1.92 16.64-5.76 23.36-10.88 5.76-4.48 52.16-48 30.72-118.08-2.24-14.4-6.08-28.8-11.84-42.56-13.76-42.24-34.56-76.48-59.84-99.84-22.08-20.48-46.4-31.04-70.08-31.04z" p-id="6564" fill="#999999"></path><path d="M585.92 286.08c4.16-12.48 15.04-20.16 27.52-16a167.68 167.68 0 0 1 135.68 195.84c-4.16 12.48-14.08 25.92-32.64 22.72-12.48-4.16-25.92-14.08-22.72-32.64 9.28-61.12-29.44-121.28-90.24-130.56-12.8-4.48-21.12-21.12-17.6-39.36 0.64 5.76 0 0 0 0z" p-id="6565" fill="#999999"></path><path d="M594.24 176.96c4.16-12.48 15.04-20.16 27.52-16 73.6 13.44 139.84 57.6 184 117.12 45.12 65.28 62.08 140.48 48.64 214.08-4.16 12.48-14.08 25.92-32.64 22.72-12.48-4.16-25.92-14.08-22.72-32.64 9.28-61.12 0-125.44-36.8-174.08s-89.6-82.88-151.68-97.92c-11.2 1.92-19.84-14.72-16.32-33.28 0.64 6.08 0 0 0 0z" p-id="6566" fill="#999999"></path></svg>