<?xml version="1.0" standalone="no"?><!DOCTYPE svg PUBLIC "-//W3C//DTD SVG 1.1//EN" "http://www.w3.org/Graphics/SVG/1.1/DTD/svg11.dtd"><svg t="1611126932411" class="icon" viewBox="0 0 1024 1024" version="1.1" xmlns="http://www.w3.org/2000/svg" p-id="9062" xmlns:xlink="http://www.w3.org/1999/xlink" width="200" height="200"><defs><style type="text/css"></style></defs><path d="M512 1024c-281.6 0-512-230.4-512-512s230.4-512 512-512 512 230.4 512 512-230.4 512-512 512zM512 73.142857C270.628571 73.142857 73.142857 270.628571 73.142857 512s197.485714 438.857143 438.857143 438.857143 438.857143-197.485714 438.857143-438.857143-197.485714-438.857143-438.857143-438.857143z m0 512c-20.48 0-36.571429-16.822857-36.571429-36.571428V292.571429c0-20.48 16.091429-36.571429 36.571429-36.571429 19.748571 0 36.571429 16.091429 36.571429 36.571429v256c0 19.748571-16.822857 36.571429-36.571429 36.571428z m0 182.857143c-20.48 0-36.571429-16.822857-36.571429-36.571429v-36.571428c0-19.748571 16.091429-36.571429 36.571429-36.571429 19.748571 0 36.571429 16.822857 36.571429 36.571429v36.571428c0 19.748571-16.822857 36.571429-36.571429 36.571429z" p-id="9063" fill="#F69A23"></path></svg>