<?xml version="1.0" standalone="no"?><!DOCTYPE svg PUBLIC "-//W3C//DTD SVG 1.1//EN" "http://www.w3.org/Graphics/SVG/1.1/DTD/svg11.dtd"><svg t="1614758872244" class="icon" viewBox="0 0 1024 1024" version="1.1" xmlns="http://www.w3.org/2000/svg" p-id="10256" xmlns:xlink="http://www.w3.org/1999/xlink" width="200" height="200"><defs><style type="text/css"></style></defs><path d="M486.4 0c-144 0-259.2 115.2-259.2 259.2s115.2 259.2 259.2 259.2c70.4 0 134.4-25.6 182.4-76.8 44.8-51.2 76.8-112 76.8-182.4 0-140.8-115.2-259.2-259.2-259.2zM291.2 259.2c0-105.6 86.4-192 192-192 54.4 0 99.2 19.2 134.4 57.6 35.2 35.2 57.6 86.4 57.6 134.4s-19.2 99.2-57.6 134.4c-35.2 35.2-86.4 57.6-134.4 57.6-102.4 3.2-192-86.4-192-192z" p-id="10257"></path><path d="M486.4 115.2c-9.6 0-19.2 0-28.8 3.2 25.6 35.2 16 86.4-19.2 112-25.6 19.2-64 19.2-89.6 0-16 80 32 156.8 112 172.8s156.8-32 172.8-112-32-156.8-112-172.8c-16 0-25.6-3.2-35.2-3.2z m51.2 560l-19.2 19.2 44.8 44.8 99.2-99.2-99.2-99.2-44.8 44.8 19.2 19.2H512c-236.8 0-428.8-76.8-428.8-169.6 0-57.6 57.6-92.8 102.4-112l12.8-3.2-3.2-12.8c-3.2-12.8-6.4-19.2-12.8-32l-3.2-16-16 6.4C70.4 304 16 368 16 441.6c0 134.4 208 236.8 492.8 236.8h25.6v-3.2z m265.6-432l-16-6.4-6.4 25.6c0 9.6-3.2 16-3.2 25.6l-3.2 12.8 12.8 3.2c99.2 28.8 156.8 80 156.8 131.2 0 67.2-92.8 124.8-236.8 153.6l-16 3.2 12.8 64 16-3.2c179.2-32 288-115.2 288-214.4-3.2-86.4-76.8-150.4-204.8-195.2zM243.2 774.4v44.8h89.6v201.6h44.8V800l-25.6-25.6H243.2z m192 0v44.8h102.4v54.4h-73.6l-28.8 28.8v92.8l28.8 25.6h118.4v-51.2h-99.2v-51.2h73.6l25.6-28.8V800l-25.6-25.6h-121.6z m224 0l-28.8 28.8v192l28.8 28.8h92.8l28.8-28.8v-192l-28.8-28.8h-92.8z m73.6 44.8v153.6h-54.4v-153.6h54.4z m179.2-51.2c-3.2-3.2-9.6-9.6-16-9.6-12.8-6.4-28.8-6.4-41.6 0-6.4 3.2-12.8 6.4-16 9.6-3.2 3.2-9.6 9.6-9.6 16-3.2 6.4-3.2 12.8-3.2 19.2s0 12.8 3.2 19.2c3.2 6.4 6.4 12.8 9.6 16 3.2 6.4 9.6 9.6 16 9.6 6.4 3.2 12.8 3.2 19.2 3.2s12.8 0 19.2-3.2c6.4-3.2 12.8-6.4 16-9.6 3.2-3.2 9.6-9.6 9.6-16 3.2-6.4 3.2-12.8 3.2-19.2s0-12.8-3.2-19.2c3.2-6.4-3.2-12.8-6.4-16z m-12.8 48c0 3.2-3.2 6.4-6.4 9.6-3.2 3.2-6.4 3.2-9.6 6.4-6.4 3.2-12.8 3.2-19.2 0-3.2 0-6.4-3.2-6.4-6.4-3.2-3.2-3.2-6.4-6.4-9.6 0-3.2-3.2-6.4-3.2-9.6 0-3.2 0-6.4 3.2-9.6 0-3.2 3.2-6.4 6.4-9.6 3.2-3.2 6.4-3.2 9.6-6.4 3.2 0 6.4-3.2 9.6-3.2s6.4 0 9.6 3.2c3.2 0 6.4 3.2 9.6 6.4 3.2 3.2 3.2 6.4 6.4 6.4 0 3.2 3.2 6.4 3.2 9.6-3.2 6.4-6.4 9.6-6.4 12.8z" p-id="10258"></path></svg>