<svg xmlns="http://www.w3.org/2000/svg" width="22.586" height="22.43" viewBox="0 0 22.586 22.43">
  <defs>
    <style>
      .cls-1 {
        fill: #555;
      }

      .cls-2 {
        fill: #19a0f1;
      }
    </style>
  </defs>
  <g id="组_66" data-name="组 66" transform="translate(-1938.707 -503)">
    <path id="路径_12" data-name="路径 12" class="cls-1" d="M253.377,327.086V313.225l6.727,6.716a1.038,1.038,0,0,0,1.467-1.467l-8.375-8.387a1.05,1.05,0,0,0-.745-.3c-.034,0-.068-.023-.1-.023a1.027,1.027,0,0,0-.418.09.931.931,0,0,0-.361.226l-8.387,8.375a1.036,1.036,0,0,0,0,1.467,1.025,1.025,0,0,0,.734.3,1.044,1.044,0,0,0,.734-.3l6.671-6.671v13.8a1.036,1.036,0,0,0,1.038,1.038A.981.981,0,0,0,253.377,327.086Z" transform="translate(1697.622 197.337)"/>
    <path id="路径_13" data-name="路径 13" class="cls-2" d="M213.536,195.677h-20.5a1.038,1.038,0,0,1,0-2.077h20.509a1.038,1.038,0,1,1-.011,2.077Z" transform="translate(1746.707 309.4)"/>
  </g>
</svg>
