<?xml version="1.0" standalone="no"?><!DOCTYPE svg PUBLIC "-//W3C//DTD SVG 1.1//EN" "http://www.w3.org/Graphics/SVG/1.1/DTD/svg11.dtd"><svg t="1589770362636" class="icon" viewBox="0 0 1024 1024" version="1.1" xmlns="http://www.w3.org/2000/svg" p-id="17395" xmlns:xlink="http://www.w3.org/1999/xlink" width="300" height="300"><defs><style type="text/css"></style></defs><path d="M198.4 134.4c-19.2-19.2-44.8-19.2-64 0s-19.2 44.8 0 64l691.2 691.2c6.4 6.4 19.2 12.8 32 12.8s25.6-6.4 32-12.8c19.2-19.2 19.2-44.8 0-64L198.4 134.4zM953.6 364.8c-38.4-38.4-89.6-57.6-147.2-57.6h-160c-32 0-51.2 25.6-51.2 51.2 0 32 25.6 51.2 51.2 51.2h160c32 0 57.6 12.8 76.8 32 12.8 12.8 32 32 32 64s-12.8 51.2-25.6 64c-19.2 19.2-51.2 32-83.2 32h-12.8l96 96c32-12.8 57.6-25.6 76.8-51.2 38.4-38.4 57.6-89.6 57.6-140.8-6.4-51.2-32-102.4-70.4-140.8zM384 601.6H224c-32 0-57.6-6.4-76.8-25.6-12.8-12.8-32-32-32-64s12.8-51.2 25.6-64c19.2-19.2 51.2-32 83.2-32h12.8L140.8 326.4c-25.6 6.4-51.2 25.6-76.8 44.8C25.6 409.6 6.4 460.8 6.4 512c0 57.6 25.6 108.8 64 147.2s89.6 57.6 147.2 57.6H384c32 0 51.2-25.6 51.2-51.2 0-38.4-25.6-64-51.2-64z" p-id="17396"></path></svg>