<?xml version="1.0" standalone="no"?><!DOCTYPE svg PUBLIC "-//W3C//DTD SVG 1.1//EN" "http://www.w3.org/Graphics/SVG/1.1/DTD/svg11.dtd"><svg t="1583638622008" class="icon" viewBox="0 0 1024 1024" version="1.1" xmlns="http://www.w3.org/2000/svg" p-id="3810" xmlns:xlink="http://www.w3.org/1999/xlink" width="300" height="300"><defs><style type="text/css"></style></defs><path d="M508.8 873.6H89.6c-16 0-25.6-12.8-25.6-25.6V89.6c0-16 12.8-25.6 25.6-25.6H832c16 0 25.6 12.8 25.6 25.6v409.6c0 16 12.8 25.6 25.6 25.6 16 0 25.6-12.8 25.6-25.6V60.8c0-32-25.6-57.6-57.6-57.6H57.6C25.6 3.2 0 28.8 0 60.8v812.8c0 32 25.6 57.6 57.6 57.6h444.8c16 0 25.6-12.8 25.6-25.6 9.6-19.2-3.2-32-19.2-32z" p-id="3811"></path><path d="M502.4 739.2c19.2-41.6 67.2-67.2 112-67.2h54.4v-60.8c0-54.4 32-99.2 80-121.6L681.6 288l-230.4 304-67.2-105.6-246.4 252.8h364.8zM380.8 313.6c0-41.6-32-73.6-73.6-73.6s-73.6 32-73.6 73.6 32 73.6 73.6 73.6 73.6-35.2 73.6-73.6z m614.4 515.2h-384c-16 0-28.8-12.8-28.8-28.8s12.8-28.8 28.8-28.8h384c16 0 28.8 12.8 28.8 28.8s-12.8 28.8-28.8 28.8z" p-id="3812"></path><path d="M832 608v384c0 16-12.8 28.8-28.8 28.8s-28.8-12.8-28.8-28.8V608c0-16 12.8-28.8 28.8-28.8s28.8 12.8 28.8 28.8z" p-id="3813"></path></svg>