<?xml version="1.0" standalone="no"?><!DOCTYPE svg PUBLIC "-//W3C//DTD SVG 1.1//EN" "http://www.w3.org/Graphics/SVG/1.1/DTD/svg11.dtd"><svg t="1591605060356" class="icon" viewBox="0 0 1024 1024" version="1.1" xmlns="http://www.w3.org/2000/svg" p-id="7111" xmlns:xlink="http://www.w3.org/1999/xlink" width="16" height="16"><defs><style type="text/css"></style></defs><path d="M786.346667 382.293333c-27.306667-120.746667-132.693333-207.786667-256.426667-212.48S294.826667 244.053333 258.133333 362.24h-2.56C138.24 362.24 42.666667 457.813333 42.666667 575.146667s95.146667 212.906667 212.906666 212.906666c16.64 0 30.293333-13.653333 30.293334-30.293333s-13.653333-30.293333-30.293334-30.293333c-57.173333 0-109.226667-31.573333-135.68-81.92s-22.186667-111.786667 10.666667-158.293334 88.746667-70.826667 145.493333-63.146666l27.733334 3.84 6.4-27.306667a213.589333 213.589333 0 0 1 218.026666-171.093333c104.96 4.266667 191.146667 84.48 203.093334 188.586666l3.413333 30.293334 30.293333-3.84a142.506667 142.506667 0 1 1 18.346667 283.733333c-16.64 0-30.293333 13.653333-30.293333 30.293333s13.653333 30.293333 30.293333 30.293334v-0.426667A202.666667 202.666667 0 0 0 981.333333 587.52a203.306667 203.306667 0 0 0-194.986666-205.226667z" p-id="7112"></path><path d="M549.546667 510.72c-19.626667-18.773333-50.773333-18.773333-70.826667 0L353.706667 635.733333c-11.093333 11.946667-10.666667 30.293333 0.853333 41.813334s29.866667 11.946667 41.813333 0.853333l87.893334-87.893333v233.813333c0 8.106667 2.986667 15.786667 8.96 21.333333 5.546667 5.546667 13.226667 8.96 21.333333 8.96 16.64 0 30.293333-13.653333 30.293333-30.293333v-233.813333l87.893334 87.893333c5.546667 5.546667 13.226667 8.96 21.333333 8.96 12.373333 0 23.04-7.253333 27.733333-18.773333s2.133333-24.32-6.4-32.853334l-125.866666-125.013333z" p-id="7113"></path></svg>