<?xml version="1.0" standalone="no"?><!DOCTYPE svg PUBLIC "-//W3C//DTD SVG 1.1//EN" "http://www.w3.org/Graphics/SVG/1.1/DTD/svg11.dtd"><svg t="1608533253736" class="icon" viewBox="0 0 1024 1024" version="1.1" xmlns="http://www.w3.org/2000/svg" p-id="8433" xmlns:xlink="http://www.w3.org/1999/xlink" width="32" height="32"><defs><style type="text/css"></style></defs><path d="M80.73029 80.73029h276.182573c21.244813 0 38.240664-16.995851 38.240664-38.240663s-21.244813-42.489627-42.489627-42.489627H80.73029C33.991701 0 0 33.991701 0 80.73029v276.182573c0 21.244813 16.995851 38.240664 38.240664 38.240664s38.240664-16.995851 38.240664-38.240664V80.73029zM939.020747 0h-276.182573c-21.244813 0-38.240664 16.995851-38.240664 38.240664s16.995851 38.240664 38.240664 38.240664h276.182573v276.182572c0 21.244813 16.995851 38.240664 38.240664 38.240664s38.240664-16.995851 38.240664-38.240664V80.73029C1019.751037 33.991701 985.759336 0 939.020747 0zM80.73029 939.020747v-276.182573c0-21.244813-16.995851-38.240664-38.240663-38.240664s-42.489627 21.244813-42.489627 42.489627v276.182573c0 42.489627 33.991701 80.73029 80.73029 80.73029h276.182573c21.244813 0 38.240664-16.995851 38.240664-38.240664s-16.995851-38.240664-38.240664-38.240664l-276.182573-8.497925z m858.290457 0h-276.182573c-21.244813 0-38.240664 16.995851-38.240664 38.240664s16.995851 38.240664 38.240664 38.240664h276.182573c42.489627 0 80.73029-33.991701 80.73029-80.730291v-276.182572c0-21.244813-16.995851-38.240664-38.240664-38.240664s-38.240664 16.995851-38.240663 38.240664v280.431535zM203.950207 739.319502c8.497925 4.248963 16.995851 8.497925 25.493776 8.497925 12.746888 0 25.493776-4.248963 29.742739-16.99585l148.713693-199.701245c8.497925-12.746888 8.497925-33.991701 0-46.738589L263.435685 288.929461c-12.746888-16.995851-38.240664-21.244813-55.236515-8.497926s-21.244813 38.240664-8.497925 55.236515l127.468879 169.958506L195.452282 679.834025c-8.497925 21.244813-8.497925 42.489627 8.497925 59.485477z" p-id="8434"></path><path d="M611.850622 484.381743L467.385892 288.929461c-12.746888-16.995851-38.240664-21.244813-55.236514-8.497926s-21.244813 38.240664-8.497926 55.236515l127.46888 169.958506L399.40249 679.834025c-12.746888 16.995851-8.497925 42.489627 8.497925 55.236514 8.497925 4.248963 16.995851 8.497925 25.493776 8.497926 12.746888 0 25.493776-4.248963 29.742738-16.995851l148.713693-199.701245c8.497925-8.497925 8.497925-29.742739 0-42.489626z" p-id="8435"></path><path d="M671.3361 730.821577l148.713693-199.701245c8.497925-12.746888 8.497925-33.991701 0-46.738589l-144.464731-195.452282c-12.746888-16.995851-38.240664-21.244813-55.236514-8.497926s-21.244813 38.240664-8.497926 55.236515l127.46888 169.958506-131.717842 174.207469c-12.746888 16.995851-8.497925 42.489627 8.497925 55.236514 8.497925 4.248963 16.995851 8.497925 25.493776 8.497926 8.497925 0 21.244813-4.248963 29.742739-12.746888z" p-id="8436"></path></svg>