<?xml version="1.0" standalone="no"?><!DOCTYPE svg PUBLIC "-//W3C//DTD SVG 1.1//EN" "http://www.w3.org/Graphics/SVG/1.1/DTD/svg11.dtd"><svg t="1608533315032" class="icon" viewBox="0 0 1025 1024" version="1.1" xmlns="http://www.w3.org/2000/svg" p-id="8939" xmlns:xlink="http://www.w3.org/1999/xlink" width="32.03125" height="32"><defs><style type="text/css"></style></defs><path d="M192 426.666667c0 34.133333 25.6 59.733333 59.733333 59.733333s59.733333-25.6 59.733334-59.733333c0-34.133333-25.6-59.733333-59.733334-59.733334-34.133333 0-59.733333 29.866667-59.733333 59.733334zM452.266667 426.666667c0 34.133333 25.6 59.733333 59.733333 59.733333s59.733333-25.6 59.733333-59.733333c0-34.133333-25.6-59.733333-59.733333-59.733334s-59.733333 29.866667-59.733333 59.733334zM716.8 426.666667c0 34.133333 25.6 59.733333 59.733333 59.733333s59.733333-25.6 59.733334-59.733333c0-34.133333-25.6-59.733333-59.733334-59.733334s-59.733333 29.866667-59.733333 59.733334zM661.333333 729.6v196.266667c0 4.266667 4.266667 8.533333 8.533334 8.533333h81.066666v-217.6h-81.066666c-4.266667 4.266667-8.533333 8.533333-8.533334 12.8zM1019.733333 733.866667c-8.533333-12.8-25.6-12.8-29.866666-12.8h-106.666667l34.133333-42.666667c25.6-29.866667 17.066667-51.2 12.8-55.466667-8.533333-8.533333-17.066667-12.8-29.866666-12.8-8.533333 0-17.066667 4.266667-21.333334 4.266667-12.8 12.8-46.933333 59.733333-76.8 98.133333l-4.266666 4.266667V938.666667h162.133333c76.8-140.8 68.266667-187.733333 59.733333-204.8z" p-id="8940"></path><path d="M989.866667 115.2c-21.333333-25.6-55.466667-38.4-89.6-38.4H128c-68.266667 0-128 55.466667-128 128v443.733333c0 68.266667 55.466667 128 128 128h81.066667v123.733334c0 17.066667 8.533333 29.866667 25.6 42.666666 4.266667 4.266667 12.8 4.266667 21.333333 4.266667s17.066667-4.266667 25.6-8.533333l221.866667-162.133334h68.266666v-81.066666h-89.6l-192 136.533333v-136.533333H128c-25.6 0-46.933333-21.333333-46.933333-46.933334V204.8c0-25.6 21.333333-46.933333 46.933333-46.933333h768c25.6 0 46.933333 21.333333 46.933333 46.933333v324.266667H1024V204.8c0-34.133333-12.8-64-34.133333-89.6z" p-id="8941"></path></svg>