<?xml version="1.0" standalone="no"?><!DOCTYPE svg PUBLIC "-//W3C//DTD SVG 1.1//EN" "http://www.w3.org/Graphics/SVG/1.1/DTD/svg11.dtd"><svg t="1609147994874" class="icon" viewBox="0 0 1024 1024" version="1.1" xmlns="http://www.w3.org/2000/svg" p-id="11291" xmlns:xlink="http://www.w3.org/1999/xlink" width="200" height="200"><defs><style type="text/css"></style></defs><path d="M123.733333 913.066667h-29.866666c-55.466667 0-93.866667-38.4-93.866667-93.866667V170.666667c0-29.866667 12.8-55.466667 34.133333-72.533334 17.066667-12.8 38.4-17.066667 59.733334-17.066666h29.866666c128 46.933333 247.466667 68.266667 349.866667 68.266666 115.2 0 238.933333-29.866667 341.333333-59.733333 12.8-8.533333 25.6-8.533333 34.133334-8.533333 17.066667 0 38.4 8.533333 51.2 17.066666 29.866667 21.333333 42.666667 51.2 34.133333 76.8v157.866667c0 21.333333-17.066667 38.4-38.4 38.4s-38.4-17.066667-38.4-38.4V166.4l-4.266667-4.266667v-4.266666l-8.533333 4.266666c-110.933333 34.133333-243.2 64-371.2 64-106.666667 0-230.4-25.6-366.933333-68.266666H85.333333v4.266666s-4.266667 4.266667-4.266666 12.8v648.533334c0 12.8 4.266667 17.066667 17.066666 17.066666h12.8c98.133333-34.133333 221.866667-55.466667 358.4-55.466666h38.4c21.333333 0 38.4 17.066667 38.4 38.4s-17.066667 38.4-38.4 38.4H469.333333c-128 0-243.2 17.066667-337.066666 51.2h-8.533334z" p-id="11292" fill="#ffffff"></path><path d="M42.666667 712.533333c-8.533333 0-17.066667-4.266667-25.6-8.533333-17.066667-17.066667-17.066667-42.666667-4.266667-55.466667l256-298.666666c4.266667-12.8 17.066667-17.066667 29.866667-17.066667 12.8 0 21.333333 8.533333 29.866666 17.066667l136.533334 204.8 72.533333-25.6c21.333333-8.533333 42.666667 4.266667 46.933333 25.6 8.533333 21.333333-4.266667 42.666667-25.6 46.933333l-102.4 34.133333c-17.066667 4.266667-34.133333 0-42.666666-17.066666l-123.733334-187.733334-221.866666 260.266667c-4.266667 12.8-17.066667 21.333333-25.6 21.333333zM832 750.933333c-29.866667 0-51.2 21.333333-51.2 51.2s21.333333 51.2 51.2 51.2 51.2-21.333333 51.2-51.2-25.6-51.2-51.2-51.2z" p-id="11293" fill="#ffffff"></path><path d="M955.733333 657.066667v-12.8c0-68.266667-55.466667-128-128-128-68.266667 0-128 55.466667-128 128v12.8H640v285.866666h379.733333v-285.866666h-64z m-183.466666-17.066667c0-34.133333 25.6-59.733333 59.733333-59.733333h4.266667c34.133333 0 55.466667 25.6 55.466666 59.733333v12.8h-119.466666V640z m-64 238.933333V725.333333h247.466666v153.6h-247.466666z" p-id="11294" fill="#ffffff"></path></svg>