<?xml version="1.0" standalone="no"?><!DOCTYPE svg PUBLIC "-//W3C//DTD SVG 1.1//EN" "http://www.w3.org/Graphics/SVG/1.1/DTD/svg11.dtd"><svg t="1608533357361" class="icon" viewBox="0 0 1024 1024" version="1.1" xmlns="http://www.w3.org/2000/svg" p-id="9950" xmlns:xlink="http://www.w3.org/1999/xlink" width="32" height="32"><defs><style type="text/css"></style></defs><path d="M938.666667 85.333333v196.266667H85.333333V85.333333h853.333334m12.8-85.333333H72.533333C34.133333 0 0 34.133333 0 72.533333v217.6c0 38.4 34.133333 72.533333 72.533333 72.533334h878.933334c38.4 0 72.533333-34.133333 72.533333-72.533334V72.533333c0-38.4-34.133333-72.533333-72.533333-72.533333z" p-id="9951"></path><path d="M806.4 119.466667c34.133333 0 64 29.866667 64 64s-29.866667 64-64 64-64-29.866667-64-64 25.6-64 64-64zM938.666667 537.6V938.666667H85.333333v-401.066667h853.333334m12.8-85.333333H72.533333c-38.4 0-72.533333 34.133333-72.533333 72.533333v426.666667c0 38.4 34.133333 72.533333 72.533333 72.533333h878.933334c38.4 0 72.533333-34.133333 72.533333-72.533333v-426.666667c0-42.666667-34.133333-72.533333-72.533333-72.533333z" p-id="9952"></path><path d="M512 597.333333c21.333333 0 38.4 17.066667 38.4 38.4v209.066667c0 21.333333-17.066667 38.4-38.4 38.4s-38.4-17.066667-38.4-38.4v-209.066667c0-21.333333 17.066667-38.4 38.4-38.4zM763.733333 597.333333c21.333333 0 38.4 17.066667 38.4 38.4v209.066667c0 21.333333-17.066667 38.4-38.4 38.4s-38.4-21.333333-38.4-42.666667v-209.066666c0-17.066667 17.066667-34.133333 38.4-34.133334zM260.266667 597.333333c21.333333 0 38.4 17.066667 38.4 38.4v209.066667c0 21.333333-17.066667 38.4-38.4 38.4s-38.4-17.066667-38.4-38.4v-209.066667c4.266667-21.333333 21.333333-38.4 38.4-38.4z" p-id="9953"></path></svg>