<?xml version="1.0" standalone="no"?><!DOCTYPE svg PUBLIC "-//W3C//DTD SVG 1.1//EN" "http://www.w3.org/Graphics/SVG/1.1/DTD/svg11.dtd"><svg t="1608532867930" class="icon" viewBox="0 0 1024 1024" version="1.1" xmlns="http://www.w3.org/2000/svg" p-id="7931" xmlns:xlink="http://www.w3.org/1999/xlink" width="32" height="32"><defs><style type="text/css"></style></defs><path d="M554.489627 849.792531c191.20332-21.244813 335.66805-182.705394 335.668049-378.157676v-42.489627c0-21.244813-16.995851-42.489627-42.489626-42.489626-21.244813 0-42.489627 16.995851-42.489627 42.489626v42.489627c0 161.460581-131.717842 297.427386-297.427386 297.427386s-297.427386-131.717842-297.427386-297.427386v-42.489627c0-21.244813-16.995851-42.489627-42.489626-42.489626-21.244813 0-42.489627 16.995851-42.489627 42.489626v42.489627c0 195.452282 144.46473 356.912863 335.66805 378.157676v89.228216H257.062241c-21.244813 0-42.489627 16.995851-42.489627 42.489626 0 21.244813 16.995851 42.489627 42.489627 42.489627h509.875518c21.244813 0 42.489627-16.995851 42.489627-42.489627 0-21.244813-16.995851-42.489627-42.489627-42.489626h-212.448132V849.792531z" p-id="7932"></path><path d="M512 692.580913c118.970954 0 216.697095-97.726141 216.697095-216.697096v-254.937759C728.697095 97.726141 630.970954 0 512 0S291.053942 97.726141 291.053942 220.946058v254.937759c0 59.485477 21.244813 114.721992 63.73444 152.962656 42.489627 38.240664 97.726141 63.73444 157.211618 63.73444z m-131.717842-220.946058v-254.93776C380.282158 144.46473 439.767635 84.979253 512 84.979253c72.232365 0 131.717842 59.485477 131.717842 131.717842v254.93776c0 72.232365-59.485477 131.717842-131.717842 131.717842-72.232365 0-131.717842-59.485477-131.717842-131.717842z" p-id="7933"></path></svg>