<?xml version="1.0" standalone="no"?><!DOCTYPE svg PUBLIC "-//W3C//DTD SVG 1.1//EN" "http://www.w3.org/Graphics/SVG/1.1/DTD/svg11.dtd"><svg t="1608532832687" class="icon" viewBox="0 0 1027 1024" version="1.1" xmlns="http://www.w3.org/2000/svg" p-id="7174" xmlns:xlink="http://www.w3.org/1999/xlink" width="32.09375" height="32"><defs><style type="text/css"></style></defs><path d="M1023.003307 729.6c-8.533333-17.066667-21.333333-25.6-38.4-25.6-4.266667 0-8.533333 0-17.066667 4.266667L519.53664 896 58.73664 699.733333c-4.266667-4.266667-8.533333-4.266667-17.066667-4.266666-17.066667 0-29.866667 8.533333-38.4 25.6-8.533333 21.333333 0 46.933333 21.333334 55.466666l477.866666 200.533334c4.266667 4.266667 8.533333 4.266667 17.066667 4.266666 4.266667 0 12.8 0 17.066667-4.266666l460.8-192c25.6-12.8 34.133333-34.133333 25.6-55.466667z" p-id="7175"></path><path d="M28.869973 541.866667l477.866667 200.533333c4.266667 4.266667 8.533333 4.266667 17.066667 4.266667 4.266667 0 12.8 0 17.066666-4.266667l460.8-192c21.333333-8.533333 29.866667-34.133333 21.333334-55.466667-4.266667-17.066667-21.333333-25.6-38.4-25.6-4.266667 0-8.533333 0-17.066667 4.266667l-448 187.733333-460.8-196.266666c-4.266667 0-8.533333-4.266667-17.066667-4.266667-17.066667 0-29.866667 8.533333-38.4 25.6-4.266667 21.333333 4.266667 46.933333 25.6 55.466667z" p-id="7176"></path><path d="M28.869973 320l477.866667 200.533333c4.266667 4.266667 8.533333 4.266667 17.066667 4.266667 4.266667 0 12.8 0 17.066666-4.266667l460.8-192c17.066667-8.533333 25.6-25.6 25.6-42.666666s-8.533333-29.866667-25.6-38.4L523.803307 51.2c-4.266667 0-8.533333-4.266667-12.8-4.266667h-4.266667c-4.266667 0-8.533333 0-17.066667 4.266667L28.869973 243.2c-8.533333 4.266667-17.066667 12.8-21.333333 21.333333-8.533333 21.333333 0 46.933333 21.333333 55.466667z m477.866667-183.466667l362.666667 153.6-349.866667 145.066667-362.666667-153.6 349.866667-145.066667z" p-id="7177"></path></svg>