<?xml version="1.0" standalone="no"?><!DOCTYPE svg PUBLIC "-//W3C//DTD SVG 1.1//EN" "http://www.w3.org/Graphics/SVG/1.1/DTD/svg11.dtd"><svg t="1608533346050" class="icon" viewBox="0 0 1024 1024" version="1.1" xmlns="http://www.w3.org/2000/svg" p-id="9697" xmlns:xlink="http://www.w3.org/1999/xlink" width="32" height="32"><defs><style type="text/css"></style></defs><path d="M981.333333 989.866667H42.666667c-25.6 0-42.666667-17.066667-42.666667-42.666667V76.8c0-25.6 17.066667-42.666667 42.666667-42.666667s42.666667 17.066667 42.666666 42.666667v827.733333h896c25.6 0 42.666667 17.066667 42.666667 42.666667s-17.066667 42.666667-42.666667 42.666667z" p-id="9698"></path><path d="M477.866667 789.333333c-25.6 0-42.666667-17.066667-42.666667-42.666666V76.8c0-25.6 17.066667-42.666667 42.666667-42.666667s42.666667 17.066667 42.666666 42.666667v669.866667c0 21.333333-17.066667 42.666667-42.666666 42.666666zM900.266667 789.333333c-25.6 0-42.666667-17.066667-42.666667-42.666666V76.8c0-25.6 17.066667-42.666667 42.666667-42.666667s42.666667 17.066667 42.666666 42.666667v669.866667c0 21.333333-21.333333 42.666667-42.666666 42.666666zM691.2 789.333333c-25.6 0-42.666667-17.066667-42.666667-42.666666V315.733333c0-25.6 17.066667-42.666667 42.666667-42.666666s42.666667 17.066667 42.666667 42.666666v430.933334c0 21.333333-21.333333 42.666667-42.666667 42.666666zM268.8 789.333333c-25.6 0-42.666667-17.066667-42.666667-42.666666V315.733333c0-25.6 17.066667-42.666667 42.666667-42.666666s42.666667 17.066667 42.666667 42.666666v430.933334c0 21.333333-17.066667 42.666667-42.666667 42.666666z" p-id="9699"></path></svg>