<?xml version="1.0" standalone="no"?><!DOCTYPE svg PUBLIC "-//W3C//DTD SVG 1.1//EN" "http://www.w3.org/Graphics/SVG/1.1/DTD/svg11.dtd"><svg t="1614149965442" class="icon" viewBox="0 0 1024 1024" version="1.1" xmlns="http://www.w3.org/2000/svg" p-id="8668" xmlns:xlink="http://www.w3.org/1999/xlink" width="200" height="200"><defs><style type="text/css"></style></defs><path d="M153.6 691.2v8.533333c25.6 243.2 247.466667 315.733333 358.4 315.733334 21.333333 0 42.666667-17.066667 42.666667-38.4s-17.066667-42.666667-38.4-42.666667c-8.533333 0-251.733333-8.533333-277.333334-234.666667v-8.533333l25.6 17.066667c8.533333 4.266667 12.8 8.533333 21.333334 8.533333 12.8 0 25.6-8.533333 34.133333-17.066667 4.266667-8.533333 8.533333-21.333333 4.266667-29.866666-4.266667-12.8-8.533333-21.333333-17.066667-25.6l-85.333333-59.733334c-4.266667 0-4.266667-4.266667-8.533334-4.266666H200.533333h-4.266666-8.533334-4.266666c-4.266667 0-4.266667 4.266667-8.533334 4.266666L85.333333 640c-8.533333 4.266667-17.066667 17.066667-17.066666 25.6-4.266667 12.8 0 21.333333 4.266666 29.866667 8.533333 12.8 21.333333 17.066667 34.133334 17.066666 8.533333 0 17.066667-4.266667 21.333333-8.533333l25.6-12.8zM977.066667 644.266667h-157.866667v-42.666667c0-21.333333-17.066667-34.133333-34.133333-34.133333s-34.133333 17.066667-34.133334 34.133333v42.666667h-157.866666c-8.533333 0-34.133333 4.266667-34.133334 25.6v192c0 21.333333 17.066667 42.666667 34.133334 42.666666h157.866666V981.333333c0 21.333333 17.066667 34.133333 34.133334 34.133334s34.133333-17.066667 34.133333-34.133334v-76.8h157.866667c21.333333 0 34.133333-25.6 34.133333-42.666666v-192c4.266667-21.333333-21.333333-25.6-34.133333-25.6z m-226.133334 192h-119.466666v-119.466667h119.466666v119.466667z m192 0h-119.466666v-119.466667h119.466666v119.466667zM55.466667 443.733333h260.266666c21.333333 0 42.666667-17.066667 42.666667-42.666666 0-21.333333-17.066667-42.666667-42.666667-42.666667H93.866667V281.6h226.133333c21.333333 0 42.666667-17.066667 42.666667-42.666667s-17.066667-42.666667-42.666667-42.666666H93.866667V119.466667h226.133333c21.333333 0 42.666667-17.066667 42.666667-42.666667s-17.066667-42.666667-42.666667-42.666667h-256-8.533333-4.266667c-21.333333 0-42.666667 17.066667-42.666667 42.666667v320c0 21.333333 17.066667 42.666667 42.666667 42.666667 0 4.266667 4.266667 4.266667 4.266667 4.266666zM776.533333 298.666667H768c-12.8 4.266667-21.333333 8.533333-25.6 17.066666-4.266667 8.533333-8.533333 21.333333-4.266667 29.866667 0 12.8 8.533333 21.333333 17.066667 25.6l85.333333 59.733333s4.266667 0 4.266667 4.266667H883.2s4.266667 0 4.266667-4.266667l89.6-59.733333c17.066667-12.8 25.6-38.4 12.8-55.466667-12.8-8.533333-21.333333-17.066667-29.866667-17.066666-12.8-4.266667-21.333333 0-29.866667 4.266666l-25.6 17.066667v-8.533333C874.666667 72.533333 657.066667 4.266667 546.133333 4.266667c-8.533333 0-21.333333 4.266667-29.866666 12.8s-12.8 17.066667-12.8 29.866666c0 12.8 4.266667 21.333333 12.8 29.866667 0 4.266667 12.8 8.533333 21.333333 8.533333s243.2 8.533333 277.333333 221.866667v12.8l-21.333333-12.8c-4.266667-4.266667-12.8-8.533333-17.066667-8.533333z" p-id="8669"></path></svg>