<?xml version="1.0" standalone="no"?><!DOCTYPE svg PUBLIC "-//W3C//DTD SVG 1.1//EN" "http://www.w3.org/Graphics/SVG/1.1/DTD/svg11.dtd"><svg t="1608532822305" class="icon" viewBox="0 0 1024 1024" version="1.1" xmlns="http://www.w3.org/2000/svg" p-id="7049" xmlns:xlink="http://www.w3.org/1999/xlink" width="32" height="32"><defs><style type="text/css"></style></defs><path d="M951.466667 0H366.933333c-42.666667 0-72.533333 34.133333-72.533333 72.533333v72.533334H217.6c-38.4 0-72.533333 34.133333-72.533333 72.533333v72.533333H72.533333C34.133333 294.4 0 324.266667 0 366.933333v584.533334c0 38.4 34.133333 72.533333 72.533333 72.533333h584.533334c38.4 0 72.533333-34.133333 72.533333-72.533333v-72.533334h72.533333c38.4 0 72.533333-34.133333 72.533334-72.533333v-72.533333h72.533333c38.4 0 72.533333-34.133333 72.533333-72.533334V72.533333C1024 34.133333 989.866667 0 951.466667 0z m-307.2 938.666667H85.333333V379.733333h558.933334V938.666667z m162.133333-132.266667h-72.533333V366.933333c0-38.4-34.133333-72.533333-72.533334-72.533333H217.6V217.6H802.133333v588.8z m145.066667-149.333333h-72.533334V217.6 213.333333c-4.266667-38.4-34.133333-68.266667-72.533333-68.266666H366.933333V72.533333h584.533334v584.533334z" p-id="7050"></path></svg>