<?xml version="1.0" standalone="no"?><!DOCTYPE svg PUBLIC "-//W3C//DTD SVG 1.1//EN" "http://www.w3.org/Graphics/SVG/1.1/DTD/svg11.dtd"><svg t="1608532852879" class="icon" viewBox="0 0 1024 1024" version="1.1" xmlns="http://www.w3.org/2000/svg" p-id="7552" xmlns:xlink="http://www.w3.org/1999/xlink" width="32" height="32"><defs><style type="text/css"></style></defs><path d="M977.066667 221.866667zM977.066667 221.866667L529.066667 4.266667c-4.266667-4.266667-8.533333-4.266667-17.066667-4.266667-4.266667 0-12.8 0-17.066667 4.266667L51.2 221.866667c-21.333333 4.266667-25.6 21.333333-25.6 29.866666v520.533334c0 12.8 4.266667 25.6 21.333333 34.133333l443.733334 213.333333c8.533333 4.266667 17.066667 4.266667 21.333333 4.266667 4.266667 0 12.8 0 17.066667-4.266667l448-213.333333c12.8-4.266667 21.333333-21.333333 21.333333-34.133333V256c0-12.8-4.266667-29.866667-21.333333-34.133333zM469.333333 925.866667l-366.933333-174.933334V320L238.933333 384v196.266667l85.333334 38.4V422.4l149.333333 68.266667v435.2z m42.666667-503.466667l-358.4-170.666667L512 85.333333l358.4 166.4-358.4 170.666667z m405.333333 328.533333l-366.933333 170.666667v-426.666667l366.933333-174.933333v430.933333z" p-id="7553"></path></svg>