<?xml version="1.0" standalone="no"?><!DOCTYPE svg PUBLIC "-//W3C//DTD SVG 1.1//EN" "http://www.w3.org/Graphics/SVG/1.1/DTD/svg11.dtd"><svg t="1608533269902" class="icon" viewBox="0 0 1024 1024" version="1.1" xmlns="http://www.w3.org/2000/svg" p-id="8686" xmlns:xlink="http://www.w3.org/1999/xlink" width="32" height="32"><defs><style type="text/css"></style></defs><path d="M622.933333 507.733333c-8.533333-4.266667-12.8-4.266667-21.333333-8.533333 81.066667-46.933333 128-136.533333 128-230.4 0-149.333333-119.466667-268.8-268.8-268.8S187.733333 119.466667 187.733333 268.8c0 93.866667 46.933333 179.2 128 230.4C136.533333 558.933333 8.533333 721.066667 4.266667 917.333333h72.533333c4.266667-209.066667 179.2-375.466667 388.266667-366.933333 34.133333 0 68.266667 4.266667 98.133333 17.066667 21.333333-21.333333 38.4-42.666667 59.733333-59.733334z m-162.133333-42.666666c-106.666667 0-196.266667-89.6-196.266667-196.266667s89.6-196.266667 196.266667-196.266667 196.266667 89.6 196.266667 196.266667c0 51.2-21.333333 102.4-55.466667 136.533333-42.666667 38.4-89.6 59.733333-140.8 59.733334z" p-id="8687"></path><path d="M622.933333 507.733333c-8.533333-4.266667-12.8-4.266667-21.333333-8.533333 81.066667-46.933333 128-136.533333 128-230.4 0-149.333333-119.466667-268.8-268.8-268.8S187.733333 119.466667 187.733333 268.8c0 93.866667 46.933333 179.2 128 230.4C136.533333 558.933333 8.533333 721.066667 4.266667 917.333333h72.533333c4.266667-209.066667 179.2-375.466667 388.266667-366.933333 34.133333 0 68.266667 4.266667 98.133333 17.066667 21.333333-21.333333 38.4-42.666667 59.733333-59.733334z m-162.133333-42.666666c-106.666667 0-196.266667-89.6-196.266667-196.266667s89.6-196.266667 196.266667-196.266667 196.266667 89.6 196.266667 196.266667c0 51.2-21.333333 102.4-55.466667 136.533333-42.666667 38.4-89.6 59.733333-140.8 59.733334z" p-id="8688"></path><path d="M460.8 708.266667l68.266667-98.133334H388.266667zM430.933333 738.133333l-21.333333 221.866667 51.2 64 46.933333-64-21.333333-221.866667zM913.066667 853.333333zM887.466667 644.266667zM793.6 840.533333V896c0 4.266667-4.266667 8.533333-8.533333 12.8h-4.266667c-4.266667 0-8.533333 0-8.533333-4.266667 0 0-17.066667-17.066667-38.4-34.133333-34.133333-29.866667-46.933333-34.133333-46.933334-34.133333h-85.333333c-8.533333 0-12.8-4.266667-12.8-12.8v-179.2c0-4.266667 4.266667-12.8 12.8-12.8H674.133333s12.8-4.266667 51.2-34.133334l42.666667-34.133333c4.266667-4.266667 8.533333-4.266667 12.8 0s8.533333 8.533333 8.533333 12.8c4.266667 0 4.266667 260.266667 4.266667 264.533333 0-4.266667 0 0 0 0zM866.133333 827.733333s-8.533333 4.266667-12.8 4.266667c-12.8 0-25.6-12.8-25.6-25.6 0-8.533333 4.266667-17.066667 12.8-21.333333 17.066667-8.533333 29.866667-29.866667 29.866667-46.933334s-8.533333-38.4-29.866667-46.933333c-8.533333-4.266667-12.8-12.8-12.8-21.333333 0-12.8 12.8-25.6 25.6-25.6 4.266667 0 12.8 4.266667 12.8 4.266666 34.133333 17.066667 51.2 51.2 51.2 89.6 4.266667 34.133333-17.066667 68.266667-51.2 89.6z" p-id="8689"></path><path d="M934.4 878.933333c-4.266667 0-8.533333 4.266667-12.8 4.266667-12.8 0-25.6-12.8-25.6-25.6 0-8.533333 4.266667-17.066667 12.8-21.333333 34.133333-21.333333 59.733333-59.733333 59.733333-102.4s-21.333333-81.066667-59.733333-102.4c-8.533333-4.266667-12.8-12.8-12.8-21.333334 0-12.8 12.8-25.6 25.6-25.6 4.266667 0 8.533333 0 12.8 4.266667 51.2 29.866667 85.333333 85.333333 85.333333 145.066667-4.266667 59.733333-34.133333 115.2-85.333333 145.066666z" p-id="8690"></path></svg>