<?xml version="1.0" standalone="no"?><!DOCTYPE svg PUBLIC "-//W3C//DTD SVG 1.1//EN" "http://www.w3.org/Graphics/SVG/1.1/DTD/svg11.dtd"><svg t="1608533335959" class="icon" viewBox="0 0 1024 1024" version="1.1" xmlns="http://www.w3.org/2000/svg" p-id="9443" xmlns:xlink="http://www.w3.org/1999/xlink" width="32" height="32"><defs><style type="text/css"></style></defs><path d="M985.6 456.533333V341.333333c0-46.933333-38.4-85.333333-85.333333-85.333333h-12.8c-8.533333-46.933333-51.2-115.2-106.666667-115.2H234.666667C183.466667 140.8 136.533333 209.066667 128 256h-8.533333c-46.933333 0-85.333333 38.4-85.333334 85.333333v115.2c-21.333333 8.533333-34.133333 29.866667-34.133333 51.2v93.866667c0 21.333333 17.066667 42.666667 34.133333 51.2v119.466667c0 59.733333 46.933333 110.933333 110.933334 110.933333h170.666666c106.666667 0 149.333333-72.533333 187.733334-162.133333h4.266666c29.866667 76.8 76.8 162.133333 192 162.133333h174.933334c59.733333 0 110.933333-46.933333 110.933333-110.933333v-119.466667c21.333333-4.266667 38.4-25.6 38.4-51.2V512c0-25.6-17.066667-46.933333-38.4-55.466667z m-170.666667-200.533333H209.066667c12.8-25.6 21.333333-42.666667 29.866666-42.666667h546.133334c12.8-4.266667 25.6 25.6 29.866666 42.666667zM110.933333 644.266667c12.8-12.8 17.066667-21.333333 17.066667-38.4V512c0-12.8-8.533333-25.6-17.066667-38.4V341.333333c0-8.533333 4.266667-12.8 12.8-12.8H896c8.533333 0 12.8 4.266667 12.8 12.8v136.533334c-8.533333 8.533333-12.8 17.066667-12.8 34.133333v93.866667c0 17.066667 4.266667 21.333333 12.8 34.133333v136.533333c0 17.066667-17.066667 34.133333-34.133333 34.133334h-174.933334c-55.466667 0-89.6-29.866667-123.733333-115.2-12.8-25.6-34.133333-42.666667-68.266667-42.666667-25.6 0-55.466667 17.066667-68.266666 42.666667-38.4 81.066667-68.266667 119.466667-123.733334 119.466666h-170.666666c-21.333333-8.533333-34.133333-21.333333-34.133334-42.666666v-128z" p-id="9444"></path><path d="M315.733333 669.866667c64 0 115.2-51.2 115.2-115.2 0-64-51.2-115.2-115.2-115.2-29.866667 0-64 12.8-81.066666 34.133333-21.333333 25.6-34.133333 55.466667-34.133334 85.333333 0 59.733333 51.2 110.933333 115.2 110.933334z m-25.6-140.8c8.533333-8.533333 17.066667-12.8 25.6-12.8 21.333333 0 38.4 17.066667 38.4 38.4s-12.8 38.4-38.4 38.4-38.4-17.066667-38.4-34.133334c0-12.8 4.266667-25.6 12.8-29.866666zM708.266667 674.133333c29.866667 0 64-12.8 81.066666-34.133333s34.133333-51.2 34.133334-81.066667c0-68.266667-51.2-115.2-115.2-115.2s-115.2 51.2-115.2 115.2c-4.266667 59.733333 46.933333 115.2 115.2 115.2z m0-157.866666c21.333333 0 38.4 17.066667 38.4 38.4 0 12.8-4.266667 21.333333-12.8 25.6-8.533333 8.533333-17.066667 12.8-25.6 12.8-21.333333 0-38.4-17.066667-38.4-38.4s12.8-38.4 38.4-38.4z" p-id="9445"></path></svg>