<?xml version="1.0" standalone="no"?><!DOCTYPE svg PUBLIC "-//W3C//DTD SVG 1.1//EN" "http://www.w3.org/Graphics/SVG/1.1/DTD/svg11.dtd"><svg t="1608533260655" class="icon" viewBox="0 0 1024 1024" version="1.1" xmlns="http://www.w3.org/2000/svg" p-id="8560" xmlns:xlink="http://www.w3.org/1999/xlink" width="32" height="32"><defs><style type="text/css"></style></defs><path d="M716.109938 8.504581L682.091615 4.25229l-25.513742 4.252291h-12.756871l-250.885133 38.270613L69.7618 0v238.128261c8.504581-34.018323 34.018323-59.532065 68.036646-72.288936h4.252291V85.045808l216.866809 29.766032v255.137423c12.756871-4.25229 29.766033-8.504581 42.522904-8.504581 8.504581 0 17.009162 0 25.513742 4.252291V114.81184l212.614519-34.018323v369.949263c29.766033 21.261452 46.775194 55.279775 46.775195 93.550389v242.380552l310.417198 46.775194V51.027485l-280.651166-42.522904z m216.86681 744.150817l-212.614519-34.018324v-637.843557l212.614519 34.018323v637.843558z" p-id="8561"></path><path d="M580.036646 467.751942c-8.504581-4.25229-21.261452-8.504581-34.018323-8.504581-8.504581 0-21.261452 4.25229-29.766033 8.504581-8.504581-21.261452-25.513742-34.018323-42.522903-42.522904-8.504581-4.25229-21.261452-8.504581-34.018323-8.504581-12.756871 0-21.261452 0-34.018324 8.504581-4.25229 0-8.504581 4.25229-12.756871 8.504581-12.756871-12.756871-25.513742-17.009162-34.018323-21.261452-12.756871-4.25229-21.261452-8.504581-34.018323-8.504581-8.504581 0-17.009162 0-25.513742 4.252291V293.408036c0-42.522904-21.261452-68.036646-51.027485-76.541227-8.504581-4.25229-21.261452-8.504581-34.018323-8.50458-12.756871 0-21.261452 0-34.018323 4.25229-25.513742 12.756871-51.027485 38.270613-51.027484 80.793517V552.79775c-8.504581-4.25229-17.009162-4.25229-25.513743-4.252291-12.756871 0-21.261452 0-34.018323 4.252291-25.513742 17.009162-46.775194 42.522904-46.775194 80.793517v148.830163c0 76.541227 4.25229 80.793517 42.522904 136.073292l8.504581 8.504581 63.784355 85.045808c8.504581 12.756871 29.766033 17.009162 42.522904 4.25229 12.756871-8.504581 12.756871-29.766033 4.252291-42.522904l-63.784356-85.045807-8.504581-12.756871c-29.766033-38.270613-29.766033-42.522904-29.766033-97.802679v-148.830164c0-12.756871 4.25229-21.261452 12.756872-21.261451 4.25229-4.25229 8.504581-4.25229 12.756871-4.252291 4.25229 0 8.504581 0 12.756871 4.252291 4.25229 4.25229 8.504581 12.756871 8.504581 25.513742v127.568711c0 17.009162 12.756871 29.766033 29.766032 29.766033s29.766033-12.756871 29.766033-29.766033v-467.751942c0-12.756871 4.25229-21.261452 12.756871-25.513742h25.513742c8.504581 4.25229 12.756871 12.756871 12.756872 25.513742v280.651166c0 17.009162 12.756871 29.766033 29.766032 29.766032 17.009162 0 29.766033-12.756871 29.766033-29.766032v-89.298098c0-12.756871 8.504581-21.261452 12.756871-21.261452h25.513742c8.504581 4.25229 12.756871 12.756871 12.756871 25.513742v89.298098c0 17.009162 12.756871 29.766033 29.766033 29.766033 17.009162 0 29.766033-12.756871 29.766033-29.766033v-76.541227c0-12.756871 8.504581-17.009162 12.756871-21.261452h25.513742c8.504581 4.25229 12.756871 12.756871 12.756871 25.513742v76.541227c0 17.009162 12.756871 29.766033 29.766033 29.766033 17.009162 0 29.766033-12.756871 29.766033-29.766033v-34.018323c0-12.756871 8.504581-17.009162 12.756871-21.261452 4.25229 0 8.504581-4.25229 12.756871-4.25229 4.25229 0 8.504581 0 12.756871 4.25229 8.504581 4.25229 12.756871 8.504581 12.756871 21.261452v297.660327l-34.018323 140.325583c-4.25229 17.009162 4.25229 29.766033 21.261452 34.018323 17.009162 4.25229 29.766033-4.25229 34.018323-21.261452l34.018323-144.577873v-310.417198c4.25229-38.270613-17.009162-63.784356-46.775194-76.541227z" p-id="8562"></path></svg>