<?xml version="1.0" standalone="no"?><!DOCTYPE svg PUBLIC "-//W3C//DTD SVG 1.1//EN" "http://www.w3.org/Graphics/SVG/1.1/DTD/svg11.dtd"><svg t="1608533283375" class="icon" viewBox="0 0 1025 1024" version="1.1" xmlns="http://www.w3.org/2000/svg" p-id="8814" xmlns:xlink="http://www.w3.org/1999/xlink" width="32.03125" height="32"><defs><style type="text/css"></style></defs><path d="M1016.6016 93.866667c-8.533333-8.533333-21.333333-17.066667-34.133333-12.8L26.734933 341.333333c-8.533333 4.266667-21.333333 12.8-25.6 25.6-4.266667 12.8 4.266667 25.6 12.8 34.133334l226.133334 187.733333L342.468267 878.933333c4.266667 12.8 17.066667 21.333333 29.866666 21.333334h4.266667c12.8 0 25.6-8.533333 29.866667-17.066667l59.733333-98.133333 174.933333 149.333333c4.266667 4.266667 12.8 8.533333 21.333334 8.533333h8.533333c12.8-4.266667 21.333333-12.8 21.333333-21.333333l328.533334-789.333333c8.533333-12.8 4.266667-25.6-4.266667-38.4z m-413.866667 345.6l-106.666666 145.066666c-4.266667 8.533333-8.533333 17.066667-4.266667 25.6 0 8.533333 4.266667 17.066667 12.8 21.333334 8.533333 4.266667 17.066667 8.533333 25.6 8.533333 8.533333 0 17.066667-4.266667 25.6-12.8l196.266667-260.266667c8.533333-12.8 8.533333-29.866667 0-42.666666-8.533333-8.533333-29.866667-17.066667-42.666667-8.533334l-435.2 213.333334-162.133333-132.266667 819.2-221.866667-277.333334 674.133334-170.666666-145.066667c-4.266667-4.266667-12.8-8.533333-21.333334-8.533333h-4.266666c-12.8 4.266667-21.333333 8.533333-25.6 17.066666l-42.666667 72.533334-72.533333-200.533334 285.866666-145.066666z" p-id="8815"></path></svg>