<?xml version="1.0" standalone="no"?><!DOCTYPE svg PUBLIC "-//W3C//DTD SVG 1.1//EN" "http://www.w3.org/Graphics/SVG/1.1/DTD/svg11.dtd"><svg t="1608707389517" class="icon" viewBox="0 0 1024 1024" version="1.1" xmlns="http://www.w3.org/2000/svg" p-id="6470" xmlns:xlink="http://www.w3.org/1999/xlink" width="32" height="32"><defs><style type="text/css"></style></defs><path d="M175.542857 1016.685714c-21.942857 0-43.885714-21.942857-43.885714-43.885714V102.4c0-36.571429 21.942857-73.142857 58.514286-87.771429C219.428571 0 263.314286 0 292.571429 21.942857l555.885714 431.542857c21.942857 21.942857 36.571429 51.2 36.571428 80.457143 0 29.257143-14.628571 58.514286-36.571428 80.457143l-468.114286 365.714286c-21.942857 14.628571-51.2 14.628571-65.828571-7.314286-14.628571-21.942857-14.628571-51.2 7.314285-65.828571l460.8-365.714286c7.314286-7.314286 7.314286-14.628571 0-14.628572L241.371429 95.085714h-7.314286c-7.314286 0-7.314286 7.314286-7.314286 7.314286v870.4c0 29.257143-21.942857 43.885714-51.2 43.885714z" p-id="6471"></path></svg>