<svg xmlns="http://www.w3.org/2000/svg" width="17.032" height="13.874" viewBox="0 0 17.032 13.874">
  <defs>
    <style>
      .cls-1 {
        fill: #707070;
      }
    </style>
  </defs>
  <g id="微信" transform="translate(-45.632 -99.328)">
    <path id="路径_1" data-name="路径 1" d="M57.162,103.525a5.094,5.094,0,0,1,.58.037c-.521-2.429-3.118-4.234-6.082-4.234-3.314,0-6.028,2.259-6.028,5.127a4.944,4.944,0,0,0,2.413,4.07l-.6,1.813,2.107-1.056a10.3,10.3,0,0,0,2.111.3c.19,0,.377-.009.564-.023a4.489,4.489,0,0,1-.186-1.265,4.937,4.937,0,0,1,5.125-4.77Zm-3.241-1.634a.754.754,0,1,1,0,1.507.766.766,0,1,1,0-1.507ZM49.7,103.4a.767.767,0,1,1,0-1.507.754.754,0,0,1,0,1.507Z"/>
    <path id="路径_2" data-name="路径 2" d="M433.287,355.223c0-2.411-2.412-4.375-5.12-4.375-2.868,0-5.127,1.964-5.127,4.375s2.259,4.375,5.127,4.375a7.54,7.54,0,0,0,1.809-.3l1.653.906-.453-1.506A4.568,4.568,0,0,0,433.287,355.223Zm-6.784-.753a.6.6,0,0,1,0-1.207.619.619,0,1,1,0,1.207Zm3.316,0a.6.6,0,0,1,0-1.207.618.618,0,1,1,0,1.207Z" transform="translate(-370.623 -246.998)"/>
  </g>
</svg>
