<?xml version="1.0" standalone="no"?><!DOCTYPE svg PUBLIC "-//W3C//DTD SVG 1.1//EN" "http://www.w3.org/Graphics/SVG/1.1/DTD/svg11.dtd"><svg t="1603268347184" class="icon" viewBox="0 0 1024 1024" version="1.1" xmlns="http://www.w3.org/2000/svg" p-id="2326" xmlns:xlink="http://www.w3.org/1999/xlink" width="16" height="16"><defs><style type="text/css"></style></defs><path d="M912 112C886.4 51.2 832 51.2 800 51.2H217.6c-28.8 0-80 0-105.6 67.2L25.6 396.8v28.8c0 92.8 73.6 166.4 169.6 166.4 38.4 0 76.8-12.8 102.4-35.2 32 22.4 64 35.2 102.4 35.2 38.4 0 76.8-12.8 102.4-35.2 32 22.4 64 35.2 102.4 35.2 38.4 0 76.8-12.8 102.4-35.2 32 22.4 64 35.2 102.4 35.2 54.4 0 102.4-19.2 137.6-54.4 32-32 48-70.4 48-115.2v-16l-83.2-294.4z m22.4 304v6.4c0 25.6-9.6 51.2-28.8 70.4-22.4 22.4-57.6 35.2-92.8 35.2-28.8 0-57.6-12.8-80-35.2l-25.6-25.6-22.4 25.6c-16 19.2-48 32-76.8 32-28.8 0-57.6-12.8-80-35.2l-25.6-25.6-22.4 32c-16 19.2-48 32-76.8 32-28.8 0-57.6-12.8-80-35.2l-25.6-25.6-22.4 25.6c-16 19.2-48 32-76.8 32-60.8 0-108.8-44.8-108.8-105.6v-19.2l83.2-268.8c9.6-19.2 19.2-19.2 44.8-19.2H800c32 0 41.6 3.2 51.2 19.2l83.2 284.8z" fill="#333333" p-id="2327"></path><path d="M444.8 912H272c-57.6 0-105.6-44.8-105.6-99.2v-246.4c0-16-12.8-32-32-32s-32 12.8-32 32v246.4c0 89.6 76.8 163.2 166.4 163.2h169.6c16 0 32-12.8 32-32 6.4-19.2-9.6-32-25.6-32z" fill="#333333" p-id="2328"></path><path d="M928 649.6h-272c-32 0-54.4 25.6-54.4 54.4v195.2c0 32 25.6 54.4 54.4 54.4h44.8c9.6 0 16-3.2 19.2-9.6l70.4-86.4 70.4 86.4c3.2 6.4 12.8 9.6 19.2 9.6H928c32 0 54.4-25.6 54.4-54.4V704c0-28.8-22.4-54.4-54.4-54.4z m-230.4 179.2c-25.6 0-48-22.4-48-48s22.4-48 48-48 48 22.4 48 48-19.2 48-48 48z m188.8 0c-25.6 0-48-22.4-48-48s22.4-48 48-48 48 22.4 48 48-22.4 48-48 48z" fill="#23B5FA" p-id="2329"></path></svg>