<?xml version="1.0" standalone="no"?><!DOCTYPE svg PUBLIC "-//W3C//DTD SVG 1.1//EN" "http://www.w3.org/Graphics/SVG/1.1/DTD/svg11.dtd"><svg t="1614844179057" class="icon" viewBox="0 0 1024 1024" version="1.1" xmlns="http://www.w3.org/2000/svg" p-id="14565" xmlns:xlink="http://www.w3.org/1999/xlink" width="200" height="200"><defs><style type="text/css"></style></defs><path d="M226.133333 328.533333h529.066667c17.066667 0 29.866667-17.066667 29.866667-38.4s-12.8-38.4-29.866667-38.4H226.133333c-17.066667 0-29.866667 17.066667-29.866666 38.4s12.8 38.4 29.866666 38.4zM563.2 516.266667c0-21.333333-12.8-38.4-25.6-38.4H226.133333c-17.066667 0-25.6 17.066667-25.6 38.4s8.533333 38.4 25.6 38.4h311.466667c12.8 0 25.6-17.066667 25.6-38.4z" p-id="14566" fill="#ffffff"></path><path d="M904.533333 12.8H98.133333C51.2 12.8 0 64 0 115.2v785.066667c0 64 46.933333 115.2 110.933333 115.2h162.133334c21.333333 0 38.4-17.066667 42.666666-38.4 0-12.8-4.266667-21.333333-12.8-29.866667s-17.066667-12.8-29.866666-12.8H115.2c-21.333333 0-38.4-17.066667-38.4-38.4V192C81.066667 132.266667 85.333333 93.866667 170.666667 93.866667h721.066666c17.066667 0 34.133333 12.8 34.133334 34.133333v55.466667c0 8.533333 4.266667 21.333333 12.8 25.6s17.066667 12.8 25.6 12.8h12.8c17.066667-4.266667 25.6-21.333333 25.6-38.4V115.2c0-51.2-51.2-102.4-98.133334-102.4z m106.666667 413.866667L448 981.333333c-17.066667 17.066667-42.666667 21.333333-59.733333 4.266667s-12.8-42.666667 4.266666-59.733333l558.933334-554.666667c17.066667-17.066667 42.666667-21.333333 59.733333-4.266667 17.066667 12.8 17.066667 42.666667 0 59.733334z m-46.933333 196.266666c-21.333333 0-38.4 17.066667-38.4 38.4V896c0 21.333333-17.066667 38.4-38.4 38.4h-157.866667c-8.533333 0-21.333333 4.266667-29.866667 12.8-8.533333 8.533333-12.8 21.333333-12.8 29.866667 0 21.333333 21.333333 38.4 42.666667 38.4h162.133333c59.733333 0 110.933333-51.2 110.933334-115.2v-238.933334c0-21.333333-17.066667-38.4-38.4-38.4z" p-id="14567" fill="#ffffff"></path></svg>