<?xml version="1.0" standalone="no"?><!DOCTYPE svg PUBLIC "-//W3C//DTD SVG 1.1//EN" "http://www.w3.org/Graphics/SVG/1.1/DTD/svg11.dtd"><svg t="1614844160411" class="icon" viewBox="0 0 1024 1024" version="1.1" xmlns="http://www.w3.org/2000/svg" p-id="14231" xmlns:xlink="http://www.w3.org/1999/xlink" width="200" height="200"><defs><style type="text/css"></style></defs><path d="M51.2 614.4c-25.6 0-42.666667 17.066667-42.666667 42.666667v247.466666c0 51.2 42.666667 98.133333 93.866667 98.133334h819.2c51.2 0 93.866667-42.666667 93.866667-98.133334V298.666667c0-51.2-42.666667-98.133333-93.866667-98.133334H768l110.933333-110.933333c12.8-17.066667 12.8-42.666667-4.266666-59.733333-17.066667-12.8-38.4-12.8-55.466667 0l-170.666667 170.666666H375.466667L200.533333 29.866667c-17.066667-12.8-42.666667-12.8-59.733333 4.266666-12.8 17.066667-12.8 38.4 4.266667 55.466667L256 200.533333H102.4C51.2 200.533333 8.533333 243.2 8.533333 298.666667v136.533333c0 25.6 17.066667 42.666667 42.666667 42.666667s42.666667-17.066667 42.666667-42.666667V285.866667h832l4.266666 4.266666c4.266667 4.266667 4.266667 8.533333 4.266667 8.533334v618.666666H102.4l-4.266667-4.266666c-4.266667-4.266667-4.266667-8.533333-4.266666-12.8v-247.466667c0-12.8-4.266667-21.333333-12.8-29.866667-8.533333-4.266667-17.066667-8.533333-29.866667-8.533333zM110.933333 904.533333v4.266667z" p-id="14232" fill="#ffffff"></path><path d="M435.2 533.333333l128 72.533334-128 72.533333v-145.066667m-34.133333-110.933333c-17.066667 0-34.133333 8.533333-42.666667 25.6-4.266667 8.533333-8.533333 17.066667-8.533333 25.6v256c0 17.066667 8.533333 34.133333 25.6 42.666667 8.533333 4.266667 17.066667 8.533333 25.6 8.533333 8.533333 0 17.066667-4.266667 25.6-8.533333l230.4-128c25.6-12.8 34.133333-46.933333 21.333333-68.266667-4.266667-8.533333-12.8-17.066667-21.333333-21.333333L426.666667 426.666667c-8.533333 0-17.066667-4.266667-25.6-4.266667z" p-id="14233" fill="#ffffff"></path></svg>