<?xml version="1.0" standalone="no"?><!DOCTYPE svg PUBLIC "-//W3C//DTD SVG 1.1//EN" "http://www.w3.org/Graphics/SVG/1.1/DTD/svg11.dtd"><svg t="1614844170502" class="icon" viewBox="0 0 1024 1024" version="1.1" xmlns="http://www.w3.org/2000/svg" p-id="14398" xmlns:xlink="http://www.w3.org/1999/xlink" width="200" height="200"><defs><style type="text/css"></style></defs><path d="M930.133333 337.066667C878.933333 145.066667 708.266667 12.8 512 12.8S145.066667 145.066667 93.866667 337.066667C38.4 354.133333 0 405.333333 0 465.066667v145.066666c0 72.533333 59.733333 132.266667 132.266667 132.266667h8.533333c72.533333 0 132.266667-59.733333 132.266667-132.266667v-145.066666c0-59.733333-42.666667-115.2-98.133334-128C221.866667 192 358.4 93.866667 512 93.866667s290.133333 98.133333 337.066667 243.2c-59.733333 17.066667-98.133333 68.266667-98.133334 128v145.066666c0 51.2 29.866667 93.866667 68.266667 115.2-34.133333 46.933333-98.133333 110.933333-183.466667 132.266667-17.066667-34.133333-51.2-55.466667-89.6-55.466667h-81.066666c-55.466667 0-98.133333 42.666667-98.133334 98.133334v4.266666c0 55.466667 42.666667 98.133333 98.133334 98.133334h81.066666c42.666667 0 81.066667-29.866667 93.866667-68.266667 128-29.866667 221.866667-132.266667 256-192 68.266667-4.266667 123.733333-64 123.733333-132.266667v-145.066666c4.266667-59.733333-34.133333-110.933333-89.6-128z m-733.866666 128v145.066666c0 29.866667-25.6 55.466667-55.466667 55.466667h-8.533333c-29.866667 0-55.466667-25.6-55.466667-55.466667v-145.066666c0-29.866667 25.6-55.466667 55.466667-55.466667h8.533333c29.866667 0 55.466667 25.6 55.466667 55.466667z m379.733333 443.733333c0 12.8-8.533333 21.333333-21.333333 21.333333h-81.066667c-12.8 0-21.333333-8.533333-21.333333-21.333333v-4.266667c0-12.8 8.533333-21.333333 21.333333-21.333333H554.666667c12.8 0 21.333333 8.533333 21.333333 21.333333v4.266667z m371.2-298.666667c0 29.866667-25.6 55.466667-55.466667 55.466667h-8.533333c-29.866667 0-55.466667-25.6-55.466667-55.466667v-145.066666c0-29.866667 25.6-55.466667 55.466667-55.466667h8.533333c29.866667 0 55.466667 25.6 55.466667 55.466667v145.066666z" p-id="14399" fill="#ffffff"></path><path d="M512 708.266667c-68.266667 0-128-46.933333-149.333333-110.933334-4.266667-17.066667 4.266667-34.133333 21.333333-38.4s34.133333 4.266667 38.4 21.333334c12.8 46.933333 64 72.533333 110.933333 59.733333 29.866667-8.533333 51.2-29.866667 59.733334-59.733333 4.266667-17.066667 21.333333-25.6 38.4-21.333334s25.6 21.333333 21.333333 38.4c-12.8 64-72.533333 106.666667-140.8 110.933334z" p-id="14400" fill="#ffffff"></path></svg>