<?xml version="1.0" standalone="no"?><!DOCTYPE svg PUBLIC "-//W3C//DTD SVG 1.1//EN" "http://www.w3.org/Graphics/SVG/1.1/DTD/svg11.dtd"><svg t="1614843625844" class="icon" viewBox="0 0 1024 1024" version="1.1" xmlns="http://www.w3.org/2000/svg" p-id="13062" xmlns:xlink="http://www.w3.org/1999/xlink" width="200" height="200"><defs><style type="text/css"></style></defs><path d="M102.4 179.2H34.133333c-17.066667 0-34.133333-12.8-34.133333-34.133333V76.8c0-17.066667 17.066667-34.133333 34.133333-34.133333h68.266667c17.066667 0 34.133333 17.066667 34.133333 34.133333v68.266667c0 21.333333-17.066667 34.133333-34.133333 34.133333zM102.4 580.266667H34.133333c-17.066667 0-34.133333-17.066667-34.133333-34.133334v-68.266666c0-17.066667 17.066667-34.133333 34.133333-34.133334h68.266667c17.066667 0 34.133333 17.066667 34.133333 34.133334v68.266666c0 17.066667-17.066667 34.133333-34.133333 34.133334zM102.4 977.066667H34.133333c-17.066667 0-34.133333-17.066667-34.133333-34.133334v-68.266666c0-17.066667 17.066667-34.133333 34.133333-34.133334h68.266667c17.066667 0 34.133333 17.066667 34.133333 34.133334v68.266666c0 21.333333-17.066667 34.133333-34.133333 34.133334zM981.333333 153.6H281.6c-21.333333 0-42.666667-17.066667-42.666667-42.666667s17.066667-42.666667 42.666667-42.666666H981.333333c21.333333 0 42.666667 17.066667 42.666667 42.666666s-17.066667 42.666667-42.666667 42.666667zM981.333333 554.666667H281.6c-21.333333 0-42.666667-17.066667-42.666667-42.666667 0-21.333333 17.066667-42.666667 42.666667-42.666667H981.333333c21.333333 0 42.666667 17.066667 42.666667 42.666667 0 21.333333-17.066667 42.666667-42.666667 42.666667zM981.333333 955.733333H281.6c-21.333333 0-42.666667-17.066667-42.666667-42.666666 0-21.333333 17.066667-42.666667 42.666667-42.666667H981.333333c21.333333 0 42.666667 17.066667 42.666667 42.666667 0 21.333333-17.066667 42.666667-42.666667 42.666666z" p-id="13063" fill="#ffffff"></path></svg>