<?xml version="1.0" standalone="no"?><!DOCTYPE svg PUBLIC "-//W3C//DTD SVG 1.1//EN" "http://www.w3.org/Graphics/SVG/1.1/DTD/svg11.dtd"><svg t="1614825056224" class="icon" viewBox="0 0 1024 1024" version="1.1" xmlns="http://www.w3.org/2000/svg" p-id="12060" xmlns:xlink="http://www.w3.org/1999/xlink" width="200" height="200"><defs><style type="text/css"></style></defs><path d="M998.958917 467.385892L850.245224 318.672199c-16.995851-16.995851-42.489627-16.995851-59.485477 0-8.497925 8.497925-12.746888 16.995851-12.746888 29.742739 0 12.746888 4.248963 21.244813 12.746888 29.742738l89.228216 89.228216H552.817839V135.966805l89.228215 89.228216c16.995851 16.995851 42.489627 16.995851 59.485478 0 16.995851-16.995851 16.995851-42.489627 0-59.485477L552.817839 21.244813c-21.244813-21.244813-59.485477-21.244813-84.979254 0L319.124893 165.709544c-16.995851 16.995851-16.995851 42.489627 0 59.485477 16.995851 16.995851 42.489627 16.995851 59.485477 0L467.838585 135.966805V467.385892H136.419498l89.228216-89.228216c16.995851-16.995851 16.995851-42.489627 0-59.485477-16.995851-16.995851-42.489627-16.995851-59.485477 0L21.697507 467.385892c-21.244813 21.244813-21.244813 59.485477 0 84.979253L170.4112 701.078838c16.995851 16.995851 42.489627 16.995851 59.485477 0s16.995851-42.489627 0-59.485477L136.419498 552.365145H467.838585v335.66805l-89.228215-89.228216c-16.995851-16.995851-42.489627-16.995851-59.485477 0-16.995851 16.995851-16.995851 42.489627 0 59.485477l148.713692 148.713693c12.746888 12.746888 25.493776 16.995851 42.489627 16.995851s29.742739-4.248963 42.489627-16.995851l148.713693-148.713693c16.995851-16.995851 16.995851-42.489627 0-59.485477-16.995851-16.995851-42.489627-16.995851-59.485478 0L552.817839 888.033195V552.365145h335.668049l-89.228215 89.228216c-16.995851 16.995851-16.995851 42.489627 0 59.485477 16.995851 16.995851 42.489627 16.995851 59.485477 0l148.713693-148.713693c16.995851-25.493776 16.995851-59.485477-8.497926-84.979253z" p-id="12061" fill="#ffffff"></path></svg>