<svg t="1594291390632" class="icon" viewBox="0 0 1024 1024" version="1.1" xmlns="http://www.w3.org/2000/svg" p-id="17052" width="24" height="24"><path d="M915.2 745.6h6.4c9.6 0 19.2-6.4 22.4-16l3.2-9.6 32 25.6-3.2 6.4c-9.6 22.4-32 35.2-57.6 35.2h-6.4l3.2-41.6z m-92.8 44.8v-44.8h64v44.8h-64z m-96 0v-44.8h64v44.8h-64z m-92.8 0v-44.8h64v44.8h-64z m-96 0v-44.8h64v44.8h-64zM947.2 704v-64H992v64h-44.8z m0-96v-64H992v64h-44.8zM233.6 518.4v-64h44.8v64H233.6z m713.6-6.4v-64H992v64h-44.8zM233.6 422.4v-64h44.8v64H233.6z m713.6-3.2v-64H992v64h-44.8zM233.6 329.6v-64h44.8v64H233.6z m713.6-6.4v-64H992v64h-44.8zM233.6 233.6V198.4c0-9.6 3.2-19.2 6.4-25.6l3.2-6.4 41.6 16-3.2 3.2v48H233.6z m713.6-6.4v-28.8c0-6.4 0-9.6-3.2-12.8l-3.2-6.4 6.4-3.2h-80V124.8h86.4v41.6l25.6-12.8 3.2 6.4c6.4 9.6 9.6 22.4 9.6 32v28.8h-44.8zM288 128h73.6v44.8H291.2L288 128z m483.2 44.8V128h64v44.8h-64z m-96 0V128h64v44.8h-64z m-92.8 0V128h64v44.8h-64z m-96 0V128h64v44.8h-64z m-96 0V128h64v44.8h-64z" p-id="17053" fill="#ffffff"></path><path d="M304 166.4v-32H352v28.8H304z m96 0v-32H448v28.8h-48z m96 0v-32H544v28.8h-48z m92.8 0v-32h48v28.8h-48z m96 0v-32h48v28.8h-48z m96 0v-32h48v28.8h-48z m92.8 0v-32h70.4v28.8h-70.4z m76.8 12.8l25.6-12.8c6.4 9.6 6.4 19.2 6.4 28.8v22.4h-28.8v-19.2c0-6.4 0-12.8-3.2-19.2z m3.2 89.6h28.8v48h-28.8V268.8z m0 92.8h28.8v48h-28.8v-48z m0 96h28.8v48h-28.8v-48z m0 92.8h28.8v48h-28.8v-48z m0 96h28.8v48h-28.8v-48z m0 86.4l22.4 16c-9.6 19.2-28.8 32-51.2 32v-28.8c12.8 0 22.4-9.6 28.8-19.2z m-76.8 19.2v28.8h-48v-28.8h48z m-96 0v28.8H736v-28.8h44.8z m-92.8 0v28.8H640v-28.8h48z m-96 0v28.8H544v-28.8h48z m-320-243.2h-28.8v-48h28.8v48z m0-92.8h-28.8v-48h28.8V416z m0-96h-28.8V272h28.8V320z m0-96h-28.8v-25.6c0-9.6 3.2-16 6.4-22.4l28.8 9.6c-3.2 3.2-6.4 6.4-6.4 12.8V224z m28.8-57.6l-3.2-32h6.4v28.8c0 3.2-3.2 3.2-3.2 3.2z m329.6 323.2l12.8-12.8 105.6-96 48 54.4h19.2V425.6l25.6-150.4c0-3.2 0-6.4-3.2-9.6-3.2-3.2-6.4-3.2-9.6-3.2l-150.4 9.6c-3.2 0-6.4 0-9.6 3.2-3.2 3.2-3.2 6.4-3.2 9.6 0 3.2 0 6.4 3.2 9.6l48 54.4-121.6 112c-6.4 6.4-6.4 19.2 0 25.6l3.2 3.2c9.6 9.6 22.4 9.6 32 0z" p-id="17054" fill="#ffffff"></path><path d="M505.6 518.4H80c-32 0-48 16-48 48v284.8c0 32 16 48 48 48h425.6c32 0 48-16 48-48v-284.8c0-32-16-48-48-48z" p-id="17055" fill="#ffffff"></path></svg>