<?xml version="1.0" standalone="no"?><!DOCTYPE svg PUBLIC "-//W3C//DTD SVG 1.1//EN" "http://www.w3.org/Graphics/SVG/1.1/DTD/svg11.dtd"><svg t="1614843594741" class="icon" viewBox="0 0 1024 1024" version="1.1" xmlns="http://www.w3.org/2000/svg" p-id="12729" xmlns:xlink="http://www.w3.org/1999/xlink" width="200" height="200"><defs><style type="text/css"></style></defs><path d="M851.917012 518.373444c-8.497925-46.738589-33.991701-80.73029-63.734439-89.228216l-97.726141-38.240664-72.232366-127.468879-12.746888-8.497926c55.236515-16.995851 93.477178-67.983402 93.477179-123.219917 0-72.232365-55.236515-127.46888-127.46888-127.468879-67.983402 0-123.219917 59.485477-123.219917 127.468879 0 25.493776 8.497925 50.987552 25.493776 76.481328-8.497925 0-16.995851 4.248963-25.493776 8.497925L248.564315 280.431535c-25.493776 8.497925-46.738589 29.742739-59.485477 63.73444L172.082988 505.626556v4.248963c0 46.738589 29.742739 84.979253 76.481327 93.477178h12.746888c21.244813 0 46.738589-8.497925 59.485477-25.493776v8.497925l-123.219917 297.427386c-8.497925 25.493776-8.497925 55.236515 0 80.730291 8.497925 21.244813 25.493776 38.240664 50.987552 46.738589h4.248963c46.738589 8.497925 101.975104-4.248963 123.219917-59.485477l72.232365-157.211618 97.726141 174.207468c25.493776 46.738589 59.485477 55.236515 84.979253 55.236515 8.497925 0 16.995851-4.248963 21.244814-4.248963 4.248963 0 4.248963 0 8.497925-4.248962h8.497925l8.497926-4.248963c25.493776-12.746888 42.489627-38.240664 46.738589-63.73444 4.248963-21.244813 0-46.738589-8.497926-63.73444-4.248963-4.248963-12.746888-25.493776-25.493775-50.987552-33.991701-67.983402-93.477178-178.456432-135.966805-259.186721l25.493775-59.485478c4.248963 4.248963 12.746888 8.497925 12.746888 12.746888l4.248963 4.248963 4.248963 4.248963 144.46473 59.485477h4.248963c4.248963 4.248963 12.746888 4.248963 25.493776 4.248962 46.738589 0 67.983402-29.742739 80.73029-55.236514l4.248963-8.497925-8.497926-16.995851z m-288.92946-144.46473L469.510373 577.858921l8.497926 12.746888c67.983402 114.721992 165.709544 310.174274 174.207469 318.672199 8.497925 16.995851 0 29.742739-8.497926 33.991702H639.46888h-4.248963c-4.248963 0-8.497925 0-8.497925 4.248962-8.497925 0-12.746888 0-21.244814-16.99585 0 0-72.232365-123.219917-131.717842-233.692946l-33.991701-59.485478-131.717842 284.680498c-4.248963 8.497925-12.746888 25.493776-38.240664 21.244814-8.497925-4.248963-12.746888-21.244813-8.497926-38.240664l135.966805-318.6722-4.248962-12.746887c-16.995851-38.240664-16.995851-80.73029-8.497926-106.224067 12.746888-25.493776 25.493776-55.236515 33.991702-84.979253l29.742738-76.481328-165.709543 72.232365-12.746888 144.464731v4.248962c0 4.248963-4.248963 8.497925-12.746888 8.497926-12.746888-4.248963-16.995851-16.995851-16.995851-21.244814L257.062241 361.161826c4.248963-8.497925 8.497925-16.995851 12.746888-16.995851l203.950207-63.73444 4.248963-4.248962c21.244813-12.746888 46.738589-8.497925 67.983402 12.746888l12.746888 12.746888 80.730291 140.215767 123.219917 46.738589h4.248962s4.248963 8.497925 8.497926 25.493776c-4.248963 8.497925-4.248963 8.497925-8.497926 12.746888-4.248963 0-8.497925-4.248963-16.99585-4.248962l-123.219917-50.987552-4.248963-4.248963h-4.248963s-4.248963-4.248963-4.248962 0l-50.987552-93.477178zM512 127.46888c0-33.991701 25.493776-59.485477 55.236515-59.485478 33.991701 0 59.485477 25.493776 59.485477 59.485478s-25.493776 59.485477-59.485477 59.485477c-25.493776 4.248963-55.236515-25.493776-55.236515-59.485477z" p-id="12730" fill="#ffffff"></path></svg>