<?xml version="1.0" standalone="no"?><!DOCTYPE svg PUBLIC "-//W3C//DTD SVG 1.1//EN" "http://www.w3.org/Graphics/SVG/1.1/DTD/svg11.dtd"><svg t="1614822570208" class="icon" viewBox="0 0 1024 1024" version="1.1" xmlns="http://www.w3.org/2000/svg" p-id="10890" xmlns:xlink="http://www.w3.org/1999/xlink" width="200" height="200"><defs><style type="text/css"></style></defs><path d="M468.114286 375.466667l253.561904 117.028571c2.438095 2.438095 7.314286 2.438095 9.752381 2.438095 9.752381 0 19.504762-4.87619 21.942858-14.628571 4.87619-12.190476 0-26.819048-12.190477-34.133333l-248.685714-117.028572V97.52381c0-14.628571-12.190476-24.380952-24.380952-24.380953-14.628571 0-24.380952 12.190476-24.380953 24.380953v234.057142l-146.285714 65.828572c-12.190476 4.87619-17.066667 19.504762-12.190476 31.695238 4.87619 9.752381 12.190476 14.628571 21.942857 14.628571 2.438095 0 7.314286 0 9.752381-2.438095l151.161905-65.828571z" p-id="10891" fill="#ffffff"></path><path d="M1024 382.780952c0-9.752381 0-29.257143-9.752381-43.885714-12.190476-19.504762-36.571429-31.695238-41.447619-34.133333L497.371429 73.142857c-19.504762-9.752381-41.447619-9.752381-60.952381-2.438095L195.047619 165.790476l-2.438095 2.438095-4.876191 2.438096-9.752381 4.87619c-34.133333 12.190476-34.133333 48.761905-34.133333 48.761905v95.085714s-92.647619 41.447619-97.523809 43.885714-17.066667 9.752381-17.066667 9.752381-7.314286 4.87619-19.504762 19.504762c-9.752381 14.628571-9.752381 34.133333-9.752381 34.133334v248.685714c0 51.2 7.314286 70.704762 58.514286 102.4 2.438095 2.438095 324.266667 165.790476 329.142857 168.228571 19.504762 9.752381 34.133333 14.628571 46.323809 14.628572s29.257143-2.438095 46.32381-9.752381l14.628571-7.314286 134.095238-63.390476c21.942857-9.752381 36.571429-31.695238 36.571429-56.076191v-168.228571l124.342857-58.514286v148.72381c0 12.190476 7.314286 24.380952 17.066667 31.695238 9.752381 7.314286 24.380952 7.314286 36.571428 2.438095l136.533334-63.390476c26.819048-12.190476 43.885714-39.009524 43.885714-68.266667V382.780952zM195.047619 246.247619l53.638095 26.819048-53.638095 24.380952v-51.2z m85.333333 68.266667v187.733333l-195.047619-99.961905 195.047619-87.771428z m129.219048 585.142857L73.142857 728.990476c-24.380952-14.628571-24.380952-24.380952-24.380952-58.514286v-229.180952l360.838095 182.857143v275.504762z m-78.019048-370.590476v-226.742857c0-39.009524-34.133333-58.514286-34.133333-58.514286L231.619048 207.238095l224.304762-90.209524c7.314286-2.438095 14.628571-2.438095 19.504761 0l463.238096 226.742858-502.247619 236.495238-104.838096-51.2z m641.219048 117.028571c0 9.752381-4.87619 19.504762-14.628571 21.942857l-119.466667 56.076191v-148.72381c0-12.190476-7.314286-24.380952-17.066667-31.695238s-24.380952-7.314286-36.571428-2.438095L643.657143 609.52381c-19.504762 12.190476-26.819048 26.819048-26.819048 46.323809v165.790476c0 4.87619-2.438095 9.752381-7.314285 12.190476L463.238095 902.095238V626.590476l512-241.371428-2.438095 260.87619z" p-id="10892" fill="#ffffff"></path><path d="M187.733333 170.666667c0-2.438095 2.438095-2.438095 0 0 2.438095 0 0 0 0 0z" p-id="10893" fill="#ffffff"></path></svg>